UFO
<glyph name="numbersign" format="2">
  <advance width="1169"/>
  <unicode hex="0023"/>
  <outline>
    <contour>
      <point x="668" y="1065" type="line"/>
      <point x="668" y="141" type="line"/>
      <point x="795" y="141" type="line"/>
      <point x="795" y="1065" type="line"/>
    </contour>
    <contour>
      <point x="369" y="1065" type="line"/>
      <point x="369" y="141" type="line"/>
      <point x="496" y="141" type="line"/>
      <point x="496" y="1065" type="line"/>
    </contour>
    <contour>
      <point x="123" y="692" type="line"/>
      <point x="1047" y="692" type="line"/>
      <point x="1047" y="819" type="line"/>
      <point x="123" y="819" type="line"/>
    </contour>
    <contour>
      <point x="123" y="393" type="line"/>
      <point x="1047" y="393" type="line"/>
      <point x="1047" y="520" type="line"/>
      <point x="123" y="520" type="line"/>
    </contour>
  </outline>
</glyph>
<glyph name="dollar" format="2">
  <advance width="1104"/>
  <unicode hex="0024"/>
  <note>
uni0024
</note>
  <outline>
    <contour>
      <point x="698" y="332" type="curve" smooth="yes"/>
      <point x="698" y="248"/>
      <point x="649" y="197"/>
      <point x="569" y="197" type="curve" smooth="yes"/>
      <point x="461" y="197"/>
      <point x="399" y="268"/>
      <point x="399" y="403" type="curve"/>
      <point x="102" y="403" type="line"/>
      <point x="102" y="160"/>
      <point x="244" y="4"/>
      <point x="500" y="-23" type="curve"/>
      <point x="500" y="-201" type="line"/>
      <point x="639" y="-201" type="line"/>
      <point x="639" y="-25" type="line"/>
      <point x="860" y="-2"/>
      <point x="995" y="133"/>
      <point x="995" y="334" type="curve" smooth="yes"/>
      <point x="995" y="451"/>
      <point x="952" y="532"/>
      <point x="883" y="596" type="curve" smooth="yes"/>
      <point x="848" y="629"/>
      <point x="805" y="655"/>
      <point x="758" y="682" type="curve" smooth="yes"/>
      <point x="653" y="735"/>
      <point x="537" y="772"/>
      <point x="483" y="827" type="curve" smooth="yes"/>
      <point x="459" y="852"/>
      <point x="446" y="887"/>
      <point x="446" y="930" type="curve" smooth="yes"/>
      <point x="446" y="1016"/>
      <point x="492" y="1067"/>
      <point x="569" y="1067" type="curve" smooth="yes"/>
      <point x="655" y="1067"/>
      <point x="705" y="999"/>
      <point x="705" y="877" type="curve"/>
      <point x="1001" y="877" type="line"/>
      <point x="1001" y="1100"/>
      <point x="872" y="1253"/>
      <point x="657" y="1286" type="curve"/>
      <point x="657" y="1475" type="line"/>
      <point x="518" y="1475" type="line"/>
      <point x="518" y="1290" type="line"/>
      <point x="295" y="1268"/>
      <point x="150" y="1130"/>
      <point x="150" y="932" type="curve" smooth="yes"/>
      <point x="150" y="762"/>
      <point x="233" y="662"/>
      <point x="385" y="586" type="curve" smooth="yes"/>
      <point x="494" y="532"/>
      <point x="616" y="496"/>
      <point x="664" y="440" type="curve" smooth="yes"/>
      <point x="688" y="414"/>
      <point x="698" y="377"/>
    </contour>
  </outline>
</glyph>
<glyph name="percent" format="2">
  <advance width="1249"/>
  <unicode hex="0025"/>
  <outline>
    <contour>
      <point x="913" y="1343" type="line"/>
      <point x="172" y="197" type="line"/>
      <point x="362" y="197" type="line"/>
      <point x="1104" y="1343" type="line"/>
    </contour>
    <contour>
      <point x="317" y="838" type="curve" smooth="yes"/>
      <point x="424" y="838"/>
      <point x="512" y="926"/>
      <point x="512" y="1034" type="curve" smooth="yes"/>
      <point x="512" y="1141"/>
      <point x="424" y="1227"/>
      <point x="317" y="1227" type="curve" smooth="yes"/>
      <point x="209" y="1227"/>
      <point x="123" y="1141"/>
      <point x="123" y="1034" type="curve" smooth="yes"/>
      <point x="123" y="926"/>
      <point x="209" y="838"/>
    </contour>
    <contour>
      <point x="317" y="946" type="curve" smooth="yes"/>
      <point x="268" y="946"/>
      <point x="231" y="985"/>
      <point x="231" y="1034" type="curve" smooth="yes"/>
      <point x="231" y="1081"/>
      <point x="268" y="1118"/>
      <point x="317" y="1118" type="curve" smooth="yes"/>
      <point x="365" y="1118"/>
      <point x="403" y="1081"/>
      <point x="403" y="1034" type="curve" smooth="yes"/>
      <point x="403" y="985"/>
      <point x="365" y="946"/>
    </contour>
    <contour>
      <point x="932" y="248" type="curve" smooth="yes"/>
      <point x="1038" y="248"/>
      <point x="1126" y="336"/>
      <point x="1126" y="444" type="curve" smooth="yes"/>
      <point x="1126" y="551"/>
      <point x="1038" y="637"/>
      <point x="932" y="637" type="curve" smooth="yes"/>
      <point x="823" y="637"/>
      <point x="737" y="551"/>
      <point x="737" y="444" type="curve" smooth="yes"/>
      <point x="737" y="336"/>
      <point x="823" y="248"/>
    </contour>
    <contour>
      <point x="932" y="356" type="curve" smooth="yes"/>
      <point x="883" y="356"/>
      <point x="846" y="395"/>
      <point x="846" y="444" type="curve" smooth="yes"/>
      <point x="846" y="492"/>
      <point x="883" y="528"/>
      <point x="932" y="528" type="curve" smooth="yes"/>
      <point x="979" y="528"/>
      <point x="1018" y="492"/>
      <point x="1018" y="444" type="curve" smooth="yes"/>
      <point x="1018" y="395"/>
      <point x="979" y="356"/>
    </contour>
  </outline>
</glyph>
<glyph name="ampersand" format="2">
  <advance width="1298"/>
  <unicode hex="0026"/>
  <note>
uni0026
</note>
  <outline>
    <contour>
      <point x="303" y="649" type="line"/>
      <point x="129" y="520"/>
      <point x="82" y="438"/>
      <point x="82" y="319" type="curve" smooth="yes"/>
      <point x="82" y="102"/>
      <point x="248" y="-43"/>
      <point x="502" y="-43" type="curve" smooth="yes"/>
      <point x="631" y="-43"/>
      <point x="727" y="-16"/>
      <point x="825" y="43" type="curve"/>
      <point x="887" y="-25" type="line"/>
      <point x="1217" y="-25" type="line"/>
      <point x="1022" y="201" type="line"/>
      <point x="1102" y="305"/>
      <point x="1141" y="444"/>
      <point x="1141" y="616" type="curve"/>
      <point x="893" y="616" type="line"/>
      <point x="893" y="541"/>
      <point x="877" y="469"/>
      <point x="844" y="403" type="curve"/>
      <point x="647" y="631" type="line"/>
      <point x="713" y="678" type="line" smooth="yes"/>
      <point x="834" y="762"/>
      <point x="893" y="858"/>
      <point x="893" y="969" type="curve" smooth="yes"/>
      <point x="893" y="1143"/>
      <point x="752" y="1276"/>
      <point x="559" y="1276" type="curve" smooth="yes"/>
      <point x="342" y="1276"/>
      <point x="195" y="1137"/>
      <point x="195" y="930" type="curve" smooth="yes"/>
      <point x="195" y="836"/>
      <point x="238" y="750"/>
      <point x="307" y="651" type="curve"/>
      <point x="303" y="649" type="line"/>
    </contour>
    <contour>
      <point x="520" y="186" type="curve" smooth="yes"/>
      <point x="440" y="186"/>
      <point x="379" y="254"/>
      <point x="379" y="340" type="curve" smooth="yes"/>
      <point x="379" y="391"/>
      <point x="397" y="438"/>
      <point x="430" y="479" type="curve"/>
      <point x="438" y="485" type="line"/>
      <point x="668" y="221" type="line"/>
      <point x="621" y="199"/>
      <point x="571" y="186"/>
    </contour>
    <contour>
      <point x="453" y="934" type="curve" smooth="yes"/>
      <point x="453" y="1001"/>
      <point x="492" y="1047"/>
      <point x="557" y="1047" type="curve" smooth="yes"/>
      <point x="612" y="1047"/>
      <point x="655" y="1001"/>
      <point x="655" y="946" type="curve" smooth="yes"/>
      <point x="655" y="889"/>
      <point x="631" y="856"/>
      <point x="578" y="821" type="curve" smooth="yes"/>
      <point x="518" y="784" type="line"/>
      <point x="473" y="842"/>
      <point x="453" y="893"/>
    </contour>
  </outline>
</glyph>
<glyph name="asterisk" format="2">
  <advance width="956"/>
  <unicode hex="002A"/>
  <outline>
    <contour>
      <point x="852" y="1346" type="curve" smooth="yes"/>
      <point x="829" y="1419" type="line"/>
      <point x="817" y="1448"/>
      <point x="786" y="1458"/>
      <point x="762" y="1452" type="curve" smooth="yes"/>
      <point x="565" y="1386" type="line"/>
      <point x="565" y="1593" type="line" smooth="yes"/>
      <point x="565" y="1622"/>
      <point x="543" y="1645"/>
      <point x="514" y="1645" type="curve" smooth="yes"/>
      <point x="440" y="1645" type="line" smooth="yes"/>
      <point x="412" y="1645"/>
      <point x="389" y="1622"/>
      <point x="389" y="1593" type="curve" smooth="yes"/>
      <point x="389" y="1384" type="line"/>
      <point x="195" y="1450" type="line" smooth="yes"/>
      <point x="168" y="1458"/>
      <point x="137" y="1444"/>
      <point x="127" y="1415" type="curve" smooth="yes"/>
      <point x="104" y="1346" type="line" smooth="yes"/>
      <point x="96" y="1319"/>
      <point x="111" y="1288"/>
      <point x="139" y="1278" type="curve" smooth="yes"/>
      <point x="336" y="1214" type="line"/>
      <point x="215" y="1049" type="line" smooth="yes"/>
      <point x="197" y="1020"/>
      <point x="205" y="989"/>
      <point x="227" y="977" type="curve"/>
      <point x="287" y="934" type="line" smooth="yes"/>
      <point x="311" y="915"/>
      <point x="344" y="924"/>
      <point x="356" y="946" type="curve"/>
      <point x="479" y="1112" type="line"/>
      <point x="602" y="946" type="line" smooth="yes"/>
      <point x="616" y="924"/>
      <point x="649" y="918"/>
      <point x="674" y="934" type="curve" smooth="yes"/>
      <point x="733" y="977" type="line" smooth="yes"/>
      <point x="756" y="991"/>
      <point x="762" y="1026"/>
      <point x="743" y="1049" type="curve" smooth="yes"/>
      <point x="623" y="1217" type="line"/>
      <point x="819" y="1282" type="line" smooth="yes"/>
      <point x="842" y="1290"/>
      <point x="858" y="1317"/>
    </contour>
  </outline>
</glyph>
<glyph name="period" format="2">
  <advance width="584"/>
  <unicode hex="002E"/>
  <outline>
    <contour>
      <point x="291" y="0" type="curve" smooth="yes"/>
      <point x="387" y="0"/>
      <point x="467" y="76"/>
      <point x="467" y="172" type="curve" smooth="yes"/>
      <point x="467" y="268"/>
      <point x="387" y="348"/>
      <point x="291" y="348" type="curve" smooth="yes"/>
      <point x="195" y="348"/>
      <point x="119" y="268"/>
      <point x="119" y="172" type="curve" smooth="yes"/>
      <point x="119" y="76"/>
      <point x="195" y="0"/>
    </contour>
  </outline>
</glyph>
<glyph name="zero" format="2">
  <advance width="1098"/>
  <unicode hex="0030"/>
  <note>
uni0030
</note>
  <outline>
    <contour>
      <point x="1040" y="806" type="line" smooth="yes"/>
      <point x="1040" y="1092"/>
      <point x="783" y="1404"/>
      <point x="315" y="1404"/>
      <point x="57" y="1095"/>
      <point x="57" y="809" type="qcurve" smooth="yes"/>
      <point x="57" y="550" type="line" smooth="yes"/>
      <point x="57" y="266"/>
      <point x="315" y="-45"/>
      <point x="551" y="-45" type="qcurve" smooth="yes"/>
      <point x="786" y="-45"/>
      <point x="1040" y="266"/>
      <point x="1040" y="550" type="qcurve" smooth="yes"/>
    </contour>
    <contour>
      <point x="715" y="503" type="line" smooth="yes"/>
      <point x="713" y="349"/>
      <point x="635" y="207"/>
      <point x="551" y="207" type="qcurve" smooth="yes"/>
      <point x="465" y="207"/>
      <point x="384" y="354"/>
      <point x="384" y="512" type="qcurve" smooth="yes"/>
      <point x="384" y="872" type="line" smooth="yes"/>
      <point x="388" y="1014"/>
      <point x="465" y="1152"/>
      <point x="549" y="1152" type="qcurve" smooth="yes"/>
      <point x="635" y="1152"/>
      <point x="715" y="1002"/>
      <point x="715" y="849" type="qcurve" smooth="yes"/>
    </contour>
  </outline>
</glyph>
<glyph name="two" format="2">
  <advance width="1126"/>
  <unicode hex="0032"/>
  <note>
uni0032
</note>
  <outline>
    <contour>
      <point x="1070" y="252" type="line"/>
      <point x="514" y="252" type="line"/>
      <point x="696" y="462" type="line"/>
      <point x="842" y="608"/>
      <point x="973" y="782"/>
      <point x="1034" y="939"/>
      <point x="1034" y="1023" type="qcurve" smooth="yes"/>
      <point x="1034" y="1219"/>
      <point x="789" y="1430"/>
      <point x="559" y="1430" type="qcurve" smooth="yes"/>
      <point x="417" y="1430"/>
      <point x="187" y="1307"/>
      <point x="56" y="1086"/>
      <point x="56" y="957" type="qcurve"/>
      <point x="383" y="957" type="line"/>
      <point x="383" y="1052"/>
      <point x="477" y="1178"/>
      <point x="552" y="1178" type="qcurve" smooth="yes"/>
      <point x="627" y="1178"/>
      <point x="707" y="1084"/>
      <point x="707" y="993" type="qcurve" smooth="yes"/>
      <point x="707" y="881"/>
      <point x="539" y="690" type="qcurve"/>
      <point x="86" y="215" type="line"/>
      <point x="86" y="0" type="line"/>
      <point x="1070" y="0" type="line"/>
    </contour>
  </outline>
</glyph>
<glyph name="three" format="2">
  <advance width="1137"/>
  <unicode hex="0033"/>
  <note>
uni0033
</note>
  <outline>
    <contour>
      <point x="396" y="572" type="line"/>
      <point x="554" y="572" type="line" smooth="yes"/>
      <point x="648" y="572"/>
      <point x="754" y="484"/>
      <point x="754" y="376" type="qcurve" smooth="yes"/>
      <point x="754" y="301"/>
      <point x="650" y="207"/>
      <point x="565" y="207" type="qcurve" smooth="yes"/>
      <point x="489" y="207"/>
      <point x="384" y="301"/>
      <point x="384" y="367" type="qcurve"/>
      <point x="55" y="367" type="line"/>
      <point x="55" y="248"/>
      <point x="177" y="61"/>
      <point x="416" y="-45"/>
      <point x="554" y="-45" type="qcurve" smooth="yes"/>
      <point x="790" y="-45"/>
      <point x="1081" y="183"/>
      <point x="1081" y="370" type="qcurve" smooth="yes"/>
      <point x="1081" y="494"/>
      <point x="953" y="658"/>
      <point x="840" y="699" type="qcurve"/>
      <point x="947" y="750"/>
      <point x="1059" y="910"/>
      <point x="1059" y="1002" type="qcurve" smooth="yes"/>
      <point x="1059" y="1189"/>
      <point x="790" y="1406"/>
      <point x="554" y="1406" type="qcurve" smooth="yes"/>
      <point x="423" y="1406"/>
      <point x="203" y="1307"/>
      <point x="78" y="1133"/>
      <point x="78" y="1021" type="qcurve"/>
      <point x="405" y="1021" type="line"/>
      <point x="405" y="1077"/>
      <point x="500" y="1154"/>
      <point x="565" y="1154" type="qcurve" smooth="yes"/>
      <point x="644" y="1154"/>
      <point x="732" y="1066"/>
      <point x="732" y="996" type="qcurve" smooth="yes"/>
      <point x="732" y="815"/>
      <point x="549" y="815" type="qcurve" smooth="yes"/>
      <point x="396" y="815" type="line"/>
    </contour>
  </outline>
</glyph>
<glyph name="four" format="2">
  <advance width="1145"/>
  <unicode hex="0034"/>
  <note>
uni0034
</note>
  <outline>
    <contour>
      <point x="947" y="1410" type="line"/>
      <point x="620" y="1410" type="line"/>
      <point x="620" y="1408" type="line"/>
      <point x="55" y="498" type="line"/>
      <point x="76" y="299" type="line"/>
      <point x="620" y="299" type="line"/>
      <point x="620" y="0" type="line"/>
      <point x="947" y="0" type="line"/>
      <point x="947" y="299" type="line"/>
      <point x="1089" y="299" type="line"/>
      <point x="1089" y="552" type="line"/>
      <point x="947" y="552" type="line"/>
    </contour>
    <contour>
      <point x="601" y="953" type="line"/>
      <point x="620" y="985" type="line"/>
      <point x="620" y="552" type="line"/>
      <point x="366" y="552" type="line"/>
    </contour>
  </outline>
</glyph>
<glyph name="five" format="2">
  <advance width="1100"/>
  <unicode hex="0035"/>
  <note>
uni0035
</note>
  <outline>
    <contour>
      <point x="343" y="604" type="line"/>
      <point x="400" y="675"/>
      <point x="515" y="675" type="qcurve" smooth="yes"/>
      <point x="715" y="675"/>
      <point x="715" y="451" type="qcurve" smooth="yes"/>
      <point x="715" y="207"/>
      <point x="551" y="207" type="qcurve" smooth="yes"/>
      <point x="479" y="207"/>
      <point x="388" y="297"/>
      <point x="384" y="376" type="qcurve"/>
      <point x="57" y="376" type="line"/>
      <point x="57" y="254"/>
      <point x="188" y="65"/>
      <point x="420" y="-45"/>
      <point x="553" y="-45" type="qcurve" smooth="yes"/>
      <point x="702" y="-45"/>
      <point x="923" y="73"/>
      <point x="1042" y="293"/>
      <point x="1042" y="428" type="qcurve" smooth="yes"/>
      <point x="1042" y="653"/>
      <point x="817" y="903"/>
      <point x="607" y="903" type="qcurve" smooth="yes"/>
      <point x="553" y="903"/>
      <point x="439" y="872"/>
      <point x="405" y="851" type="qcurve"/>
      <point x="436" y="1131" type="line"/>
      <point x="994" y="1131" type="line"/>
      <point x="994" y="1386" type="line"/>
      <point x="171" y="1386" type="line"/>
      <point x="85" y="664" type="line"/>
    </contour>
  </outline>
</glyph>
<glyph name="six" format="2">
  <advance width="1126"/>
  <unicode hex="0036"/>
  <note>
uni0036
</note>
  <outline>
    <contour>
      <point x="802" y="1406" type="line" smooth="yes"/>
      <point x="591" y="1406"/>
      <point x="243" y="1208"/>
      <point x="56" y="860"/>
      <point x="56" y="642" type="qcurve" smooth="yes"/>
      <point x="56" y="512" type="line" smooth="yes"/>
      <point x="58" y="344"/>
      <point x="189" y="92"/>
      <point x="426" y="-45"/>
      <point x="576" y="-45" type="qcurve" smooth="yes"/>
      <point x="714" y="-45"/>
      <point x="941" y="81"/>
      <point x="1070" y="307"/>
      <point x="1070" y="441" type="qcurve" smooth="yes"/>
      <point x="1070" y="658"/>
      <point x="851" y="926"/>
      <point x="669" y="926" type="qcurve" smooth="yes"/>
      <point x="500" y="926"/>
      <point x="390" y="817" type="qcurve"/>
      <point x="417" y="974"/>
      <point x="653" y="1148"/>
      <point x="836" y="1148" type="qcurve" smooth="yes"/>
      <point x="851" y="1148" type="line"/>
      <point x="851" y="1406" type="line"/>
    </contour>
    <contour>
      <point x="640" y="675"/>
      <point x="741" y="546"/>
      <point x="741" y="441" type="qcurve" smooth="yes"/>
      <point x="741" y="340"/>
      <point x="642" y="207"/>
      <point x="567" y="207" type="qcurve" smooth="yes"/>
      <point x="383" y="207"/>
      <point x="383" y="473" type="qcurve" smooth="yes"/>
      <point x="383" y="572" type="line"/>
      <point x="404" y="615"/>
      <point x="492" y="675"/>
      <point x="556" y="675" type="qcurve" smooth="yes"/>
    </contour>
  </outline>
</glyph>
<glyph name="seven" format="2">
  <advance width="1128"/>
  <unicode hex="0037"/>
  <note>
uni0037
</note>
  <outline>
    <contour>
      <point x="1072" y="1410" type="line"/>
      <point x="56" y="1410" type="line"/>
      <point x="56" y="1158" type="line"/>
      <point x="728" y="1158" type="line"/>
      <point x="200" y="0" type="line"/>
      <point x="545" y="0" type="line"/>
      <point x="1072" y="1236" type="line"/>
    </contour>
  </outline>
</glyph>
<glyph name="eight" format="2">
  <advance width="1100"/>
  <unicode hex="0038"/>
  <note>
uni0038
</note>
  <outline>
    <contour>
      <point x="1013" y="1191"/>
      <point x="762" y="1406"/>
      <point x="549" y="1406" type="qcurve" smooth="yes"/>
      <point x="337" y="1406"/>
      <point x="87" y="1191"/>
      <point x="87" y="1007" type="qcurve" smooth="yes"/>
      <point x="87" y="905"/>
      <point x="190" y="748"/>
      <point x="281" y="701" type="qcurve"/>
      <point x="175" y="651"/>
      <point x="57" y="475"/>
      <point x="57" y="363" type="qcurve" smooth="yes"/>
      <point x="57" y="176"/>
      <point x="323" y="-45"/>
      <point x="553" y="-45" type="qcurve" smooth="yes"/>
      <point x="781" y="-45"/>
      <point x="1042" y="174"/>
      <point x="1042" y="363" type="qcurve" smooth="yes"/>
      <point x="1042" y="480"/>
      <point x="923" y="651"/>
      <point x="824" y="701" type="qcurve"/>
      <point x="912" y="748"/>
      <point x="1013" y="905"/>
      <point x="1013" y="1007" type="qcurve" smooth="yes"/>
    </contour>
    <contour>
      <point x="715" y="304"/>
      <point x="625" y="207"/>
      <point x="553" y="207" type="qcurve" smooth="yes"/>
      <point x="479" y="207"/>
      <point x="386" y="304"/>
      <point x="386" y="389" type="qcurve" smooth="yes"/>
      <point x="386" y="475"/>
      <point x="476" y="570"/>
      <point x="625" y="570"/>
      <point x="715" y="475"/>
      <point x="715" y="389" type="qcurve" smooth="yes"/>
    </contour>
    <contour>
      <point x="618" y="1154"/>
      <point x="686" y="1066"/>
      <point x="686" y="914"/>
      <point x="618" y="823"/>
      <point x="553" y="823" type="qcurve" smooth="yes"/>
      <point x="486" y="823"/>
      <point x="416" y="914"/>
      <point x="416" y="991" type="qcurve" smooth="yes"/>
      <point x="416" y="1068"/>
      <point x="483" y="1154"/>
      <point x="549" y="1154" type="qcurve" smooth="yes"/>
    </contour>
  </outline>
</glyph>
<glyph name="nine" format="2">
  <advance width="1100"/>
  <unicode hex="0039"/>
  <note>
uni0039
</note>
  <outline>
    <contour>
      <point x="673" y="234"/>
      <point x="334" y="219" type="qcurve" smooth="yes"/>
      <point x="274" y="217" type="line"/>
      <point x="274" y="-45" type="line"/>
      <point x="294" y="-45" type="line" smooth="yes"/>
      <point x="519" y="-45"/>
      <point x="859" y="140"/>
      <point x="1042" y="482"/>
      <point x="1042" y="716" type="qcurve" smooth="yes"/>
      <point x="1042" y="840" type="line" smooth="yes"/>
      <point x="1040" y="1007"/>
      <point x="914" y="1264"/>
      <point x="689" y="1406"/>
      <point x="549" y="1406" type="qcurve" smooth="yes"/>
      <point x="411" y="1406"/>
      <point x="184" y="1271"/>
      <point x="57" y="1036"/>
      <point x="57" y="901" type="qcurve" smooth="yes"/>
      <point x="57" y="685"/>
      <point x="283" y="426"/>
      <point x="474" y="426" type="qcurve" smooth="yes"/>
      <point x="605" y="426"/>
      <point x="711" y="520" type="qcurve"/>
    </contour>
    <contour>
      <point x="479" y="660"/>
      <point x="384" y="791"/>
      <point x="384" y="901" type="qcurve" smooth="yes"/>
      <point x="384" y="1007"/>
      <point x="479" y="1154"/>
      <point x="547" y="1154" type="qcurve" smooth="yes"/>
      <point x="625" y="1154"/>
      <point x="715" y="1023"/>
      <point x="715" y="888" type="qcurve" smooth="yes"/>
      <point x="715" y="752" type="line"/>
      <point x="668" y="660"/>
      <point x="562" y="660" type="qcurve" smooth="yes"/>
    </contour>
  </outline>
</glyph>
<glyph name="less" format="2">
  <advance width="983"/>
  <unicode hex="003C"/>
  <note>
uni003C
</note>
  <outline>
    <contour>
      <point x="881" y="860" type="line"/>
      <point x="881" y="1130" type="line"/>
      <point x="102" y="813" type="line"/>
      <point x="102" y="580" type="line"/>
      <point x="881" y="262" type="line"/>
      <point x="881" y="532" type="line"/>
      <point x="399" y="694" type="line"/>
    </contour>
  </outline>
</glyph>
<glyph name="equal" format="2">
  <advance width="1020"/>
  <unicode hex="003D"/>
  <note>
uni003D
</note>
  <outline>
    <contour>
      <point x="918" y="1020" type="line"/>
      <point x="102" y="1020" type="line"/>
      <point x="102" y="791" type="line"/>
      <point x="918" y="791" type="line"/>
    </contour>
    <contour>
      <point x="918" y="633" type="line"/>
      <point x="102" y="633" type="line"/>
      <point x="102" y="403" type="line"/>
      <point x="918" y="403" type="line"/>
    </contour>
  </outline>
</glyph>
<glyph name="greater" format="2">
  <advance width="979"/>
  <unicode hex="003E"/>
  <note>
uni003E
</note>
  <outline>
    <contour>
      <point x="102" y="535" type="line"/>
      <point x="102" y="264" type="line"/>
      <point x="877" y="582" type="line"/>
      <point x="877" y="815" type="line"/>
      <point x="102" y="1133" type="line"/>
      <point x="102" y="862" type="line"/>
      <point x="582" y="700" type="line"/>
    </contour>
  </outline>
</glyph>
<glyph name="question" format="2">
  <advance width="1155"/>
  <unicode hex="003F"/>
  <outline>
    <contour>
      <point x="383" y="525" type="curve" smooth="yes"/>
      <point x="381" y="510"/>
      <point x="393" y="503"/>
      <point x="406" y="501" type="curve" smooth="yes"/>
      <point x="503" y="478"/>
      <point x="602" y="478"/>
      <point x="699" y="501" type="curve" smooth="yes"/>
      <point x="712" y="503"/>
      <point x="722" y="508"/>
      <point x="722" y="523" type="curve" smooth="yes"/>
      <point x="731" y="641"/>
      <point x="802" y="727"/>
      <point x="877" y="778" type="curve" smooth="yes"/>
      <point x="992" y="857"/>
      <point x="1101" y="959"/>
      <point x="1101" y="1165" type="curve" smooth="yes"/>
      <point x="1101" y="1479"/>
      <point x="834" y="1612"/>
      <point x="575" y="1619" type="curve" smooth="yes"/>
      <point x="321" y="1625"/>
      <point x="116" y="1400"/>
      <point x="57" y="1260" type="curve" smooth="yes"/>
      <point x="52" y="1247"/>
      <point x="57" y="1242"/>
      <point x="71" y="1231" type="curve" smooth="yes"/>
      <point x="147" y="1172"/>
      <point x="228" y="1141"/>
      <point x="314" y="1136" type="curve" smooth="yes"/>
      <point x="327" y="1136"/>
      <point x="336" y="1134"/>
      <point x="340" y="1148" type="curve" smooth="yes"/>
      <point x="375" y="1224"/>
      <point x="463" y="1312"/>
      <point x="613" y="1310" type="curve" smooth="yes"/>
      <point x="699" y="1307"/>
      <point x="796" y="1269"/>
      <point x="796" y="1129" type="curve" smooth="yes"/>
      <point x="796" y="1030"/>
      <point x="667" y="959"/>
      <point x="575" y="884" type="curve" smooth="yes"/>
      <point x="505" y="828"/>
      <point x="404" y="675"/>
    </contour>
    <component base="period" xScale="-1" xOffset="836"/>
  </outline>
</glyph>
<glyph name="at" format="2">
  <advance width="1692"/>
  <unicode hex="0040"/>
  <note>
uni0040
</note>
  <outline>
    <contour>
      <point x="1589" y="487" type="curve" smooth="yes"/>
      <point x="1608" y="944"/>
      <point x="1350" y="1245"/>
      <point x="893" y="1245" type="curve" smooth="yes"/>
      <point x="440" y="1245"/>
      <point x="125" y="905"/>
      <point x="102" y="408" type="curve" smooth="yes"/>
      <point x="92" y="63"/>
      <point x="201" y="-180"/>
      <point x="422" y="-303" type="curve" smooth="yes"/>
      <point x="532" y="-365"/>
      <point x="670" y="-395"/>
      <point x="829" y="-395" type="curve" smooth="yes"/>
      <point x="950" y="-395"/>
      <point x="1085" y="-365"/>
      <point x="1157" y="-317" type="curve"/>
      <point x="1124" y="-170" type="line"/>
      <point x="1055" y="-201"/>
      <point x="932" y="-227"/>
      <point x="834" y="-227" type="curve" smooth="yes"/>
      <point x="467" y="-227"/>
      <point x="279" y="-4"/>
      <point x="297" y="408" type="curve" smooth="yes"/>
      <point x="309" y="674"/>
      <point x="416" y="893"/>
      <point x="590" y="1008" type="curve" smooth="yes"/>
      <point x="678" y="1065"/>
      <point x="776" y="1094"/>
      <point x="889" y="1094" type="curve" smooth="yes"/>
      <point x="1241" y="1094"/>
      <point x="1432" y="870"/>
      <point x="1411" y="479" type="curve" smooth="yes"/>
      <point x="1405" y="281"/>
      <point x="1331" y="139"/>
      <point x="1231" y="139" type="curve" smooth="yes"/>
      <point x="1163" y="139"/>
      <point x="1137" y="180"/>
      <point x="1147" y="262" type="curve"/>
      <point x="1192" y="778" type="line"/>
      <point x="1135" y="815" type="line" smooth="yes"/>
      <point x="1073" y="856"/>
      <point x="999" y="874"/>
      <point x="913" y="874" type="curve" smooth="yes"/>
      <point x="690" y="874"/>
      <point x="524" y="682"/>
      <point x="487" y="387" type="curve" smooth="yes"/>
      <point x="473" y="233"/>
      <point x="514" y="104"/>
      <point x="600" y="39" type="curve" smooth="yes"/>
      <point x="641" y="6"/>
      <point x="690" y="-12"/>
      <point x="748" y="-12" type="curve" smooth="yes"/>
      <point x="844" y="-12"/>
      <point x="922" y="27"/>
      <point x="979" y="104" type="curve"/>
      <point x="1020" y="29"/>
      <point x="1096" y="-14"/>
      <point x="1192" y="-14" type="curve" smooth="yes"/>
      <point x="1427" y="-14"/>
      <point x="1577" y="182"/>
    </contour>
    <contour>
      <point x="709" y="387" type="curve" smooth="yes"/>
      <point x="731" y="608"/>
      <point x="799" y="707"/>
      <point x="930" y="707" type="curve" smooth="yes"/>
      <point x="948" y="707"/>
      <point x="967" y="705"/>
      <point x="985" y="700" type="curve"/>
      <point x="950" y="299" type="line"/>
      <point x="920" y="207"/>
      <point x="870" y="156"/>
      <point x="815" y="156" type="curve" smooth="yes"/>
      <point x="733" y="156"/>
      <point x="696" y="236"/>
    </contour>
  </outline>
</glyph>
<glyph name="A" format="2">
  <advance width="1429"/>
  <unicode hex="0041"/>
  <note>
uni0041
</note>
  <outline>
    <contour>
      <point x="1026" y="0" type="line"/>
      <point x="1389" y="0" type="line"/>
      <point x="871" y="1404" type="line"/>
      <point x="553" y="1404" type="line"/>
      <point x="40" y="0" type="line"/>
      <point x="400" y="0" type="line"/>
      <point x="481" y="262" type="line"/>
      <point x="943" y="262" type="line"/>
    </contour>
    <contour>
      <point x="713" y="1010" type="line"/>
      <point x="864" y="523" type="line"/>
      <point x="562" y="523" type="line"/>
    </contour>
  </outline>
</glyph>
<glyph name="B" format="2">
  <advance width="1165"/>
  <unicode hex="0042"/>
  <note>
uni0042
</note>
  <outline>
    <contour>
      <point x="607" y="0" type="line"/>
      <point x="953" y="3"/>
      <point x="1125" y="141"/>
      <point x="1125" y="415" type="curve" smooth="yes"/>
      <point x="1125" y="568"/>
      <point x="1045" y="678"/>
      <point x="898" y="714" type="curve"/>
      <point x="1030" y="766"/>
      <point x="1096" y="869"/>
      <point x="1096" y="1016" type="curve" smooth="yes"/>
      <point x="1096" y="1265"/>
      <point x="902" y="1404"/>
      <point x="545" y="1404" type="curve" smooth="yes"/>
      <point x="40" y="1404" type="line"/>
      <point x="40" y="0" type="line"/>
    </contour>
    <contour>
      <point x="614" y="595" type="line"/>
      <point x="732" y="595"/>
      <point x="790" y="536"/>
      <point x="790" y="419" type="curve" smooth="yes"/>
      <point x="790" y="320"/>
      <point x="722" y="260"/>
      <point x="598" y="260" type="curve" smooth="yes"/>
      <point x="377" y="260" type="line"/>
      <point x="377" y="595" type="line"/>
    </contour>
    <contour>
      <point x="377" y="1140" type="line"/>
      <point x="545" y="1140" type="line" smooth="yes"/>
      <point x="694" y="1140"/>
      <point x="758" y="1092"/>
      <point x="758" y="976" type="curve" smooth="yes"/>
      <point x="758" y="870"/>
      <point x="701" y="817"/>
      <point x="553" y="817" type="curve" smooth="yes"/>
      <point x="377" y="817" type="line"/>
    </contour>
  </outline>
</glyph>
<glyph name="D" format="2">
  <advance width="1181"/>
  <unicode hex="0044"/>
  <note>
uni0044
</note>
  <outline>
    <contour>
      <point x="502" y="0" type="line"/>
      <point x="742" y="0"/>
      <point x="952" y="123"/>
      <point x="1061" y="326" type="curve" smooth="yes"/>
      <point x="1115" y="427"/>
      <point x="1141" y="542"/>
      <point x="1141" y="671" type="curve" smooth="yes"/>
      <point x="1141" y="737" type="line" smooth="yes"/>
      <point x="1137" y="1115"/>
      <point x="881" y="1404"/>
      <point x="491" y="1404" type="curve" smooth="yes"/>
      <point x="40" y="1404" type="line"/>
      <point x="40" y="0" type="line"/>
    </contour>
    <contour>
      <point x="491" y="1140" type="line"/>
      <point x="691" y="1140"/>
      <point x="797" y="1002"/>
      <point x="797" y="733" type="curve" smooth="yes"/>
      <point x="797" y="671" type="line" smooth="yes"/>
      <point x="797" y="398"/>
      <point x="690" y="260"/>
      <point x="495" y="260" type="curve" smooth="yes"/>
      <point x="378" y="260" type="line"/>
      <point x="378" y="1140" type="line"/>
    </contour>
  </outline>
</glyph>
<glyph name="E" format="2">
  <advance width="1047"/>
  <unicode hex="0045"/>
  <note>
uni0045
</note>
  <outline>
    <contour>
      <point x="909" y="845" type="line"/>
      <point x="378" y="845" type="line"/>
      <point x="378" y="1140" type="line"/>
      <point x="1007" y="1140" type="line"/>
      <point x="1007" y="1404" type="line"/>
      <point x="40" y="1404" type="line"/>
      <point x="40" y="0" type="line"/>
      <point x="1004" y="0" type="line"/>
      <point x="1004" y="260" type="line"/>
      <point x="378" y="260" type="line"/>
      <point x="378" y="595" type="line"/>
      <point x="909" y="595" type="line"/>
    </contour>
  </outline>
</glyph>
<glyph name="F" format="2">
  <advance width="1018"/>
  <unicode hex="0046"/>
  <note>
uni0046
</note>
  <outline>
    <contour>
      <point x="924" y="817" type="line"/>
      <point x="378" y="817" type="line"/>
      <point x="378" y="1140" type="line"/>
      <point x="978" y="1140" type="line"/>
      <point x="978" y="1404" type="line"/>
      <point x="40" y="1404" type="line"/>
      <point x="40" y="0" type="line"/>
      <point x="378" y="0" type="line"/>
      <point x="378" y="559" type="line"/>
      <point x="924" y="559" type="line"/>
    </contour>
  </outline>
</glyph>
<glyph name="G" format="2">
  <advance width="1253"/>
  <unicode hex="0047"/>
  <note>
uni0047
</note>
  <outline>
    <contour>
      <point x="1213" y="723" type="line"/>
      <point x="641" y="723" type="line"/>
      <point x="641" y="491" type="line"/>
      <point x="876" y="491" type="line"/>
      <point x="876" y="273" type="line"/>
      <point x="832" y="233"/>
      <point x="767" y="215"/>
      <point x="680" y="215" type="curve" smooth="yes"/>
      <point x="475" y="215"/>
      <point x="384" y="355"/>
      <point x="384" y="638" type="curve" smooth="yes"/>
      <point x="384" y="721" type="line" smooth="yes"/>
      <point x="384" y="986"/>
      <point x="479" y="1137"/>
      <point x="650" y="1137" type="curve" smooth="yes"/>
      <point x="789" y="1137"/>
      <point x="862" y="1076"/>
      <point x="887" y="917" type="curve"/>
      <point x="1213" y="917" type="line"/>
      <point x="1184" y="1235"/>
      <point x="985" y="1397"/>
      <point x="637" y="1397" type="curve" smooth="yes"/>
      <point x="272" y="1397"/>
      <point x="40" y="1131"/>
      <point x="40" y="712" type="curve" smooth="yes"/>
      <point x="40" y="593" type="line" smooth="yes"/>
      <point x="55" y="193"/>
      <point x="290" y="-45"/>
      <point x="657" y="-45" type="curve" smooth="yes"/>
      <point x="898" y="-45"/>
      <point x="1111" y="32"/>
      <point x="1213" y="149" type="curve"/>
    </contour>
  </outline>
</glyph>
<glyph name="I" format="2">
  <advance width="417"/>
  <unicode hex="0049"/>
  <note>
uni0049
</note>
  <outline>
    <contour>
      <point x="377" y="1404" type="line"/>
      <point x="40" y="1404" type="line"/>
      <point x="40" y="0" type="line"/>
      <point x="377" y="0" type="line"/>
    </contour>
  </outline>
</glyph>
<glyph name="J" format="2">
  <advance width="1047"/>
  <unicode hex="004A"/>
  <note>
uni004A
</note>
  <outline>
    <contour>
      <point x="668" y="415" type="line"/>
      <point x="668" y="288"/>
      <point x="615" y="215"/>
      <point x="522" y="215" type="curve" smooth="yes"/>
      <point x="420" y="215"/>
      <point x="380" y="266"/>
      <point x="380" y="398" type="curve"/>
      <point x="40" y="398" type="line"/>
      <point x="40" y="113"/>
      <point x="218" y="-45"/>
      <point x="522" y="-45" type="curve" smooth="yes"/>
      <point x="805" y="-45"/>
      <point x="1007" y="141"/>
      <point x="1007" y="415" type="curve" smooth="yes"/>
      <point x="1007" y="1376" type="line"/>
      <point x="668" y="1376" type="line"/>
    </contour>
  </outline>
</glyph>
<glyph name="K" format="2">
  <advance width="1255"/>
  <unicode hex="004B"/>
  <note>
uni004B
</note>
  <outline>
    <contour>
      <point x="814" y="0" type="line"/>
      <point x="1215" y="0" type="line"/>
      <point x="740" y="782" type="line"/>
      <point x="1215" y="1404" type="line"/>
      <point x="796" y="1404" type="line"/>
      <point x="495" y="961" type="line"/>
      <point x="377" y="784" type="line"/>
      <point x="377" y="1404" type="line"/>
      <point x="40" y="1404" type="line"/>
      <point x="40" y="0" type="line"/>
      <point x="377" y="0" type="line"/>
      <point x="377" y="370" type="line"/>
      <point x="517" y="520" type="line"/>
    </contour>
  </outline>
</glyph>
<glyph name="L" format="2">
  <advance width="1006"/>
  <unicode hex="004C"/>
  <note>
uni004C
</note>
  <outline>
    <contour>
      <point x="378" y="1404" type="line"/>
      <point x="40" y="1404" type="line"/>
      <point x="40" y="0" type="line"/>
      <point x="966" y="0" type="line"/>
      <point x="966" y="260" type="line"/>
      <point x="378" y="260" type="line"/>
    </contour>
  </outline>
</glyph>
<glyph name="M" format="2">
  <advance width="1594"/>
  <unicode hex="004D"/>
  <note>
uni004D
</note>
  <outline>
    <contour>
      <point x="40" y="1404" type="line"/>
      <point x="40" y="0" type="line"/>
      <point x="378" y="0" type="line"/>
      <point x="378" y="329" type="line"/>
      <point x="344" y="998" type="line"/>
      <point x="685" y="0" type="line"/>
      <point x="909" y="0" type="line"/>
      <point x="1248" y="998" type="line"/>
      <point x="1214" y="329" type="line"/>
      <point x="1214" y="0" type="line"/>
      <point x="1554" y="0" type="line"/>
      <point x="1554" y="1404" type="line"/>
      <point x="1108" y="1404" type="line"/>
      <point x="797" y="426" type="line"/>
      <point x="484" y="1404" type="line"/>
    </contour>
  </outline>
</glyph>
<glyph name="N" format="2">
  <advance width="1249"/>
  <unicode hex="004E"/>
  <note>
uni004E
</note>
  <outline>
    <contour>
      <point x="1209" y="1404" type="line"/>
      <point x="874" y="1404" type="line"/>
      <point x="874" y="529" type="line"/>
      <point x="378" y="1404" type="line"/>
      <point x="40" y="1404" type="line"/>
      <point x="40" y="0" type="line"/>
      <point x="378" y="0" type="line"/>
      <point x="378" y="875" type="line"/>
      <point x="874" y="0" type="line"/>
      <point x="1209" y="0" type="line"/>
    </contour>
  </outline>
</glyph>
<glyph name="O" format="2">
  <advance width="1306"/>
  <unicode hex="004F"/>
  <note>
uni004F
</note>
  <outline>
    <contour>
      <point x="1266" y="712" type="line"/>
      <point x="1266" y="1121"/>
      <point x="1015" y="1397"/>
      <point x="653" y="1397" type="curve" smooth="yes"/>
      <point x="290" y="1397"/>
      <point x="40" y="1131"/>
      <point x="40" y="703" type="curve" smooth="yes"/>
      <point x="40" y="624" type="line" smooth="yes"/>
      <point x="49" y="218"/>
      <point x="289" y="-45"/>
      <point x="655" y="-45" type="curve" smooth="yes"/>
      <point x="1024" y="-45"/>
      <point x="1266" y="226"/>
      <point x="1266" y="647" type="curve" smooth="yes"/>
    </contour>
    <contour>
      <point x="924" y="640" type="line"/>
      <point x="924" y="366"/>
      <point x="827" y="219"/>
      <point x="655" y="219" type="curve" smooth="yes"/>
      <point x="475" y="219"/>
      <point x="385" y="371"/>
      <point x="385" y="647" type="curve" smooth="yes"/>
      <point x="385" y="750" type="line" smooth="yes"/>
      <point x="396" y="1004"/>
      <point x="485" y="1131"/>
      <point x="653" y="1131" type="curve" smooth="yes"/>
      <point x="827" y="1131"/>
      <point x="924" y="985"/>
      <point x="924" y="705" type="curve" smooth="yes"/>
    </contour>
  </outline>
</glyph>
<glyph name="P" format="2">
  <advance width="1183"/>
  <unicode hex="0050"/>
  <note>
uni0050
</note>
  <outline>
    <contour>
      <point x="592" y="477" type="line"/>
      <point x="937" y="477"/>
      <point x="1143" y="652"/>
      <point x="1143" y="926" type="curve" smooth="yes"/>
      <point x="1143" y="1201"/>
      <point x="933" y="1404"/>
      <point x="599" y="1404" type="curve" smooth="yes"/>
      <point x="40" y="1404" type="line"/>
      <point x="40" y="0" type="line"/>
      <point x="378" y="0" type="line"/>
      <point x="378" y="477" type="line"/>
    </contour>
    <contour>
      <point x="378" y="1140" type="line"/>
      <point x="603" y="1140" type="line" smooth="yes"/>
      <point x="723" y="1140"/>
      <point x="799" y="1056"/>
      <point x="799" y="924" type="curve" smooth="yes"/>
      <point x="799" y="803"/>
      <point x="731" y="737"/>
      <point x="599" y="737" type="curve" smooth="yes"/>
      <point x="378" y="737" type="line"/>
    </contour>
  </outline>
</glyph>
<glyph name="Q" format="2">
  <advance width="1306"/>
  <unicode hex="0051"/>
  <note>
uni0051
</note>
  <outline>
    <contour>
      <point x="1266" y="738" type="line"/>
      <point x="1266" y="1164"/>
      <point x="1003" y="1426"/>
      <point x="653" y="1426" type="curve" smooth="yes"/>
      <point x="301" y="1426"/>
      <point x="40" y="1167"/>
      <point x="40" y="732" type="curve" smooth="yes"/>
      <point x="40" y="658" type="line" smooth="yes"/>
      <point x="45" y="251"/>
      <point x="291" y="-16"/>
      <point x="655" y="-16" type="curve" smooth="yes"/>
      <point x="683" y="-16"/>
      <point x="710" y="-14"/>
      <point x="739" y="-10" type="curve"/>
      <point x="1040" y="-253" type="line"/>
      <point x="1250" y="-75" type="line"/>
      <point x="1023" y="103" type="line"/>
      <point x="1176" y="220"/>
      <point x="1266" y="417"/>
      <point x="1266" y="675" type="curve" smooth="yes"/>
    </contour>
    <contour>
      <point x="924" y="669" type="line"/>
      <point x="920" y="398"/>
      <point x="827" y="248"/>
      <point x="655" y="248" type="curve" smooth="yes"/>
      <point x="475" y="248"/>
      <point x="385" y="399"/>
      <point x="385" y="675" type="curve" smooth="yes"/>
      <point x="385" y="738" type="line" smooth="yes"/>
      <point x="385" y="1015"/>
      <point x="473" y="1159"/>
      <point x="653" y="1159" type="curve" smooth="yes"/>
      <point x="825" y="1159"/>
      <point x="924" y="1013"/>
      <point x="924" y="734" type="curve" smooth="yes"/>
    </contour>
  </outline>
</glyph>
<glyph name="R" format="2">
  <advance width="1210"/>
  <unicode hex="0052"/>
  <note>
uni0052
</note>
  <outline>
    <contour>
      <point x="807" y="0" type="line"/>
      <point x="1170" y="0" type="line"/>
      <point x="1170" y="13" type="line"/>
      <point x="878" y="579" type="line"/>
      <point x="1043" y="660"/>
      <point x="1121" y="782"/>
      <point x="1121" y="978" type="curve" smooth="yes"/>
      <point x="1121" y="1249"/>
      <point x="923" y="1404"/>
      <point x="590" y="1404" type="curve" smooth="yes"/>
      <point x="40" y="1404" type="line"/>
      <point x="40" y="0" type="line"/>
      <point x="377" y="0" type="line"/>
      <point x="377" y="494" type="line"/>
      <point x="560" y="494" type="line"/>
    </contour>
    <contour>
      <point x="377" y="1140" type="line"/>
      <point x="590" y="1140" type="line" smooth="yes"/>
      <point x="718" y="1140"/>
      <point x="785" y="1066"/>
      <point x="785" y="947" type="curve" smooth="yes"/>
      <point x="785" y="828"/>
      <point x="722" y="757"/>
      <point x="590" y="757" type="curve" smooth="yes"/>
      <point x="377" y="757" type="line"/>
    </contour>
  </outline>
</glyph>
<glyph name="S" format="2">
  <advance width="1185"/>
  <unicode hex="0053"/>
  <note>
uni0053
</note>
  <outline>
    <contour>
      <point x="808" y="347" type="curve" smooth="yes"/>
      <point x="808" y="260"/>
      <point x="736" y="209"/>
      <point x="625" y="209" type="curve" smooth="yes"/>
      <point x="451" y="209"/>
      <point x="380" y="277"/>
      <point x="380" y="430" type="curve"/>
      <point x="40" y="430" type="line"/>
      <point x="40" y="244"/>
      <point x="133" y="99"/>
      <point x="318" y="17" type="curve" smooth="yes"/>
      <point x="410" y="-24"/>
      <point x="513" y="-45"/>
      <point x="625" y="-45" type="curve" smooth="yes"/>
      <point x="949" y="-45"/>
      <point x="1145" y="103"/>
      <point x="1145" y="349" type="curve" smooth="yes"/>
      <point x="1145" y="503"/>
      <point x="1070" y="624"/>
      <point x="919" y="712" type="curve" smooth="yes"/>
      <point x="776" y="792"/>
      <point x="571" y="829"/>
      <point x="475" y="902" type="curve" smooth="yes"/>
      <point x="437" y="932"/>
      <point x="418" y="964"/>
      <point x="418" y="998" type="curve" smooth="yes"/>
      <point x="418" y="1082"/>
      <point x="491" y="1140"/>
      <point x="614" y="1140" type="curve" smooth="yes"/>
      <point x="734" y="1140"/>
      <point x="808" y="1076"/>
      <point x="808" y="961" type="curve"/>
      <point x="1145" y="961" type="line"/>
      <point x="1145" y="1212"/>
      <point x="935" y="1397"/>
      <point x="621" y="1397" type="curve" smooth="yes"/>
      <point x="306" y="1397"/>
      <point x="83" y="1241"/>
      <point x="83" y="1002" type="curve" smooth="yes"/>
      <point x="83" y="846"/>
      <point x="173" y="724"/>
      <point x="355" y="636" type="curve" smooth="yes"/>
      <point x="489" y="567"/>
      <point x="673" y="527"/>
      <point x="755" y="463" type="curve" smooth="yes"/>
      <point x="790" y="436"/>
      <point x="808" y="396"/>
    </contour>
  </outline>
</glyph>
<glyph name="T" format="2">
  <advance width="1251"/>
  <unicode hex="0054"/>
  <note>
uni0054
</note>
  <outline>
    <contour>
      <point x="1211" y="1404" type="line"/>
      <point x="40" y="1404" type="line"/>
      <point x="40" y="1140" type="line"/>
      <point x="452" y="1140" type="line"/>
      <point x="452" y="0" type="line"/>
      <point x="792" y="0" type="line"/>
      <point x="792" y="1140" type="line"/>
      <point x="1211" y="1140" type="line"/>
    </contour>
  </outline>
</glyph>
<glyph name="U" format="2">
  <advance width="1183"/>
  <unicode hex="0055"/>
  <note>
uni0055
</note>
  <outline>
    <contour>
      <point x="805" y="1376" type="line"/>
      <point x="805" y="462" type="line" smooth="yes"/>
      <point x="805" y="285"/>
      <point x="733" y="215"/>
      <point x="592" y="215" type="curve" smooth="yes"/>
      <point x="453" y="215"/>
      <point x="383" y="292"/>
      <point x="380" y="447" type="curve" smooth="yes"/>
      <point x="380" y="1376" type="line"/>
      <point x="40" y="1376" type="line"/>
      <point x="40" y="451" type="line" smooth="yes"/>
      <point x="43" y="144"/>
      <point x="252" y="-45"/>
      <point x="592" y="-45" type="curve" smooth="yes"/>
      <point x="935" y="-45"/>
      <point x="1143" y="141"/>
      <point x="1143" y="460" type="curve" smooth="yes"/>
      <point x="1143" y="1376" type="line"/>
    </contour>
  </outline>
</glyph>
<glyph name="W" format="2">
  <advance width="1747"/>
  <unicode hex="0057"/>
  <note>
uni0057
</note>
  <outline>
    <contour>
      <point x="1016" y="1404" type="line"/>
      <point x="730" y="1404" type="line"/>
      <point x="535" y="523" type="line"/>
      <point x="376" y="1404" type="line"/>
      <point x="40" y="1404" type="line"/>
      <point x="339" y="0" type="line"/>
      <point x="689" y="0" type="line"/>
      <point x="872" y="800" type="line"/>
      <point x="1061" y="0" type="line"/>
      <point x="1412" y="0" type="line"/>
      <point x="1707" y="1404" type="line"/>
      <point x="1371" y="1404" type="line"/>
      <point x="1212" y="523" type="line"/>
    </contour>
  </outline>
</glyph>
<glyph name="X" format="2">
  <advance width="1331"/>
  <unicode hex="0058"/>
  <note>
uni0058
</note>
  <outline>
    <contour>
      <point x="436" y="1404" type="line"/>
      <point x="49" y="1404" type="line"/>
      <point x="444" y="707" type="line"/>
      <point x="40" y="0" type="line"/>
      <point x="430" y="0" type="line"/>
      <point x="664" y="475" type="line"/>
      <point x="900" y="0" type="line"/>
      <point x="1291" y="0" type="line"/>
      <point x="887" y="707" type="line"/>
      <point x="1281" y="1404" type="line"/>
      <point x="894" y="1404" type="line"/>
      <point x="664" y="935" type="line"/>
    </contour>
  </outline>
</glyph>
<glyph name="Y" format="2">
  <advance width="1323"/>
  <unicode hex="0059"/>
  <note>
uni0059
</note>
  <outline>
    <contour>
      <point x="403" y="1404" type="line"/>
      <point x="40" y="1404" type="line"/>
      <point x="491" y="505" type="line"/>
      <point x="491" y="0" type="line"/>
      <point x="833" y="0" type="line"/>
      <point x="833" y="505" type="line"/>
      <point x="1283" y="1404" type="line"/>
      <point x="921" y="1404" type="line"/>
      <point x="661" y="793" type="line"/>
    </contour>
  </outline>
</glyph>
<glyph name="Z" format="2">
  <advance width="1175"/>
  <unicode hex="005A"/>
  <note>
uni005A
</note>
  <outline>
    <contour>
      <point x="1130" y="1228" type="line"/>
      <point x="1130" y="1404" type="line"/>
      <point x="40" y="1404" type="line"/>
      <point x="40" y="1140" type="line"/>
      <point x="711" y="1140" type="line"/>
      <point x="45" y="178" type="line"/>
      <point x="45" y="0" type="line"/>
      <point x="1135" y="0" type="line"/>
      <point x="1135" y="260" type="line"/>
      <point x="466" y="260" type="line"/>
    </contour>
  </outline>
</glyph>
<glyph name="bracketleft" format="2">
  <advance width="772"/>
  <unicode hex="005B"/>
  <outline>
    <contour>
      <point x="690" y="1839" type="line"/>
      <point x="82" y="1839" type="line"/>
      <point x="82" y="-227" type="line"/>
      <point x="690" y="-227" type="line"/>
      <point x="690" y="-135" type="line"/>
      <point x="360" y="-49" type="line"/>
      <point x="360" y="1677" type="line"/>
      <point x="690" y="1751" type="line"/>
    </contour>
  </outline>
</glyph>
<glyph name="bracketright" format="2">
  <advance width="772"/>
  <unicode hex="005D"/>
  <outline>
    <contour>
      <point x="82" y="1839" type="line"/>
      <point x="82" y="1751" type="line"/>
      <point x="412" y="1677" type="line"/>
      <point x="412" y="-49" type="line"/>
      <point x="82" y="-135" type="line"/>
      <point x="82" y="-227" type="line"/>
      <point x="690" y="-227" type="line"/>
      <point x="690" y="1839" type="line"/>
    </contour>
  </outline>
</glyph>
<glyph name="asciicircum" format="2">
  <advance width="952"/>
  <unicode hex="005E"/>
  <note>
uni005E
</note>
  <outline>
    <contour>
      <point x="625" y="674" type="line"/>
      <point x="850" y="674" type="line"/>
      <point x="586" y="1315" type="line"/>
      <point x="367" y="1315" type="line"/>
      <point x="102" y="674" type="line"/>
      <point x="326" y="674" type="line"/>
      <point x="475" y="1073" type="line"/>
    </contour>
  </outline>
</glyph>
<glyph name="a" format="2">
  <advance width="1040"/>
  <unicode hex="0061"/>
  <note>
uni0061
</note>
  <outline>
    <contour>
      <point x="1000" y="-25" type="line"/>
      <point x="1000" y="-9" type="line"/>
      <point x="971" y="41"/>
      <point x="957" y="114"/>
      <point x="955" y="212" type="curve" smooth="yes"/>
      <point x="955" y="671" type="line" smooth="yes"/>
      <point x="952" y="900"/>
      <point x="790" y="1034"/>
      <point x="522" y="1034" type="curve" smooth="yes"/>
      <point x="255" y="1034"/>
      <point x="65" y="898"/>
      <point x="65" y="696" type="curve"/>
      <point x="389" y="696" type="line"/>
      <point x="389" y="771"/>
      <point x="428" y="809"/>
      <point x="505" y="809" type="curve" smooth="yes"/>
      <point x="588" y="809"/>
      <point x="630" y="761"/>
      <point x="630" y="667" type="curve" smooth="yes"/>
      <point x="630" y="611" type="line"/>
      <point x="529" y="611" type="line" smooth="yes"/>
      <point x="211" y="611"/>
      <point x="40" y="494"/>
      <point x="40" y="268" type="curve" smooth="yes"/>
      <point x="40" y="88"/>
      <point x="199" y="-45"/>
      <point x="394" y="-45" type="curve" smooth="yes"/>
      <point x="500" y="-45"/>
      <point x="584" y="-8"/>
      <point x="644" y="67" type="curve"/>
      <point x="653" y="28"/>
      <point x="664" y="-3"/>
      <point x="675" y="-25" type="curve"/>
    </contour>
    <contour>
      <point x="473" y="185" type="curve" smooth="yes"/>
      <point x="410" y="185"/>
      <point x="367" y="226"/>
      <point x="367" y="286" type="curve" smooth="yes"/>
      <point x="367" y="387"/>
      <point x="422" y="437"/>
      <point x="533" y="437" type="curve" smooth="yes"/>
      <point x="630" y="437" type="line"/>
      <point x="630" y="271" type="line"/>
      <point x="607" y="229"/>
      <point x="551" y="185"/>
    </contour>
  </outline>
</glyph>
<glyph name="b" format="2">
  <advance width="1044"/>
  <unicode hex="0062"/>
  <note>
uni0062
</note>
  <outline>
    <contour>
      <point x="1004" y="505" type="line"/>
      <point x="1004" y="838"/>
      <point x="860" y="1034"/>
      <point x="599" y="1034" type="curve" smooth="yes"/>
      <point x="502" y="1034"/>
      <point x="424" y="1000"/>
      <point x="365" y="931" type="curve"/>
      <point x="365" y="1453" type="line"/>
      <point x="40" y="1453" type="line"/>
      <point x="40" y="-25" type="line"/>
      <point x="331" y="-25" type="line"/>
      <point x="344" y="81" type="line"/>
      <point x="410" y="-3"/>
      <point x="496" y="-45"/>
      <point x="601" y="-45" type="curve" smooth="yes"/>
      <point x="860" y="-45"/>
      <point x="1004" y="144"/>
      <point x="1004" y="486" type="curve" smooth="yes"/>
    </contour>
    <contour>
      <point x="680" y="505" type="curve" smooth="yes"/>
      <point x="680" y="416"/>
      <point x="675" y="353"/>
      <point x="664" y="316" type="curve" smooth="yes"/>
      <point x="644" y="242"/>
      <point x="596" y="205"/>
      <point x="518" y="205" type="curve" smooth="yes"/>
      <point x="443" y="205"/>
      <point x="391" y="232"/>
      <point x="365" y="286" type="curve"/>
      <point x="365" y="701" type="line"/>
      <point x="393" y="756"/>
      <point x="444" y="784"/>
      <point x="518" y="784" type="curve" smooth="yes"/>
      <point x="625" y="784"/>
      <point x="680" y="706"/>
    </contour>
  </outline>
</glyph>
<glyph name="c" format="2">
  <advance width="1008"/>
  <unicode hex="0063"/>
  <note>
uni0063
</note>
  <outline>
    <contour>
      <point x="519" y="205" type="curve" smooth="yes"/>
      <point x="415" y="205"/>
      <point x="364" y="274"/>
      <point x="364" y="484" type="curve" smooth="yes"/>
      <point x="364" y="545"/>
      <point x="367" y="591"/>
      <point x="371" y="624" type="curve" smooth="yes"/>
      <point x="384" y="730"/>
      <point x="434" y="784"/>
      <point x="517" y="784" type="curve" smooth="yes"/>
      <point x="607" y="784"/>
      <point x="664" y="725"/>
      <point x="664" y="617" type="curve"/>
      <point x="968" y="617" type="line"/>
      <point x="968" y="876"/>
      <point x="797" y="1034"/>
      <point x="526" y="1034" type="curve" smooth="yes"/>
      <point x="222" y="1034"/>
      <point x="40" y="831"/>
      <point x="40" y="505" type="curve" smooth="yes"/>
      <point x="40" y="491" type="line" smooth="yes"/>
      <point x="40" y="157"/>
      <point x="226" y="-45"/>
      <point x="528" y="-45" type="curve" smooth="yes"/>
      <point x="787" y="-45"/>
      <point x="968" y="117"/>
      <point x="968" y="344" type="curve"/>
      <point x="664" y="344" type="line"/>
      <point x="664" y="257"/>
      <point x="613" y="205"/>
    </contour>
  </outline>
</glyph>
<glyph name="d" format="2">
  <advance width="1044"/>
  <unicode hex="0064"/>
  <note>
uni0064
</note>
  <outline>
    <contour>
      <point x="40" y="505" type="curve" smooth="yes"/>
      <point x="40" y="153"/>
      <point x="194" y="-45"/>
      <point x="444" y="-45" type="curve" smooth="yes"/>
      <point x="545" y="-45"/>
      <point x="630" y="-1"/>
      <point x="698" y="86" type="curve"/>
      <point x="713" y="-25" type="line"/>
      <point x="1004" y="-25" type="line"/>
      <point x="1004" y="1453" type="line"/>
      <point x="680" y="1453" type="line"/>
      <point x="680" y="926" type="line"/>
      <point x="617" y="998"/>
      <point x="539" y="1034"/>
      <point x="446" y="1034" type="curve" smooth="yes"/>
      <point x="190" y="1034"/>
      <point x="40" y="832"/>
    </contour>
    <contour>
      <point x="367" y="543" type="line"/>
      <point x="375" y="704"/>
      <point x="429" y="784"/>
      <point x="529" y="784" type="curve" smooth="yes"/>
      <point x="600" y="784"/>
      <point x="650" y="754"/>
      <point x="680" y="694" type="curve"/>
      <point x="680" y="297" type="line"/>
      <point x="650" y="235"/>
      <point x="599" y="205"/>
      <point x="526" y="205" type="curve" smooth="yes"/>
      <point x="419" y="205"/>
      <point x="365" y="297"/>
      <point x="365" y="482" type="curve" smooth="yes"/>
    </contour>
  </outline>
</glyph>
<glyph name="e" format="2">
  <advance width="1055"/>
  <unicode hex="0065"/>
  <note>
uni0065
</note>
  <outline>
    <contour>
      <point x="575" y="-45" type="curve" smooth="yes"/>
      <point x="747" y="-45"/>
      <point x="908" y="26"/>
      <point x="986" y="138" type="curve"/>
      <point x="839" y="314" type="line"/>
      <point x="781" y="241"/>
      <point x="701" y="205"/>
      <point x="598" y="205" type="curve" smooth="yes"/>
      <point x="472" y="205"/>
      <point x="392" y="275"/>
      <point x="371" y="392" type="curve"/>
      <point x="1015" y="392" type="line"/>
      <point x="1015" y="520" type="line" smooth="yes"/>
      <point x="1015" y="845"/>
      <point x="833" y="1034"/>
      <point x="542" y="1034" type="curve" smooth="yes"/>
      <point x="220" y="1034"/>
      <point x="40" y="816"/>
      <point x="40" y="498" type="curve" smooth="yes"/>
      <point x="40" y="471" type="line" smooth="yes"/>
      <point x="40" y="165"/>
      <point x="257" y="-45"/>
    </contour>
    <contour>
      <point x="540" y="784" type="curve" smooth="yes"/>
      <point x="641" y="784"/>
      <point x="701" y="724"/>
      <point x="697" y="622" type="curve" smooth="yes"/>
      <point x="697" y="595" type="line"/>
      <point x="371" y="595" type="line"/>
      <point x="388" y="721"/>
      <point x="446" y="784"/>
    </contour>
  </outline>
</glyph>
<glyph name="g" format="2">
  <advance width="1069"/>
  <unicode hex="0067"/>
  <note>
uni0067
</note>
  <outline>
    <contour>
      <point x="40" y="516" type="curve" smooth="yes"/>
      <point x="40" y="124"/>
      <point x="249" y="-34"/>
      <point x="466" y="-34" type="curve" smooth="yes"/>
      <point x="560" y="-34"/>
      <point x="640" y="0"/>
      <point x="702" y="69" type="curve"/>
      <point x="702" y="39" type="line" smooth="yes"/>
      <point x="702" y="-108"/>
      <point x="630" y="-183"/>
      <point x="486" y="-183" type="curve" smooth="yes"/>
      <point x="387" y="-183"/>
      <point x="308" y="-148"/>
      <point x="247" y="-79" type="curve"/>
      <point x="109" y="-268" type="line"/>
      <point x="189" y="-361"/>
      <point x="346" y="-423"/>
      <point x="498" y="-423" type="curve" smooth="yes"/>
      <point x="829" y="-423"/>
      <point x="1029" y="-241"/>
      <point x="1029" y="25" type="curve" smooth="yes"/>
      <point x="1029" y="1027" type="line"/>
      <point x="734" y="1027" type="line"/>
      <point x="722" y="937" type="line"/>
      <point x="662" y="1012"/>
      <point x="576" y="1047"/>
      <point x="468" y="1047" type="curve" smooth="yes"/>
      <point x="214" y="1047"/>
      <point x="40" y="849"/>
    </contour>
    <contour>
      <point x="367" y="489" type="curve" smooth="yes"/>
      <point x="367" y="687"/>
      <point x="435" y="794"/>
      <point x="549" y="794" type="curve" smooth="yes"/>
      <point x="620" y="794"/>
      <point x="670" y="770"/>
      <point x="702" y="723" type="curve"/>
      <point x="702" y="285" type="line"/>
      <point x="669" y="236"/>
      <point x="618" y="212"/>
      <point x="547" y="212" type="curve" smooth="yes"/>
      <point x="433" y="212"/>
      <point x="367" y="321"/>
    </contour>
  </outline>
</glyph>
<glyph name="h" format="2">
  <advance width="1020"/>
  <unicode hex="0068"/>
  <note>
uni0068
</note>
  <outline>
    <contour>
      <point x="365" y="1477" type="line"/>
      <point x="40" y="1477" type="line"/>
      <point x="40" y="0" type="line"/>
      <point x="365" y="0" type="line"/>
      <point x="365" y="748" type="line"/>
      <point x="391" y="790"/>
      <point x="439" y="811"/>
      <point x="507" y="811" type="curve" smooth="yes"/>
      <point x="615" y="811"/>
      <point x="655" y="759"/>
      <point x="655" y="651" type="curve" smooth="yes"/>
      <point x="655" y="0" type="line"/>
      <point x="980" y="0" type="line"/>
      <point x="980" y="658" type="line" smooth="yes"/>
      <point x="976" y="925"/>
      <point x="859" y="1062"/>
      <point x="630" y="1062" type="curve" smooth="yes"/>
      <point x="522" y="1062"/>
      <point x="434" y="1018"/>
      <point x="365" y="931" type="curve"/>
    </contour>
  </outline>
</glyph>
<glyph name="i" format="2">
  <advance width="440"/>
  <unicode hex="0069"/>
  <note>
uni0069
</note>
  <outline>
    <contour>
      <point x="384" y="1041" type="line"/>
      <point x="59" y="1041" type="line"/>
      <point x="59" y="0" type="line"/>
      <point x="384" y="0" type="line"/>
    </contour>
    <contour>
      <point x="40" y="1311" type="curve" smooth="yes"/>
      <point x="40" y="1218"/>
      <point x="112" y="1154"/>
      <point x="219" y="1154" type="curve" smooth="yes"/>
      <point x="326" y="1154"/>
      <point x="400" y="1219"/>
      <point x="400" y="1310" type="curve" smooth="yes"/>
      <point x="400" y="1401"/>
      <point x="326" y="1469"/>
      <point x="219" y="1469" type="curve" smooth="yes"/>
      <point x="112" y="1469"/>
      <point x="40" y="1401"/>
    </contour>
  </outline>
</glyph>
<glyph name="j" format="2">
  <advance width="439"/>
  <unicode hex="006A"/>
  <note>
uni006A
</note>
  <outline>
    <contour>
      <point x="63" y="1035" type="line"/>
      <point x="63" y="-40" type="line" smooth="yes"/>
      <point x="63" y="-129"/>
      <point x="18" y="-173"/>
      <point x="-72" y="-173" type="curve" smooth="yes"/>
      <point x="-96" y="-173"/>
      <point x="-127" y="-171"/>
      <point x="-165" y="-166" type="curve"/>
      <point x="-165" y="-412" type="line"/>
      <point x="-116" y="-423"/>
      <point x="-66" y="-427"/>
      <point x="-12" y="-427" type="curve" smooth="yes"/>
      <point x="241" y="-427"/>
      <point x="385" y="-289"/>
      <point x="385" y="-42" type="curve" smooth="yes"/>
      <point x="385" y="1035" type="line"/>
    </contour>
    <contour>
      <point x="38" y="1302" type="curve" smooth="yes"/>
      <point x="38" y="1213"/>
      <point x="110" y="1147"/>
      <point x="217" y="1147" type="curve" smooth="yes"/>
      <point x="324" y="1147"/>
      <point x="399" y="1212"/>
      <point x="399" y="1304" type="curve" smooth="yes"/>
      <point x="399" y="1396"/>
      <point x="324" y="1460"/>
      <point x="217" y="1460" type="curve" smooth="yes"/>
      <point x="110" y="1460"/>
      <point x="38" y="1396"/>
    </contour>
  </outline>
</glyph>
<glyph name="k" format="2">
  <advance width="1096"/>
  <unicode hex="006B"/>
  <note>
uni006B
</note>
  <outline>
    <contour>
      <point x="682" y="0" type="line"/>
      <point x="1056" y="0" type="line"/>
      <point x="664" y="613" type="line"/>
      <point x="1031" y="1041" type="line"/>
      <point x="642" y="1041" type="line"/>
      <point x="398" y="739" type="line"/>
      <point x="364" y="694" type="line"/>
      <point x="364" y="1481" type="line"/>
      <point x="40" y="1481" type="line"/>
      <point x="40" y="0" type="line"/>
      <point x="364" y="0" type="line"/>
      <point x="364" y="297" type="line"/>
      <point x="457" y="389" type="line"/>
    </contour>
  </outline>
</glyph>
<glyph name="l" format="2">
  <advance width="407"/>
  <unicode hex="006C"/>
  <note>
uni006C
</note>
  <outline>
    <contour>
      <point x="367" y="1477" type="line"/>
      <point x="40" y="1477" type="line"/>
      <point x="40" y="0" type="line"/>
      <point x="367" y="0" type="line"/>
    </contour>
  </outline>
</glyph>
<glyph name="m" format="2">
  <advance width="1592"/>
  <unicode hex="006D"/>
  <note>
uni006D
</note>
  <outline>
    <contour>
      <point x="40" y="1041" type="line"/>
      <point x="40" y="0" type="line"/>
      <point x="365" y="0" type="line"/>
      <point x="365" y="725" type="line"/>
      <point x="398" y="782"/>
      <point x="445" y="811"/>
      <point x="507" y="811" type="curve" smooth="yes"/>
      <point x="606" y="811"/>
      <point x="633" y="767"/>
      <point x="633" y="656" type="curve" smooth="yes"/>
      <point x="633" y="0" type="line"/>
      <point x="957" y="0" type="line"/>
      <point x="957" y="712" type="line"/>
      <point x="957" y="725" type="line"/>
      <point x="987" y="782"/>
      <point x="1035" y="811"/>
      <point x="1102" y="811" type="curve" smooth="yes"/>
      <point x="1194" y="811"/>
      <point x="1225" y="766"/>
      <point x="1225" y="658" type="curve" smooth="yes"/>
      <point x="1225" y="0" type="line"/>
      <point x="1552" y="0" type="line"/>
      <point x="1552" y="678" type="line" smooth="yes"/>
      <point x="1546" y="934"/>
      <point x="1437" y="1062"/>
      <point x="1225" y="1062" type="curve" smooth="yes"/>
      <point x="1092" y="1062"/>
      <point x="990" y="1009"/>
      <point x="919" y="903" type="curve"/>
      <point x="874" y="1009"/>
      <point x="785" y="1062"/>
      <point x="653" y="1062" type="curve" smooth="yes"/>
      <point x="529" y="1062"/>
      <point x="430" y="1014"/>
      <point x="356" y="920" type="curve"/>
      <point x="344" y="1041" type="line"/>
    </contour>
  </outline>
</glyph>
<glyph name="n" format="2">
  <advance width="1020"/>
  <unicode hex="006E"/>
  <note>
uni006E
</note>
  <outline>
    <contour>
      <point x="40" y="1041" type="line"/>
      <point x="40" y="0" type="line"/>
      <point x="365" y="0" type="line"/>
      <point x="365" y="737" type="line"/>
      <point x="397" y="787"/>
      <point x="444" y="811"/>
      <point x="507" y="811" type="curve" smooth="yes"/>
      <point x="618" y="811"/>
      <point x="653" y="763"/>
      <point x="653" y="658" type="curve" smooth="yes"/>
      <point x="653" y="0" type="line"/>
      <point x="980" y="0" type="line"/>
      <point x="980" y="671" type="line" smooth="yes"/>
      <point x="973" y="933"/>
      <point x="870" y="1062"/>
      <point x="653" y="1062" type="curve" smooth="yes"/>
      <point x="525" y="1062"/>
      <point x="426" y="1014"/>
      <point x="356" y="920" type="curve"/>
      <point x="344" y="1041" type="line"/>
    </contour>
  </outline>
</glyph>
<glyph name="o" format="2">
  <advance width="1087"/>
  <unicode hex="006F"/>
  <note>
uni006F
</note>
  <outline>
    <contour>
      <point x="40" y="449" type="line"/>
      <point x="56" y="147"/>
      <point x="247" y="-45"/>
      <point x="545" y="-45" type="curve" smooth="yes"/>
      <point x="851" y="-45"/>
      <point x="1047" y="160"/>
      <point x="1047" y="484" type="curve" smooth="yes"/>
      <point x="1047" y="496" type="line" smooth="yes"/>
      <point x="1047" y="829"/>
      <point x="855" y="1034"/>
      <point x="543" y="1034" type="curve" smooth="yes"/>
      <point x="222" y="1034"/>
      <point x="40" y="816"/>
      <point x="40" y="505" type="curve" smooth="yes"/>
    </contour>
    <contour>
      <point x="367" y="543" type="line"/>
      <point x="376" y="704"/>
      <point x="434" y="784"/>
      <point x="543" y="784" type="curve" smooth="yes"/>
      <point x="663" y="784"/>
      <point x="722" y="691"/>
      <point x="722" y="505" type="curve" smooth="yes"/>
      <point x="722" y="473" type="line" smooth="yes"/>
      <point x="720" y="295"/>
      <point x="661" y="205"/>
      <point x="545" y="205" type="curve" smooth="yes"/>
      <point x="424" y="205"/>
      <point x="365" y="293"/>
      <point x="365" y="484" type="curve" smooth="yes"/>
    </contour>
  </outline>
</glyph>
<glyph name="p" format="2">
  <advance width="1044"/>
  <unicode hex="0070"/>
  <note>
uni0070
</note>
  <outline>
    <contour>
      <point x="1004" y="514" type="curve" smooth="yes"/>
      <point x="1004" y="845"/>
      <point x="858" y="1045"/>
      <point x="599" y="1045" type="curve" smooth="yes"/>
      <point x="498" y="1045"/>
      <point x="414" y="1007"/>
      <point x="354" y="928" type="curve"/>
      <point x="342" y="1027" type="line"/>
      <point x="40" y="1027" type="line"/>
      <point x="40" y="-417" type="line"/>
      <point x="365" y="-417" type="line"/>
      <point x="365" y="69" type="line"/>
      <point x="425" y="0"/>
      <point x="504" y="-36"/>
      <point x="601" y="-36" type="curve" smooth="yes"/>
      <point x="831" y="-36"/>
      <point x="1004" y="144"/>
    </contour>
    <contour>
      <point x="680" y="516" type="curve" smooth="yes"/>
      <point x="678" y="322"/>
      <point x="640" y="215"/>
      <point x="520" y="215" type="curve" smooth="yes"/>
      <point x="446" y="215"/>
      <point x="393" y="243"/>
      <point x="365" y="301" type="curve"/>
      <point x="365" y="712" type="line"/>
      <point x="389" y="768"/>
      <point x="441" y="795"/>
      <point x="518" y="795" type="curve" smooth="yes"/>
      <point x="625" y="795"/>
      <point x="680" y="703"/>
    </contour>
  </outline>
</glyph>
<glyph name="q" format="2">
  <advance width="1044"/>
  <unicode hex="0071"/>
  <note>
uni0071
</note>
  <outline>
    <contour>
      <point x="40" y="516" type="curve" smooth="yes"/>
      <point x="40" y="165"/>
      <point x="198" y="-36"/>
      <point x="444" y="-36" type="curve" smooth="yes"/>
      <point x="541" y="-36"/>
      <point x="619" y="0"/>
      <point x="680" y="69" type="curve"/>
      <point x="680" y="-417" type="line"/>
      <point x="1004" y="-417" type="line"/>
      <point x="1004" y="1027" type="line"/>
      <point x="726" y="1027" type="line"/>
      <point x="702" y="912" type="line"/>
      <point x="638" y="1002"/>
      <point x="552" y="1045"/>
      <point x="446" y="1045" type="curve" smooth="yes"/>
      <point x="191" y="1045"/>
      <point x="40" y="847"/>
    </contour>
    <contour>
      <point x="365" y="496" type="curve" smooth="yes"/>
      <point x="374" y="692"/>
      <point x="405" y="795"/>
      <point x="529" y="795" type="curve" smooth="yes"/>
      <point x="603" y="795"/>
      <point x="653" y="768"/>
      <point x="680" y="712" type="curve"/>
      <point x="680" y="299" type="line"/>
      <point x="651" y="243"/>
      <point x="601" y="215"/>
      <point x="526" y="215" type="curve" smooth="yes"/>
      <point x="419" y="215"/>
      <point x="365" y="309"/>
    </contour>
  </outline>
</glyph>
<glyph name="s" format="2">
  <advance width="997"/>
  <unicode hex="0073"/>
  <note>
uni0073
</note>
  <outline>
    <contour>
      <point x="644" y="268" type="curve" smooth="yes"/>
      <point x="644" y="211"/>
      <point x="598" y="169"/>
      <point x="511" y="169" type="curve" smooth="yes"/>
      <point x="415" y="169"/>
      <point x="345" y="212"/>
      <point x="342" y="309" type="curve"/>
      <point x="40" y="309" type="line"/>
      <point x="40" y="124"/>
      <point x="220" y="-45"/>
      <point x="502" y="-45" type="curve" smooth="yes"/>
      <point x="770" y="-45"/>
      <point x="957" y="88"/>
      <point x="957" y="277" type="curve" smooth="yes"/>
      <point x="957" y="417"/>
      <point x="879" y="513"/>
      <point x="722" y="565" type="curve" smooth="yes"/>
      <point x="617" y="602"/>
      <point x="484" y="611"/>
      <point x="422" y="652" type="curve" smooth="yes"/>
      <point x="395" y="671"/>
      <point x="380" y="694"/>
      <point x="380" y="723" type="curve" smooth="yes"/>
      <point x="380" y="780"/>
      <point x="433" y="823"/>
      <point x="502" y="823" type="curve" smooth="yes"/>
      <point x="589" y="823"/>
      <point x="633" y="780"/>
      <point x="633" y="696" type="curve"/>
      <point x="957" y="696" type="line"/>
      <point x="957" y="901"/>
      <point x="778" y="1034"/>
      <point x="502" y="1034" type="curve" smooth="yes"/>
      <point x="247" y="1034"/>
      <point x="74" y="897"/>
      <point x="74" y="707" type="curve" smooth="yes"/>
      <point x="74" y="542"/>
      <point x="198" y="438"/>
      <point x="434" y="385" type="curve" smooth="yes"/>
      <point x="516" y="367"/>
      <point x="571" y="350"/>
      <point x="600" y="333" type="curve" smooth="yes"/>
      <point x="629" y="317"/>
      <point x="644" y="295"/>
    </contour>
  </outline>
</glyph>
<glyph name="t" format="2">
  <advance width="722"/>
  <unicode hex="0074"/>
  <note>
uni0074
</note>
  <outline>
    <contour>
      <point x="173" y="1275" type="line"/>
      <point x="173" y="1016" type="line"/>
      <point x="40" y="1016" type="line"/>
      <point x="40" y="791" type="line"/>
      <point x="173" y="791" type="line"/>
      <point x="173" y="273" type="line" smooth="yes"/>
      <point x="173" y="59"/>
      <point x="276" y="-45"/>
      <point x="502" y="-45" type="curve" smooth="yes"/>
      <point x="563" y="-45"/>
      <point x="623" y="-36"/>
      <point x="682" y="-18" type="curve"/>
      <point x="682" y="215" type="line"/>
      <point x="660" y="211"/>
      <point x="635" y="209"/>
      <point x="603" y="209" type="curve" smooth="yes"/>
      <point x="518" y="209"/>
      <point x="497" y="238"/>
      <point x="497" y="316" type="curve" smooth="yes"/>
      <point x="497" y="791" type="line"/>
      <point x="668" y="791" type="line"/>
      <point x="668" y="1016" type="line"/>
      <point x="497" y="1016" type="line"/>
      <point x="497" y="1275" type="line"/>
    </contour>
  </outline>
</glyph>
<glyph name="u" format="2">
  <advance width="1020"/>
  <unicode hex="0075"/>
  <note>
uni0075
</note>
  <outline>
    <contour>
      <point x="675" y="-25" type="line"/>
      <point x="980" y="-25" type="line"/>
      <point x="980" y="1016" type="line"/>
      <point x="653" y="1016" type="line"/>
      <point x="653" y="286" type="line"/>
      <point x="621" y="232"/>
      <point x="569" y="205"/>
      <point x="496" y="205" type="curve" smooth="yes"/>
      <point x="408" y="205"/>
      <point x="365" y="250"/>
      <point x="365" y="340" type="curve" smooth="yes"/>
      <point x="365" y="1016" type="line"/>
      <point x="40" y="1016" type="line"/>
      <point x="40" y="342" type="line" smooth="yes"/>
      <point x="40" y="90"/>
      <point x="159" y="-45"/>
      <point x="387" y="-45" type="curve" smooth="yes"/>
      <point x="505" y="-45"/>
      <point x="597" y="-1"/>
      <point x="664" y="88" type="curve"/>
    </contour>
  </outline>
</glyph>
<glyph name="v" format="2">
  <advance width="1091"/>
  <unicode hex="0076"/>
  <note>
uni0076
</note>
  <outline>
    <contour>
      <point x="384" y="1041" type="line"/>
      <point x="40" y="1041" type="line"/>
      <point x="380" y="0" type="line"/>
      <point x="711" y="0" type="line"/>
      <point x="1051" y="1041" type="line"/>
      <point x="709" y="1041" type="line"/>
      <point x="545" y="387" type="line"/>
    </contour>
  </outline>
</glyph>
<glyph name="y" format="2">
  <advance width="1112"/>
  <unicode hex="0079"/>
  <note>
uni0079
</note>
  <outline>
    <contour>
      <point x="384" y="1027" type="line"/>
      <point x="40" y="1027" type="line"/>
      <point x="401" y="-22" type="line"/>
      <point x="376" y="-92" type="line" smooth="yes"/>
      <point x="351" y="-162"/>
      <point x="309" y="-183"/>
      <point x="218" y="-183" type="curve" smooth="yes"/>
      <point x="178" y="-183" type="line"/>
      <point x="178" y="-415" type="line"/>
      <point x="225" y="-428"/>
      <point x="268" y="-434"/>
      <point x="311" y="-434" type="curve" smooth="yes"/>
      <point x="461" y="-434"/>
      <point x="569" y="-367"/>
      <point x="630" y="-232" type="curve" smooth="yes"/>
      <point x="648" y="-189" type="line"/>
      <point x="1072" y="1027" type="line"/>
      <point x="725" y="1027" type="line"/>
      <point x="552" y="439" type="line"/>
    </contour>
  </outline>
</glyph>
<glyph name="z" format="2">
  <advance width="965"/>
  <unicode hex="007A"/>
  <note>
uni007A
</note>
  <outline>
    <contour>
      <point x="914" y="867" type="line"/>
      <point x="914" y="1041" type="line"/>
      <point x="60" y="1041" type="line"/>
      <point x="60" y="791" type="line"/>
      <point x="502" y="791" type="line"/>
      <point x="40" y="183" type="line"/>
      <point x="40" y="0" type="line"/>
      <point x="925" y="0" type="line"/>
      <point x="925" y="250" type="line"/>
      <point x="450" y="250" type="line"/>
    </contour>
  </outline>
</glyph>
<glyph name="braceleft" format="2">
  <advance width="1059"/>
  <unicode hex="007B"/>
  <outline>
    <contour>
      <point x="977" y="1839" type="line"/>
      <point x="547" y="1839" type="line" smooth="yes"/>
      <point x="432" y="1839"/>
      <point x="369" y="1776"/>
      <point x="369" y="1661" type="curve" smooth="yes"/>
      <point x="369" y="967" type="line"/>
      <point x="369" y="930"/>
      <point x="104" y="854"/>
      <point x="82" y="854" type="curve"/>
      <point x="82" y="786" type="line"/>
      <point x="117" y="786"/>
      <point x="369" y="715"/>
      <point x="369" y="678" type="curve"/>
      <point x="369" y="-49" type="line" smooth="yes"/>
      <point x="369" y="-164"/>
      <point x="432" y="-227"/>
      <point x="547" y="-227" type="curve" smooth="yes"/>
      <point x="977" y="-227" type="line"/>
      <point x="977" y="-135" type="line"/>
      <point x="647" y="-49" type="line"/>
      <point x="647" y="524" type="line"/>
      <point x="647" y="705"/>
      <point x="549" y="797"/>
      <point x="489" y="801" type="curve"/>
      <point x="549" y="797"/>
      <point x="647" y="913"/>
      <point x="647" y="1100" type="curve"/>
      <point x="647" y="1677" type="line"/>
      <point x="977" y="1751" type="line"/>
    </contour>
  </outline>
</glyph>
<glyph name="braceright" format="2">
  <advance width="1059"/>
  <unicode hex="007D"/>
  <outline>
    <contour>
      <point x="82" y="1839" type="line"/>
      <point x="82" y="1751" type="line"/>
      <point x="412" y="1677" type="line"/>
      <point x="412" y="1100" type="line"/>
      <point x="412" y="913"/>
      <point x="510" y="797"/>
      <point x="569" y="801" type="curve"/>
      <point x="510" y="797"/>
      <point x="412" y="705"/>
      <point x="412" y="524" type="curve"/>
      <point x="412" y="-49" type="line"/>
      <point x="82" y="-135" type="line"/>
      <point x="82" y="-227" type="line"/>
      <point x="512" y="-227" type="line" smooth="yes"/>
      <point x="627" y="-227"/>
      <point x="690" y="-164"/>
      <point x="690" y="-49" type="curve" smooth="yes"/>
      <point x="690" y="678" type="line"/>
      <point x="690" y="715"/>
      <point x="942" y="786"/>
      <point x="977" y="786" type="curve"/>
      <point x="977" y="854" type="line"/>
      <point x="954" y="854"/>
      <point x="690" y="930"/>
      <point x="690" y="967" type="curve"/>
      <point x="690" y="1661" type="line" smooth="yes"/>
      <point x="690" y="1776"/>
      <point x="627" y="1839"/>
      <point x="512" y="1839" type="curve" smooth="yes"/>
    </contour>
  </outline>
</glyph>
<glyph name="exclamdown" format="2">
  <advance width="553"/>
  <unicode hex="00A1"/>
  <outline>
    <component base="period" xScale="-1" yScale="-1" xOffset="569" yOffset="1643"/>
    <contour>
      <point x="432" y="36" type="curve" smooth="yes"/>
      <point x="432" y="872" type="line"/>
      <point x="387" y="1176" type="line" smooth="yes"/>
      <point x="385" y="1191"/>
      <point x="378" y="1194"/>
      <point x="364" y="1196" type="curve" smooth="yes"/>
      <point x="310" y="1208"/>
      <point x="258" y="1208"/>
      <point x="204" y="1196" type="curve" smooth="yes"/>
      <point x="191" y="1194"/>
      <point x="185" y="1191"/>
      <point x="181" y="1176" type="curve" smooth="yes"/>
      <point x="137" y="872" type="line"/>
      <point x="137" y="36" type="line" smooth="yes"/>
      <point x="137" y="22"/>
      <point x="146" y="15"/>
      <point x="159" y="13" type="curve" smooth="yes"/>
      <point x="243" y="-4"/>
      <point x="327" y="-4"/>
      <point x="409" y="13" type="curve" smooth="yes"/>
      <point x="423" y="15"/>
      <point x="432" y="22"/>
    </contour>
  </outline>
</glyph>
<glyph name="cent" format="2">
  <advance width="922"/>
  <unicode hex="00A2"/>
  <note>
uni00A2
</note>
  <outline>
    <contour>
      <point x="412" y="647"/>
      <point x="354" y="741"/>
      <point x="354" y="862" type="qcurve" smooth="yes"/>
      <point x="354" y="932"/>
      <point x="358" y="971" type="qcurve" smooth="yes"/>
      <point x="375" y="1094"/>
      <point x="473" y="1094" type="qcurve" smooth="yes"/>
      <point x="524" y="1094"/>
      <point x="584" y="1026"/>
      <point x="584" y="965" type="qcurve"/>
      <point x="819" y="965" type="line"/>
      <point x="819" y="1094"/>
      <point x="680" y="1260"/>
      <point x="559" y="1280" type="qcurve"/>
      <point x="559" y="1448" type="line"/>
      <point x="410" y="1448" type="line"/>
      <point x="410" y="1282" type="line"/>
      <point x="264" y="1262"/>
      <point x="102" y="1044"/>
      <point x="102" y="879" type="qcurve" smooth="yes"/>
      <point x="102" y="864" type="line" smooth="yes"/>
      <point x="102" y="692"/>
      <point x="266" y="479"/>
      <point x="410" y="459" type="qcurve"/>
      <point x="410" y="287" type="line"/>
      <point x="559" y="287" type="line"/>
      <point x="559" y="461" type="line"/>
      <point x="676" y="481"/>
      <point x="819" y="641"/>
      <point x="819" y="756" type="qcurve"/>
      <point x="584" y="756" type="line"/>
      <point x="584" y="705"/>
      <point x="526" y="647"/>
      <point x="473" y="647" type="qcurve" smooth="yes"/>
    </contour>
  </outline>
</glyph>
<glyph name="currency" format="2">
  <advance width="1067"/>
  <unicode hex="00A4"/>
  <note>
uni00A4
</note>
  <outline>
    <contour>
      <point x="868" y="141" type="line"/>
      <point x="965" y="240" type="line"/>
      <point x="870" y="338" type="line"/>
      <point x="915" y="408"/>
      <point x="936" y="487"/>
      <point x="936" y="573" type="curve" smooth="yes"/>
      <point x="936" y="666"/>
      <point x="911" y="748"/>
      <point x="862" y="821" type="curve"/>
      <point x="965" y="924" type="line"/>
      <point x="868" y="1022" type="line"/>
      <point x="770" y="920" type="line"/>
      <point x="700" y="973"/>
      <point x="621" y="999"/>
      <point x="535" y="999" type="curve" smooth="yes"/>
      <point x="444" y="999"/>
      <point x="367" y="977"/>
      <point x="297" y="924" type="curve"/>
      <point x="201" y="1020" type="line"/>
      <point x="102" y="924" type="line"/>
      <point x="203" y="821" type="line"/>
      <point x="154" y="748"/>
      <point x="127" y="666"/>
      <point x="127" y="573" type="curve" smooth="yes"/>
      <point x="127" y="485"/>
      <point x="150" y="406"/>
      <point x="195" y="334" type="curve"/>
      <point x="102" y="240" type="line"/>
      <point x="201" y="143" type="line"/>
      <point x="287" y="233" type="line"/>
      <point x="360" y="174"/>
      <point x="442" y="145"/>
      <point x="535" y="145" type="curve" smooth="yes"/>
      <point x="627" y="145"/>
      <point x="707" y="174"/>
      <point x="778" y="233" type="curve"/>
      <point x="868" y="141" type="line"/>
    </contour>
    <contour>
      <point x="295" y="573" type="curve" smooth="yes"/>
      <point x="295" y="719"/>
      <point x="397" y="829"/>
      <point x="535" y="829" type="curve" smooth="yes"/>
      <point x="668" y="829"/>
      <point x="774" y="719"/>
      <point x="774" y="573" type="curve" smooth="yes"/>
      <point x="774" y="424"/>
      <point x="662" y="317"/>
      <point x="535" y="317" type="curve" smooth="yes"/>
      <point x="403" y="317"/>
      <point x="295" y="424"/>
    </contour>
  </outline>
</glyph>
<glyph name="yen" format="2">
  <advance width="1163"/>
  <unicode hex="00A5"/>
  <note>
uni00A5
</note>
  <outline>
    <contour>
      <point x="418" y="1282" type="line"/>
      <point x="102" y="1282" type="line"/>
      <point x="373" y="653" type="line"/>
      <point x="158" y="653" type="line"/>
      <point x="158" y="485" type="line"/>
      <point x="424" y="485" type="line"/>
      <point x="424" y="397" type="line"/>
      <point x="158" y="397" type="line"/>
      <point x="158" y="231" type="line"/>
      <point x="424" y="231" type="line"/>
      <point x="424" y="0" type="line"/>
      <point x="733" y="0" type="line"/>
      <point x="733" y="231" type="line"/>
      <point x="973" y="231" type="line"/>
      <point x="973" y="397" type="line"/>
      <point x="733" y="397" type="line"/>
      <point x="733" y="485" type="line"/>
      <point x="973" y="485" type="line"/>
      <point x="973" y="653" type="line"/>
      <point x="793" y="653" type="line"/>
      <point x="1061" y="1282" type="line"/>
      <point x="748" y="1282" type="line"/>
      <point x="582" y="825" type="line"/>
    </contour>
  </outline>
</glyph>
<glyph name="brokenbar" format="2">
  <advance width="428"/>
  <unicode hex="00A6"/>
  <note>
uni00A6
</note>
  <outline>
    <contour>
      <point x="326" y="-125" type="line"/>
      <point x="326" y="614" type="line"/>
      <point x="102" y="614" type="line"/>
      <point x="102" y="-125" type="line"/>
    </contour>
    <contour>
      <point x="326" y="1473" type="line"/>
      <point x="102" y="1473" type="line"/>
      <point x="102" y="774" type="line"/>
      <point x="326" y="774" type="line"/>
    </contour>
  </outline>
</glyph>
<glyph name="section" format="2">
  <advance width="1221"/>
  <unicode hex="00A7"/>
  <note>
uni00A7
</note>
  <outline>
    <contour>
      <point x="1118" y="776"/>
      <point x="1065" y="893"/>
      <point x="961" y="983"/>
      <point x="803" y="1051"/>
      <point x="532" y="1120"/>
      <point x="430" y="1182"/>
      <point x="430" y="1243" type="qcurve" smooth="yes"/>
      <point x="430" y="1296"/>
      <point x="522" y="1358"/>
      <point x="610" y="1358" type="qcurve" smooth="yes"/>
      <point x="694" y="1358"/>
      <point x="788" y="1274"/>
      <point x="788" y="1206" type="qcurve"/>
      <point x="1100" y="1206" type="line"/>
      <point x="1100" y="1391"/>
      <point x="840" y="1597"/>
      <point x="610" y="1597" type="qcurve" smooth="yes"/>
      <point x="385" y="1597"/>
      <point x="117" y="1403"/>
      <point x="117" y="1241" type="qcurve" smooth="yes"/>
      <point x="117" y="1071"/>
      <point x="248" y="973" type="qcurve"/>
      <point x="102" y="887"/>
      <point x="102" y="723" type="qcurve" smooth="yes"/>
      <point x="102" y="629"/>
      <point x="186" y="492"/>
      <point x="354" y="391"/>
      <point x="684" y="299"/>
      <point x="791" y="233"/>
      <point x="791" y="180" type="qcurve" smooth="yes"/>
      <point x="791" y="76"/>
      <point x="612" y="76" type="qcurve" smooth="yes"/>
      <point x="508" y="76"/>
      <point x="414" y="145"/>
      <point x="414" y="213" type="qcurve"/>
      <point x="102" y="213" type="line"/>
      <point x="102" y="31"/>
      <point x="367" y="-166"/>
      <point x="612" y="-166" type="qcurve" smooth="yes"/>
      <point x="842" y="-166"/>
      <point x="1102" y="18"/>
      <point x="1102" y="180" type="qcurve" smooth="yes"/>
      <point x="1102" y="356"/>
      <point x="975" y="451" type="qcurve"/>
      <point x="1118" y="535"/>
      <point x="1118" y="698" type="qcurve" smooth="yes"/>
    </contour>
    <contour>
      <point x="711" y="793"/>
      <point x="813" y="721"/>
      <point x="813" y="664" type="qcurve" smooth="yes"/>
      <point x="813" y="592"/>
      <point x="760" y="553" type="qcurve"/>
      <point x="651" y="584" type="line" smooth="yes"/>
      <point x="496" y="633"/>
      <point x="414" y="698"/>
      <point x="414" y="760" type="qcurve" smooth="yes"/>
      <point x="414" y="834"/>
      <point x="459" y="870" type="qcurve"/>
      <point x="510" y="852"/>
      <point x="565" y="838" type="qcurve"/>
    </contour>
  </outline>
</glyph>
<glyph name="copyright" format="2">
  <advance width="1346"/>
  <unicode hex="00A9"/>
  <note>
uni00A9
</note>
  <outline>
    <contour>
      <point x="803" y="1257" type="line"/>
      <point x="803" y="1184"/>
      <point x="733" y="1124"/>
      <point x="662" y="1124" type="qcurve" smooth="yes"/>
      <point x="586" y="1124"/>
      <point x="504" y="1225"/>
      <point x="504" y="1309" type="qcurve" smooth="yes"/>
      <point x="504" y="1401" type="line" smooth="yes"/>
      <point x="506" y="1485"/>
      <point x="586" y="1583"/>
      <point x="662" y="1583" type="qcurve" smooth="yes"/>
      <point x="731" y="1583"/>
      <point x="805" y="1522"/>
      <point x="805" y="1452" type="qcurve"/>
      <point x="930" y="1452" type="line"/>
      <point x="930" y="1563"/>
      <point x="791" y="1683"/>
      <point x="662" y="1683" type="qcurve" smooth="yes"/>
      <point x="535" y="1683"/>
      <point x="381" y="1526"/>
      <point x="381" y="1399" type="qcurve" smooth="yes"/>
      <point x="381" y="1315" type="line" smooth="yes"/>
      <point x="381" y="1182"/>
      <point x="532" y="1024"/>
      <point x="791" y="1024"/>
      <point x="930" y="1143"/>
      <point x="930" y="1257" type="qcurve"/>
    </contour>
    <contour>
      <point x="199" y="1481"/>
      <point x="326" y="1694"/>
      <point x="543" y="1812"/>
      <point x="672" y="1812" type="qcurve" smooth="yes"/>
      <point x="803" y="1812"/>
      <point x="1024" y="1688"/>
      <point x="1143" y="1477"/>
      <point x="1143" y="1233"/>
      <point x="1024" y="1020"/>
      <point x="803" y="895"/>
      <point x="672" y="895" type="qcurve" smooth="yes"/>
      <point x="541" y="895"/>
      <point x="317" y="1022"/>
      <point x="199" y="1233"/>
      <point x="199" y="1354" type="qcurve" smooth="yes"/>
    </contour>
    <contour>
      <point x="102" y="1204"/>
      <point x="252" y="948"/>
      <point x="516" y="801"/>
      <point x="672" y="801" type="qcurve" smooth="yes"/>
      <point x="825" y="801"/>
      <point x="1090" y="948"/>
      <point x="1243" y="1204"/>
      <point x="1243" y="1354" type="qcurve" smooth="yes"/>
      <point x="1243" y="1503"/>
      <point x="1092" y="1759"/>
      <point x="825" y="1907"/>
      <point x="518" y="1907"/>
      <point x="252" y="1759"/>
      <point x="102" y="1503"/>
      <point x="102" y="1354" type="qcurve" smooth="yes"/>
    </contour>
  </outline>
</glyph>
<glyph name="ordfeminine" format="2">
  <advance width="699"/>
  <unicode hex="00AA"/>
  <note>
uni00AA
</note>
  <outline>
    <contour>
      <point x="659" y="1570" type="line"/>
      <point x="643" y="1623"/>
      <point x="635" y="1680"/>
      <point x="635" y="1741" type="curve" smooth="yes"/>
      <point x="635" y="2046" type="line" smooth="yes"/>
      <point x="635" y="2217"/>
      <point x="529" y="2313"/>
      <point x="356" y="2313" type="curve" smooth="yes"/>
      <point x="178" y="2313"/>
      <point x="55" y="2221"/>
      <point x="55" y="2088" type="curve"/>
      <point x="222" y="2075" type="line"/>
      <point x="222" y="2138"/>
      <point x="271" y="2169"/>
      <point x="356" y="2169" type="curve" smooth="yes"/>
      <point x="429" y="2169"/>
      <point x="466" y="2129"/>
      <point x="466" y="2048" type="curve" smooth="yes"/>
      <point x="466" y="1999" type="line"/>
      <point x="369" y="1999" type="line" smooth="yes"/>
      <point x="147" y="1999"/>
      <point x="40" y="1920"/>
      <point x="40" y="1775" type="curve" smooth="yes"/>
      <point x="40" y="1643"/>
      <point x="128" y="1557"/>
      <point x="281" y="1557" type="curve" smooth="yes"/>
      <point x="360" y="1557"/>
      <point x="424" y="1583"/>
      <point x="472" y="1636" type="curve"/>
      <point x="477" y="1608"/>
      <point x="482" y="1586"/>
      <point x="488" y="1570" type="curve"/>
    </contour>
    <contour>
      <point x="321" y="1696" type="curve" smooth="yes"/>
      <point x="247" y="1696"/>
      <point x="209" y="1724"/>
      <point x="209" y="1780" type="curve" smooth="yes"/>
      <point x="209" y="1846"/>
      <point x="268" y="1884"/>
      <point x="364" y="1888" type="curve" smooth="yes"/>
      <point x="466" y="1888" type="line"/>
      <point x="466" y="1755" type="line"/>
      <point x="433" y="1722"/>
      <point x="372" y="1696"/>
    </contour>
  </outline>
</glyph>
<glyph name="logicalnot" format="2">
  <advance width="1032"/>
  <unicode hex="00AC"/>
  <note>
uni00AC
</note>
  <outline>
    <contour>
      <point x="930" y="659" type="line"/>
      <point x="102" y="659" type="line"/>
      <point x="102" y="492" type="line"/>
      <point x="731" y="492" type="line"/>
      <point x="731" y="233" type="line"/>
      <point x="930" y="233" type="line"/>
    </contour>
  </outline>
</glyph>
<glyph name="registered" format="2">
  <advance width="1350"/>
  <unicode hex="00AE"/>
  <note>
uni00AE
</note>
  <outline>
    <contour>
      <point x="102" y="1153"/>
      <point x="254" y="874"/>
      <point x="518" y="713"/>
      <point x="674" y="713" type="qcurve" smooth="yes"/>
      <point x="827" y="713"/>
      <point x="1094" y="874"/>
      <point x="1247" y="1153"/>
      <point x="1247" y="1317" type="qcurve" smooth="yes"/>
      <point x="1247" y="1479"/>
      <point x="1096" y="1759"/>
      <point x="827" y="1919"/>
      <point x="520" y="1919"/>
      <point x="254" y="1759"/>
      <point x="102" y="1479"/>
      <point x="102" y="1317" type="qcurve" smooth="yes"/>
    </contour>
    <contour>
      <point x="201" y="1454"/>
      <point x="328" y="1688"/>
      <point x="545" y="1817"/>
      <point x="674" y="1817" type="qcurve" smooth="yes"/>
      <point x="805" y="1817"/>
      <point x="1026" y="1679"/>
      <point x="1147" y="1450"/>
      <point x="1147" y="1184"/>
      <point x="1026" y="952"/>
      <point x="807" y="815"/>
      <point x="674" y="815" type="qcurve" smooth="yes"/>
      <point x="543" y="815"/>
      <point x="319" y="954"/>
      <point x="201" y="1184"/>
      <point x="201" y="1317" type="qcurve" smooth="yes"/>
    </contour>
    <contour>
      <point x="684" y="1255" type="line" smooth="yes"/>
      <point x="748" y="1255"/>
      <point x="801" y="1202"/>
      <point x="801" y="1141" type="qcurve" smooth="yes"/>
      <point x="801" y="1012"/>
      <point x="813" y="985" type="qcurve"/>
      <point x="936" y="985" type="line"/>
      <point x="936" y="997" type="line"/>
      <point x="928" y="1016"/>
      <point x="924" y="1071"/>
      <point x="924" y="1204"/>
      <point x="885" y="1292"/>
      <point x="840" y="1319" type="qcurve"/>
      <point x="926" y="1368"/>
      <point x="926" y="1456" type="qcurve" smooth="yes"/>
      <point x="926" y="1556"/>
      <point x="786" y="1669"/>
      <point x="664" y="1669" type="qcurve" smooth="yes"/>
      <point x="436" y="1669" type="line"/>
      <point x="436" y="985" type="line"/>
      <point x="557" y="985" type="line"/>
      <point x="557" y="1255" type="line"/>
    </contour>
    <contour>
      <point x="557" y="1561" type="line"/>
      <point x="672" y="1561" type="line" smooth="yes"/>
      <point x="748" y="1561"/>
      <point x="803" y="1513"/>
      <point x="803" y="1458" type="qcurve" smooth="yes"/>
      <point x="803" y="1415"/>
      <point x="723" y="1364"/>
      <point x="662" y="1364" type="qcurve" smooth="yes"/>
      <point x="557" y="1364" type="line"/>
    </contour>
  </outline>
</glyph>
<glyph name="ordmasculine" format="2">
  <advance width="748"/>
  <unicode hex="00BA"/>
  <note>
uni00BA
</note>
  <outline>
    <contour>
      <point x="40" y="1899" type="line"/>
      <point x="40" y="1692"/>
      <point x="171" y="1554"/>
      <point x="375" y="1554" type="curve" smooth="yes"/>
      <point x="576" y="1554"/>
      <point x="708" y="1690"/>
      <point x="708" y="1896" type="curve" smooth="yes"/>
      <point x="708" y="1965" type="line" smooth="yes"/>
      <point x="708" y="2178"/>
      <point x="572" y="2311"/>
      <point x="372" y="2311" type="curve" smooth="yes"/>
      <point x="172" y="2311"/>
      <point x="40" y="2174"/>
      <point x="40" y="1969" type="curve" smooth="yes"/>
    </contour>
    <contour>
      <point x="209" y="1967" type="line"/>
      <point x="209" y="2096"/>
      <point x="271" y="2169"/>
      <point x="373" y="2169" type="curve" smooth="yes"/>
      <point x="475" y="2169"/>
      <point x="538" y="2092"/>
      <point x="538" y="1969" type="curve" smooth="yes"/>
      <point x="538" y="1892" type="line" smooth="yes"/>
      <point x="538" y="1767"/>
      <point x="474" y="1694"/>
      <point x="375" y="1694" type="curve" smooth="yes"/>
      <point x="270" y="1694"/>
      <point x="209" y="1768"/>
      <point x="209" y="1896" type="curve" smooth="yes"/>
    </contour>
  </outline>
</glyph>
<glyph name="questiondown" format="2">
  <advance width="1155"/>
  <unicode hex="00BF"/>
  <outline>
    <contour>
      <point x="383" y="1092" type="curve" smooth="yes"/>
      <point x="404" y="944"/>
      <point x="505" y="791"/>
      <point x="575" y="735" type="curve" smooth="yes"/>
      <point x="667" y="660"/>
      <point x="796" y="589"/>
      <point x="796" y="488" type="curve" smooth="yes"/>
      <point x="796" y="349"/>
      <point x="699" y="311"/>
      <point x="613" y="309" type="curve" smooth="yes"/>
      <point x="463" y="307"/>
      <point x="375" y="394"/>
      <point x="340" y="471" type="curve" smooth="yes"/>
      <point x="336" y="484"/>
      <point x="327" y="482"/>
      <point x="314" y="482" type="curve" smooth="yes"/>
      <point x="228" y="477"/>
      <point x="147" y="447"/>
      <point x="71" y="387" type="curve" smooth="yes"/>
      <point x="57" y="376"/>
      <point x="52" y="372"/>
      <point x="57" y="359" type="curve" smooth="yes"/>
      <point x="116" y="219"/>
      <point x="321" y="-7"/>
      <point x="575" y="0" type="curve" smooth="yes"/>
      <point x="834" y="7"/>
      <point x="1101" y="140"/>
      <point x="1101" y="453" type="curve" smooth="yes"/>
      <point x="1101" y="660"/>
      <point x="992" y="761"/>
      <point x="877" y="840" type="curve" smooth="yes"/>
      <point x="802" y="892"/>
      <point x="731" y="978"/>
      <point x="722" y="1095" type="curve" smooth="yes"/>
      <point x="722" y="1111"/>
      <point x="712" y="1115"/>
      <point x="699" y="1118" type="curve" smooth="yes"/>
      <point x="602" y="1140"/>
      <point x="503" y="1140"/>
      <point x="406" y="1118" type="curve" smooth="yes"/>
      <point x="393" y="1115"/>
      <point x="381" y="1109"/>
    </contour>
    <component base="period" xScale="-1" yScale="-1" xOffset="836" yOffset="1606"/>
  </outline>
</glyph>
<glyph name="Agrave" format="2">
  <advance width="1429"/>
  <unicode hex="00C0"/>
  <note>
uni00C0
</note>
  <outline>
    <contour>
      <point x="1026" y="0" type="line"/>
      <point x="1389" y="0" type="line"/>
      <point x="871" y="1404" type="line"/>
      <point x="553" y="1404" type="line"/>
      <point x="40" y="0" type="line"/>
      <point x="400" y="0" type="line"/>
      <point x="481" y="262" type="line"/>
      <point x="943" y="262" type="line"/>
    </contour>
    <contour>
      <point x="713" y="1010" type="line"/>
      <point x="864" y="523" type="line"/>
      <point x="562" y="523" type="line"/>
    </contour>
    <contour>
      <point x="680" y="1778" type="line"/>
      <point x="334" y="1778" type="line"/>
      <point x="605" y="1475" type="line"/>
      <point x="869" y="1475" type="line"/>
    </contour>
  </outline>
</glyph>
<glyph name="Aacute" format="2">
  <advance width="1429"/>
  <unicode hex="00C1"/>
  <note>
uni00C1
</note>
  <outline>
    <contour>
      <point x="1026" y="0" type="line"/>
      <point x="1389" y="0" type="line"/>
      <point x="871" y="1404" type="line"/>
      <point x="553" y="1404" type="line"/>
      <point x="40" y="0" type="line"/>
      <point x="400" y="0" type="line"/>
      <point x="481" y="262" type="line"/>
      <point x="943" y="262" type="line"/>
    </contour>
    <contour>
      <point x="713" y="1010" type="line"/>
      <point x="864" y="523" type="line"/>
      <point x="562" y="523" type="line"/>
    </contour>
    <contour>
      <point x="567" y="1475" type="line"/>
      <point x="833" y="1475" type="line"/>
      <point x="1101" y="1778" type="line"/>
      <point x="756" y="1778" type="line"/>
    </contour>
  </outline>
</glyph>
<glyph name="Acircumflex" format="2">
  <advance width="1429"/>
  <unicode hex="00C2"/>
  <note>
uni00C2
</note>
  <outline>
    <contour>
      <point x="1026" y="0" type="line"/>
      <point x="1389" y="0" type="line"/>
      <point x="871" y="1404" type="line"/>
      <point x="553" y="1404" type="line"/>
      <point x="40" y="0" type="line"/>
      <point x="400" y="0" type="line"/>
      <point x="481" y="262" type="line"/>
      <point x="943" y="262" type="line"/>
    </contour>
    <contour>
      <point x="713" y="1010" type="line"/>
      <point x="864" y="523" type="line"/>
      <point x="562" y="523" type="line"/>
    </contour>
    <contour>
      <point x="810" y="1778" type="line"/>
      <point x="623" y="1778" type="line"/>
      <point x="312" y="1511" type="line"/>
      <point x="312" y="1494" type="line"/>
      <point x="562" y="1494" type="line"/>
      <point x="715" y="1625" type="line"/>
      <point x="869" y="1494" type="line"/>
      <point x="1125" y="1494" type="line"/>
      <point x="1125" y="1507" type="line"/>
    </contour>
  </outline>
</glyph>
<glyph name="Atilde" format="2">
  <advance width="1429"/>
  <unicode hex="00C3"/>
  <note>
uni00C3
</note>
  <outline>
    <contour>
      <point x="1026" y="0" type="line"/>
      <point x="1389" y="0" type="line"/>
      <point x="871" y="1404" type="line"/>
      <point x="553" y="1404" type="line"/>
      <point x="40" y="0" type="line"/>
      <point x="400" y="0" type="line"/>
      <point x="481" y="262" type="line"/>
      <point x="943" y="262" type="line"/>
    </contour>
    <contour>
      <point x="713" y="1010" type="line"/>
      <point x="864" y="523" type="line"/>
      <point x="562" y="523" type="line"/>
    </contour>
    <contour>
      <point x="909" y="1780" type="line"/>
      <point x="909" y="1719"/>
      <point x="875" y="1694"/>
      <point x="833" y="1694" type="curve" smooth="yes"/>
      <point x="732" y="1694"/>
      <point x="667" y="1773"/>
      <point x="564" y="1773" type="curve" smooth="yes"/>
      <point x="441" y="1773"/>
      <point x="341" y="1653"/>
      <point x="341" y="1509" type="curve"/>
      <point x="521" y="1500" type="line"/>
      <point x="521" y="1561"/>
      <point x="557" y="1586"/>
      <point x="596" y="1586" type="curve" smooth="yes"/>
      <point x="629" y="1586"/>
      <point x="671" y="1573"/>
      <point x="723" y="1546" type="curve" smooth="yes"/>
      <point x="776" y="1518"/>
      <point x="823" y="1505"/>
      <point x="867" y="1505" type="curve" smooth="yes"/>
      <point x="989" y="1505"/>
      <point x="1087" y="1620"/>
      <point x="1087" y="1771" type="curve"/>
    </contour>
  </outline>
</glyph>
<glyph name="Adieresis" format="2">
  <advance width="1429"/>
  <unicode hex="00C4"/>
  <note>
uni00C4
</note>
  <outline>
    <contour>
      <point x="1026" y="0" type="line"/>
      <point x="1389" y="0" type="line"/>
      <point x="871" y="1404" type="line"/>
      <point x="553" y="1404" type="line"/>
      <point x="40" y="0" type="line"/>
      <point x="400" y="0" type="line"/>
      <point x="481" y="262" type="line"/>
      <point x="943" y="262" type="line"/>
    </contour>
    <contour>
      <point x="713" y="1010" type="line"/>
      <point x="864" y="523" type="line"/>
      <point x="562" y="523" type="line"/>
    </contour>
    <contour>
      <point x="319" y="1613" type="curve" smooth="yes"/>
      <point x="319" y="1544"/>
      <point x="382" y="1485"/>
      <point x="464" y="1485" type="curve" smooth="yes"/>
      <point x="547" y="1485"/>
      <point x="609" y="1543"/>
      <point x="609" y="1614" type="curve" smooth="yes"/>
      <point x="609" y="1685"/>
      <point x="547" y="1739"/>
      <point x="464" y="1739" type="curve" smooth="yes"/>
      <point x="382" y="1739"/>
      <point x="319" y="1685"/>
    </contour>
    <contour>
      <point x="820" y="1613" type="curve" smooth="yes"/>
      <point x="820" y="1544"/>
      <point x="882" y="1485"/>
      <point x="965" y="1485" type="curve" smooth="yes"/>
      <point x="1047" y="1485"/>
      <point x="1110" y="1543"/>
      <point x="1110" y="1614" type="curve" smooth="yes"/>
      <point x="1110" y="1685"/>
      <point x="1047" y="1739"/>
      <point x="965" y="1739" type="curve" smooth="yes"/>
      <point x="882" y="1739"/>
      <point x="820" y="1685"/>
    </contour>
  </outline>
</glyph>
<glyph name="Aring" format="2">
  <advance width="1429"/>
  <unicode hex="00C5"/>
  <note>
uni00C5
</note>
  <outline>
    <contour>
      <point x="1026" y="0" type="line"/>
      <point x="1389" y="0" type="line"/>
      <point x="871" y="1404" type="line"/>
      <point x="553" y="1404" type="line"/>
      <point x="40" y="0" type="line"/>
      <point x="400" y="0" type="line"/>
      <point x="481" y="262" type="line"/>
      <point x="943" y="262" type="line"/>
    </contour>
    <contour>
      <point x="713" y="1010" type="line"/>
      <point x="864" y="523" type="line"/>
      <point x="562" y="523" type="line"/>
    </contour>
    <contour>
      <point x="502" y="1664" type="curve" smooth="yes"/>
      <point x="502" y="1553"/>
      <point x="594" y="1473"/>
      <point x="719" y="1473" type="curve" smooth="yes"/>
      <point x="840" y="1473"/>
      <point x="934" y="1553"/>
      <point x="934" y="1664" type="curve" smooth="yes"/>
      <point x="934" y="1777"/>
      <point x="837" y="1859"/>
      <point x="719" y="1859" type="curve" smooth="yes"/>
      <point x="596" y="1859"/>
      <point x="502" y="1777"/>
    </contour>
    <contour>
      <point x="719" y="1563" type="curve" smooth="yes"/>
      <point x="584" y="1563"/>
      <point x="583" y="1769"/>
      <point x="719" y="1769" type="curve" smooth="yes"/>
      <point x="848" y="1769"/>
      <point x="850" y="1563"/>
    </contour>
  </outline>
</glyph>
<glyph name="Ccedilla" format="2">
  <advance width="1255"/>
  <unicode hex="00C7"/>
  <note>
uni00C7
</note>
  <outline>
    <contour>
      <point x="878" y="473" type="line"/>
      <point x="871" y="314"/>
      <point x="790" y="241"/>
      <point x="635" y="241" type="curve" smooth="yes"/>
      <point x="452" y="241"/>
      <point x="384" y="361"/>
      <point x="384" y="660" type="curve" smooth="yes"/>
      <point x="384" y="759" type="line" smooth="yes"/>
      <point x="384" y="1036"/>
      <point x="461" y="1154"/>
      <point x="629" y="1154" type="curve" smooth="yes"/>
      <point x="794" y="1154"/>
      <point x="873" y="1086"/>
      <point x="880" y="917" type="curve"/>
      <point x="1215" y="917" type="line"/>
      <point x="1188" y="1230"/>
      <point x="970" y="1419"/>
      <point x="629" y="1419" type="curve" smooth="yes"/>
      <point x="265" y="1419"/>
      <point x="40" y="1154"/>
      <point x="40" y="737" type="curve" smooth="yes"/>
      <point x="40" y="667" type="line" smooth="yes"/>
      <point x="40" y="228"/>
      <point x="265" y="-22"/>
      <point x="635" y="-22" type="curve" smooth="yes"/>
      <point x="977" y="-22"/>
      <point x="1200" y="176"/>
      <point x="1213" y="473" type="curve"/>
    </contour>
    <contour>
      <point x="515" y="7" type="line"/>
      <point x="485" y="-133" type="line"/>
      <point x="530" y="-137"/>
      <point x="564" y="-144"/>
      <point x="585" y="-153" type="curve" smooth="yes"/>
      <point x="605" y="-165"/>
      <point x="614" y="-180"/>
      <point x="614" y="-202" type="curve" smooth="yes"/>
      <point x="614" y="-252"/>
      <point x="585" y="-277"/>
      <point x="528" y="-277" type="curve"/>
      <point x="535" y="-458" type="line"/>
      <point x="762" y="-458"/>
      <point x="895" y="-370"/>
      <point x="895" y="-219" type="curve" smooth="yes"/>
      <point x="895" y="-126"/>
      <point x="848" y="-69"/>
      <point x="751" y="-52" type="curve"/>
      <point x="760" y="7" type="line"/>
    </contour>
  </outline>
</glyph>
<glyph name="Egrave" format="2">
  <advance width="1047"/>
  <unicode hex="00C8"/>
  <note>
uni00C8
</note>
  <outline>
    <contour>
      <point x="909" y="845" type="line"/>
      <point x="378" y="845" type="line"/>
      <point x="378" y="1140" type="line"/>
      <point x="1007" y="1140" type="line"/>
      <point x="1007" y="1404" type="line"/>
      <point x="40" y="1404" type="line"/>
      <point x="40" y="0" type="line"/>
      <point x="1004" y="0" type="line"/>
      <point x="1004" y="260" type="line"/>
      <point x="378" y="260" type="line"/>
      <point x="378" y="595" type="line"/>
      <point x="909" y="595" type="line"/>
      <point x="909" y="845" type="line"/>
    </contour>
    <contour>
      <point x="518" y="1778" type="line"/>
      <point x="173" y="1778" type="line"/>
      <point x="444" y="1475" type="line"/>
      <point x="709" y="1475" type="line"/>
      <point x="518" y="1778" type="line"/>
    </contour>
  </outline>
</glyph>
<glyph name="Ecircumflex" format="2">
  <advance width="1047"/>
  <unicode hex="00CA"/>
  <note>
uni00CA
</note>
  <outline>
    <contour>
      <point x="909" y="845" type="line"/>
      <point x="378" y="845" type="line"/>
      <point x="378" y="1140" type="line"/>
      <point x="1007" y="1140" type="line"/>
      <point x="1007" y="1404" type="line"/>
      <point x="40" y="1404" type="line"/>
      <point x="40" y="0" type="line"/>
      <point x="1004" y="0" type="line"/>
      <point x="1004" y="260" type="line"/>
      <point x="378" y="260" type="line"/>
      <point x="378" y="595" type="line"/>
      <point x="909" y="595" type="line"/>
    </contour>
    <contour>
      <point x="648" y="1778" type="line"/>
      <point x="459" y="1778" type="line"/>
      <point x="150" y="1511" type="line"/>
      <point x="150" y="1494" type="line"/>
      <point x="401" y="1494" type="line"/>
      <point x="554" y="1625" type="line"/>
      <point x="707" y="1494" type="line"/>
      <point x="962" y="1494" type="line"/>
      <point x="962" y="1507" type="line"/>
      <point x="648" y="1778" type="line"/>
    </contour>
  </outline>
</glyph>
<glyph name="Edieresis" format="2">
  <advance width="1047"/>
  <unicode hex="00CB"/>
  <note>
uni00CB
</note>
  <outline>
    <contour>
      <point x="909" y="845" type="line"/>
      <point x="378" y="845" type="line"/>
      <point x="378" y="1140" type="line"/>
      <point x="1007" y="1140" type="line"/>
      <point x="1007" y="1404" type="line"/>
      <point x="40" y="1404" type="line"/>
      <point x="40" y="0" type="line"/>
      <point x="1004" y="0" type="line"/>
      <point x="1004" y="260" type="line"/>
      <point x="378" y="260" type="line"/>
      <point x="378" y="595" type="line"/>
      <point x="909" y="595" type="line"/>
    </contour>
    <contour>
      <point x="157" y="1613" type="curve" smooth="yes"/>
      <point x="157" y="1544"/>
      <point x="219" y="1485"/>
      <point x="303" y="1485" type="curve" smooth="yes"/>
      <point x="386" y="1485"/>
      <point x="448" y="1543"/>
      <point x="448" y="1614" type="curve" smooth="yes"/>
      <point x="448" y="1685"/>
      <point x="386" y="1739"/>
      <point x="303" y="1739" type="curve" smooth="yes"/>
      <point x="219" y="1739"/>
      <point x="157" y="1685"/>
    </contour>
    <contour>
      <point x="657" y="1613" type="curve" smooth="yes"/>
      <point x="657" y="1544"/>
      <point x="718" y="1485"/>
      <point x="801" y="1485" type="curve" smooth="yes"/>
      <point x="886" y="1485"/>
      <point x="945" y="1543"/>
      <point x="945" y="1614" type="curve" smooth="yes"/>
      <point x="945" y="1685"/>
      <point x="886" y="1739"/>
      <point x="801" y="1739" type="curve" smooth="yes"/>
      <point x="718" y="1739"/>
      <point x="657" y="1685"/>
    </contour>
  </outline>
</glyph>
<glyph name="Igrave" format="2">
  <advance width="630"/>
  <unicode hex="00CC"/>
  <note>
uni00CC
</note>
  <outline>
    <contour>
      <point x="590" y="1404" type="line"/>
      <point x="251" y="1404" type="line"/>
      <point x="251" y="0" type="line"/>
      <point x="590" y="0" type="line"/>
    </contour>
    <contour>
      <point x="384" y="1778" type="line"/>
      <point x="40" y="1778" type="line"/>
      <point x="313" y="1475" type="line"/>
      <point x="576" y="1475" type="line"/>
    </contour>
  </outline>
</glyph>
<glyph name="Iacute" format="2">
  <advance width="630"/>
  <unicode hex="00CD"/>
  <note>
uni00CD
</note>
  <outline>
    <contour>
      <point x="378" y="1404" type="line"/>
      <point x="40" y="1404" type="line"/>
      <point x="40" y="0" type="line"/>
      <point x="378" y="0" type="line"/>
    </contour>
    <contour>
      <point x="60" y="1475" type="line"/>
      <point x="324" y="1475" type="line"/>
      <point x="590" y="1778" type="line"/>
      <point x="249" y="1778" type="line"/>
    </contour>
  </outline>
</glyph>
<glyph name="Icircumflex" format="2">
  <advance width="893"/>
  <unicode hex="00CE"/>
  <note>
uni00CE
</note>
  <outline>
    <contour>
      <point x="612" y="1404" type="line"/>
      <point x="274" y="1404" type="line"/>
      <point x="274" y="0" type="line"/>
      <point x="612" y="0" type="line"/>
    </contour>
    <contour>
      <point x="535" y="1778" type="line"/>
      <point x="351" y="1778" type="line"/>
      <point x="40" y="1511" type="line"/>
      <point x="40" y="1494" type="line"/>
      <point x="290" y="1494" type="line"/>
      <point x="444" y="1625" type="line"/>
      <point x="597" y="1494" type="line"/>
      <point x="853" y="1494" type="line"/>
      <point x="853" y="1507" type="line"/>
    </contour>
  </outline>
</glyph>
<glyph name="Idieresis" format="2">
  <advance width="871"/>
  <unicode hex="00CF"/>
  <note>
uni00CF
</note>
  <outline>
    <contour>
      <point x="605" y="1404" type="line"/>
      <point x="268" y="1404" type="line"/>
      <point x="268" y="0" type="line"/>
      <point x="605" y="0" type="line"/>
    </contour>
    <contour>
      <point x="40" y="1613" type="curve" smooth="yes"/>
      <point x="40" y="1544"/>
      <point x="103" y="1485"/>
      <point x="185" y="1485" type="curve" smooth="yes"/>
      <point x="268" y="1485"/>
      <point x="330" y="1543"/>
      <point x="330" y="1614" type="curve" smooth="yes"/>
      <point x="330" y="1685"/>
      <point x="268" y="1739"/>
      <point x="185" y="1739" type="curve" smooth="yes"/>
      <point x="103" y="1739"/>
      <point x="40" y="1685"/>
    </contour>
    <contour>
      <point x="541" y="1613" type="curve" smooth="yes"/>
      <point x="541" y="1544"/>
      <point x="603" y="1485"/>
      <point x="686" y="1485" type="curve" smooth="yes"/>
      <point x="768" y="1485"/>
      <point x="831" y="1543"/>
      <point x="831" y="1614" type="curve" smooth="yes"/>
      <point x="831" y="1685"/>
      <point x="768" y="1739"/>
      <point x="686" y="1739" type="curve" smooth="yes"/>
      <point x="603" y="1739"/>
      <point x="541" y="1685"/>
    </contour>
  </outline>
</glyph>
<glyph name="Eth" format="2">
  <advance width="1347"/>
  <unicode hex="00D0"/>
  <note>
uni00D0
</note>
  <outline>
    <contour>
      <point x="664" y="0" type="line"/>
      <point x="907" y="0"/>
      <point x="1114" y="123"/>
      <point x="1224" y="326" type="curve" smooth="yes"/>
      <point x="1279" y="427"/>
      <point x="1307" y="542"/>
      <point x="1307" y="671" type="curve" smooth="yes"/>
      <point x="1307" y="737" type="line" smooth="yes"/>
      <point x="1302" y="1128"/>
      <point x="1034" y="1404"/>
      <point x="655" y="1404" type="curve" smooth="yes"/>
      <point x="204" y="1404" type="line"/>
      <point x="204" y="795" type="line"/>
      <point x="40" y="795" type="line"/>
      <point x="40" y="611" type="line"/>
      <point x="204" y="611" type="line"/>
      <point x="204" y="0" type="line"/>
    </contour>
    <contour>
      <point x="743" y="795" type="line"/>
      <point x="543" y="795" type="line"/>
      <point x="543" y="1140" type="line"/>
      <point x="655" y="1140" type="line" smooth="yes"/>
      <point x="853" y="1140"/>
      <point x="960" y="1002"/>
      <point x="960" y="733" type="curve" smooth="yes"/>
      <point x="960" y="671" type="line" smooth="yes"/>
      <point x="960" y="398"/>
      <point x="852" y="260"/>
      <point x="660" y="260" type="curve" smooth="yes"/>
      <point x="543" y="260" type="line"/>
      <point x="543" y="611" type="line"/>
      <point x="743" y="611" type="line"/>
    </contour>
  </outline>
</glyph>
<glyph name="Ntilde" format="2">
  <advance width="1249"/>
  <unicode hex="00D1"/>
  <note>
uni00D1
</note>
  <outline>
    <contour>
      <point x="1209" y="1404" type="line"/>
      <point x="874" y="1404" type="line"/>
      <point x="874" y="529" type="line"/>
      <point x="378" y="1404" type="line"/>
      <point x="40" y="1404" type="line"/>
      <point x="40" y="0" type="line"/>
      <point x="378" y="0" type="line"/>
      <point x="378" y="875" type="line"/>
      <point x="874" y="0" type="line"/>
      <point x="1209" y="0" type="line"/>
    </contour>
    <contour>
      <point x="826" y="1780" type="line"/>
      <point x="826" y="1719"/>
      <point x="791" y="1694"/>
      <point x="752" y="1694" type="curve" smooth="yes"/>
      <point x="703" y="1694"/>
      <point x="677" y="1707"/>
      <point x="609" y="1738" type="curve" smooth="yes"/>
      <point x="557" y="1761"/>
      <point x="514" y="1773"/>
      <point x="481" y="1773" type="curve" smooth="yes"/>
      <point x="356" y="1773"/>
      <point x="261" y="1653"/>
      <point x="261" y="1509" type="curve"/>
      <point x="440" y="1500" type="line"/>
      <point x="440" y="1561"/>
      <point x="473" y="1586"/>
      <point x="515" y="1586" type="curve" smooth="yes"/>
      <point x="547" y="1586"/>
      <point x="589" y="1573"/>
      <point x="642" y="1546" type="curve" smooth="yes"/>
      <point x="694" y="1518"/>
      <point x="741" y="1505"/>
      <point x="781" y="1505" type="curve" smooth="yes"/>
      <point x="907" y="1505"/>
      <point x="1003" y="1620"/>
      <point x="1003" y="1771" type="curve"/>
    </contour>
  </outline>
</glyph>
<glyph name="Otilde" format="2">
  <advance width="1306"/>
  <unicode hex="00D5"/>
  <note>
uni00D5
</note>
  <outline>
    <contour>
      <point x="1266" y="712" type="line"/>
      <point x="1266" y="1121"/>
      <point x="1015" y="1397"/>
      <point x="653" y="1397" type="curve" smooth="yes"/>
      <point x="290" y="1397"/>
      <point x="40" y="1131"/>
      <point x="40" y="703" type="curve" smooth="yes"/>
      <point x="40" y="624" type="line" smooth="yes"/>
      <point x="49" y="218"/>
      <point x="289" y="-45"/>
      <point x="655" y="-45" type="curve" smooth="yes"/>
      <point x="1024" y="-45"/>
      <point x="1266" y="226"/>
      <point x="1266" y="647" type="curve" smooth="yes"/>
    </contour>
    <contour>
      <point x="924" y="640" type="line"/>
      <point x="924" y="366"/>
      <point x="827" y="219"/>
      <point x="655" y="219" type="curve" smooth="yes"/>
      <point x="475" y="219"/>
      <point x="385" y="371"/>
      <point x="385" y="647" type="curve" smooth="yes"/>
      <point x="385" y="750" type="line" smooth="yes"/>
      <point x="396" y="1004"/>
      <point x="485" y="1131"/>
      <point x="653" y="1131" type="curve" smooth="yes"/>
      <point x="827" y="1131"/>
      <point x="924" y="985"/>
      <point x="924" y="705" type="curve" smooth="yes"/>
    </contour>
    <contour>
      <point x="844" y="1755" type="line"/>
      <point x="844" y="1695"/>
      <point x="810" y="1668"/>
      <point x="767" y="1668" type="curve" smooth="yes"/>
      <point x="723" y="1668"/>
      <point x="697" y="1680"/>
      <point x="626" y="1711" type="curve" smooth="yes"/>
      <point x="574" y="1735"/>
      <point x="532" y="1746"/>
      <point x="502" y="1746" type="curve" smooth="yes"/>
      <point x="376" y="1746"/>
      <point x="279" y="1629"/>
      <point x="279" y="1485" type="curve"/>
      <point x="459" y="1475" type="line"/>
      <point x="459" y="1532"/>
      <point x="492" y="1561"/>
      <point x="531" y="1561" type="curve" smooth="yes"/>
      <point x="564" y="1561"/>
      <point x="607" y="1548"/>
      <point x="660" y="1520" type="curve" smooth="yes"/>
      <point x="712" y="1494"/>
      <point x="759" y="1481"/>
      <point x="799" y="1481" type="curve" smooth="yes"/>
      <point x="929" y="1481"/>
      <point x="1023" y="1596"/>
      <point x="1023" y="1744" type="curve"/>
    </contour>
  </outline>
</glyph>
<glyph name="Odieresis" format="2">
  <advance width="1306"/>
  <unicode hex="00D6"/>
  <note>
uni00D6
</note>
  <outline>
    <contour>
      <point x="1266" y="712" type="line"/>
      <point x="1266" y="1121"/>
      <point x="1015" y="1397"/>
      <point x="653" y="1397" type="curve" smooth="yes"/>
      <point x="290" y="1397"/>
      <point x="40" y="1131"/>
      <point x="40" y="703" type="curve" smooth="yes"/>
      <point x="40" y="624" type="line" smooth="yes"/>
      <point x="49" y="218"/>
      <point x="289" y="-45"/>
      <point x="655" y="-45" type="curve" smooth="yes"/>
      <point x="1024" y="-45"/>
      <point x="1266" y="226"/>
      <point x="1266" y="647" type="curve" smooth="yes"/>
    </contour>
    <contour>
      <point x="924" y="640" type="line"/>
      <point x="924" y="366"/>
      <point x="827" y="219"/>
      <point x="655" y="219" type="curve" smooth="yes"/>
      <point x="475" y="219"/>
      <point x="385" y="371"/>
      <point x="385" y="647" type="curve" smooth="yes"/>
      <point x="385" y="750" type="line" smooth="yes"/>
      <point x="396" y="1004"/>
      <point x="485" y="1131"/>
      <point x="653" y="1131" type="curve" smooth="yes"/>
      <point x="827" y="1131"/>
      <point x="924" y="985"/>
      <point x="924" y="705" type="curve" smooth="yes"/>
    </contour>
    <contour>
      <point x="254" y="1588" type="curve" smooth="yes"/>
      <point x="254" y="1516"/>
      <point x="320" y="1460"/>
      <point x="401" y="1460" type="curve" smooth="yes"/>
      <point x="481" y="1460"/>
      <point x="547" y="1517"/>
      <point x="547" y="1587" type="curve" smooth="yes"/>
      <point x="547" y="1658"/>
      <point x="481" y="1715"/>
      <point x="401" y="1715" type="curve" smooth="yes"/>
      <point x="320" y="1715"/>
      <point x="254" y="1658"/>
    </contour>
    <contour>
      <point x="754" y="1588" type="curve" smooth="yes"/>
      <point x="754" y="1516"/>
      <point x="820" y="1460"/>
      <point x="901" y="1460" type="curve" smooth="yes"/>
      <point x="982" y="1460"/>
      <point x="1047" y="1517"/>
      <point x="1047" y="1587" type="curve" smooth="yes"/>
      <point x="1047" y="1658"/>
      <point x="982" y="1715"/>
      <point x="901" y="1715" type="curve" smooth="yes"/>
      <point x="820" y="1715"/>
      <point x="754" y="1658"/>
    </contour>
  </outline>
</glyph>
<glyph name="Oslash" format="2">
  <advance width="1306"/>
  <unicode hex="00D8"/>
  <note>
uni00D8
</note>
  <outline>
    <contour>
      <point x="1266" y="600" type="line"/>
      <point x="1266" y="829"/>
      <point x="1201" y="1008"/>
      <point x="1072" y="1135" type="curve"/>
      <point x="1189" y="1339" type="line"/>
      <point x="986" y="1339" type="line"/>
      <point x="928" y="1236" type="line"/>
      <point x="846" y="1279"/>
      <point x="753" y="1300"/>
      <point x="653" y="1300" type="curve" smooth="yes"/>
      <point x="290" y="1300"/>
      <point x="40" y="1034"/>
      <point x="40" y="606" type="curve" smooth="yes"/>
      <point x="40" y="557" type="line" smooth="yes"/>
      <point x="40" y="328"/>
      <point x="104" y="151"/>
      <point x="232" y="22" type="curve"/>
      <point x="96" y="-214" type="line"/>
      <point x="297" y="-214" type="line"/>
      <point x="374" y="-79" type="line"/>
      <point x="457" y="-121"/>
      <point x="552" y="-142"/>
      <point x="655" y="-142" type="curve" smooth="yes"/>
      <point x="1015" y="-142"/>
      <point x="1266" y="124"/>
      <point x="1266" y="550" type="curve" smooth="yes"/>
    </contour>
    <contour>
      <point x="924" y="543" type="line"/>
      <point x="920" y="270"/>
      <point x="827" y="122"/>
      <point x="655" y="122" type="curve" smooth="yes"/>
      <point x="600" y="122"/>
      <point x="552" y="136"/>
      <point x="513" y="165" type="curve"/>
      <point x="894" y="829" type="line"/>
      <point x="914" y="768"/>
      <point x="924" y="694"/>
      <point x="924" y="608" type="curve" smooth="yes"/>
    </contour>
    <contour>
      <point x="385" y="615" type="line"/>
      <point x="385" y="889"/>
      <point x="473" y="1034"/>
      <point x="653" y="1034" type="curve" smooth="yes"/>
      <point x="704" y="1034"/>
      <point x="749" y="1021"/>
      <point x="788" y="993" type="curve"/>
      <point x="410" y="331" type="line"/>
      <point x="393" y="392"/>
      <point x="385" y="464"/>
      <point x="385" y="550" type="curve" smooth="yes"/>
    </contour>
  </outline>
</glyph>
<glyph name="Ucircumflex" format="2">
  <advance width="1183"/>
  <unicode hex="00DB"/>
  <note>
uni00DB
</note>
  <outline>
    <contour>
      <point x="805" y="1376" type="line"/>
      <point x="805" y="462" type="line" smooth="yes"/>
      <point x="805" y="285"/>
      <point x="733" y="215"/>
      <point x="592" y="215" type="curve" smooth="yes"/>
      <point x="453" y="215"/>
      <point x="383" y="292"/>
      <point x="380" y="447" type="curve" smooth="yes"/>
      <point x="380" y="1376" type="line"/>
      <point x="40" y="1376" type="line"/>
      <point x="40" y="451" type="line" smooth="yes"/>
      <point x="43" y="144"/>
      <point x="252" y="-45"/>
      <point x="592" y="-45" type="curve" smooth="yes"/>
      <point x="935" y="-45"/>
      <point x="1143" y="141"/>
      <point x="1143" y="460" type="curve" smooth="yes"/>
      <point x="1143" y="1376" type="line"/>
    </contour>
    <contour>
      <point x="680" y="1752" type="line"/>
      <point x="495" y="1752" type="line"/>
      <point x="184" y="1485" type="line"/>
      <point x="184" y="1469" type="line"/>
      <point x="434" y="1469" type="line"/>
      <point x="590" y="1599" type="line"/>
      <point x="741" y="1469" type="line"/>
      <point x="997" y="1469" type="line"/>
      <point x="997" y="1481" type="line"/>
    </contour>
  </outline>
</glyph>
<glyph name="Udieresis" format="2">
  <advance width="1183"/>
  <unicode hex="00DC"/>
  <note>
uni00DC
</note>
  <outline>
    <contour>
      <point x="805" y="1376" type="line"/>
      <point x="805" y="462" type="line" smooth="yes"/>
      <point x="805" y="285"/>
      <point x="733" y="215"/>
      <point x="592" y="215" type="curve" smooth="yes"/>
      <point x="453" y="215"/>
      <point x="383" y="292"/>
      <point x="380" y="447" type="curve" smooth="yes"/>
      <point x="380" y="1376" type="line"/>
      <point x="40" y="1376" type="line"/>
      <point x="40" y="451" type="line" smooth="yes"/>
      <point x="43" y="144"/>
      <point x="252" y="-45"/>
      <point x="592" y="-45" type="curve" smooth="yes"/>
      <point x="935" y="-45"/>
      <point x="1143" y="141"/>
      <point x="1143" y="460" type="curve" smooth="yes"/>
      <point x="1143" y="1376" type="line"/>
    </contour>
    <contour>
      <point x="191" y="1588" type="curve" smooth="yes"/>
      <point x="191" y="1516"/>
      <point x="253" y="1460"/>
      <point x="336" y="1460" type="curve" smooth="yes"/>
      <point x="418" y="1460"/>
      <point x="481" y="1517"/>
      <point x="481" y="1587" type="curve" smooth="yes"/>
      <point x="481" y="1658"/>
      <point x="418" y="1715"/>
      <point x="336" y="1715" type="curve" smooth="yes"/>
      <point x="253" y="1715"/>
      <point x="191" y="1658"/>
    </contour>
    <contour>
      <point x="691" y="1588" type="curve" smooth="yes"/>
      <point x="691" y="1516"/>
      <point x="754" y="1460"/>
      <point x="836" y="1460" type="curve" smooth="yes"/>
      <point x="919" y="1460"/>
      <point x="981" y="1517"/>
      <point x="981" y="1587" type="curve" smooth="yes"/>
      <point x="981" y="1658"/>
      <point x="919" y="1715"/>
      <point x="836" y="1715" type="curve" smooth="yes"/>
      <point x="754" y="1715"/>
      <point x="691" y="1658"/>
    </contour>
  </outline>
</glyph>
<glyph name="Yacute" format="2">
  <advance width="1323"/>
  <unicode hex="00DD"/>
  <note>
uni00DD
</note>
  <outline>
    <contour>
      <point x="403" y="1404" type="line"/>
      <point x="40" y="1404" type="line"/>
      <point x="491" y="505" type="line"/>
      <point x="491" y="0" type="line"/>
      <point x="833" y="0" type="line"/>
      <point x="833" y="505" type="line"/>
      <point x="1283" y="1404" type="line"/>
      <point x="921" y="1404" type="line"/>
      <point x="661" y="793" type="line"/>
    </contour>
    <contour>
      <point x="515" y="1475" type="line"/>
      <point x="779" y="1475" type="line"/>
      <point x="1046" y="1778" type="line"/>
      <point x="704" y="1778" type="line"/>
    </contour>
  </outline>
</glyph>
<glyph name="Thorn" format="2">
  <advance width="1136"/>
  <unicode hex="00DE"/>
  <note>
uni00DE
</note>
  <outline>
    <contour>
      <point x="40" y="1404" type="line"/>
      <point x="40" y="0" type="line"/>
      <point x="367" y="0" type="line"/>
      <point x="367" y="268" type="line"/>
      <point x="563" y="268" type="line" smooth="yes"/>
      <point x="893" y="271"/>
      <point x="1096" y="441"/>
      <point x="1096" y="712" type="curve" smooth="yes"/>
      <point x="1096" y="970"/>
      <point x="905" y="1154"/>
      <point x="563" y="1154" type="curve" smooth="yes"/>
      <point x="367" y="1154" type="line"/>
      <point x="367" y="1404" type="line"/>
    </contour>
    <contour>
      <point x="560" y="903" type="line"/>
      <point x="689" y="903"/>
      <point x="769" y="829"/>
      <point x="769" y="710" type="curve" smooth="yes"/>
      <point x="769" y="590"/>
      <point x="690" y="518"/>
      <point x="558" y="518" type="curve" smooth="yes"/>
      <point x="367" y="518" type="line"/>
      <point x="367" y="903" type="line"/>
    </contour>
  </outline>
</glyph>
<glyph name="germandbls" format="2">
  <advance width="1175"/>
  <unicode hex="00DF"/>
  <note>
uni00DF
</note>
  <outline>
    <contour>
      <point x="367" y="1027" type="line"/>
      <point x="367" y="1159"/>
      <point x="407" y="1228"/>
      <point x="500" y="1228" type="curve" smooth="yes"/>
      <point x="578" y="1228"/>
      <point x="635" y="1173"/>
      <point x="635" y="1097" type="curve" smooth="yes"/>
      <point x="635" y="1046"/>
      <point x="620" y="993"/>
      <point x="590" y="939" type="curve" smooth="yes"/>
      <point x="559" y="886"/>
      <point x="545" y="826"/>
      <point x="545" y="761" type="curve" smooth="yes"/>
      <point x="545" y="666"/>
      <point x="581" y="590"/>
      <point x="686" y="502" type="curve" smooth="yes"/>
      <point x="772" y="427"/>
      <point x="810" y="385"/>
      <point x="810" y="327" type="curve" smooth="yes"/>
      <point x="810" y="249"/>
      <point x="756" y="205"/>
      <point x="678" y="205" type="curve" smooth="yes"/>
      <point x="597" y="205"/>
      <point x="529" y="219"/>
      <point x="473" y="248" type="curve"/>
      <point x="416" y="4" type="line"/>
      <point x="474" y="-29"/>
      <point x="579" y="-45"/>
      <point x="675" y="-45" type="curve" smooth="yes"/>
      <point x="970" y="-45"/>
      <point x="1135" y="89"/>
      <point x="1135" y="329" type="curve" smooth="yes"/>
      <point x="1135" y="425"/>
      <point x="1090" y="517"/>
      <point x="997" y="606" type="curve" smooth="yes"/>
      <point x="943" y="659"/>
      <point x="908" y="695"/>
      <point x="893" y="716" type="curve" smooth="yes"/>
      <point x="877" y="737"/>
      <point x="870" y="758"/>
      <point x="870" y="780" type="curve" smooth="yes"/>
      <point x="870" y="834"/>
      <point x="884" y="886"/>
      <point x="915" y="934" type="curve" smooth="yes"/>
      <point x="944" y="982"/>
      <point x="960" y="1042"/>
      <point x="960" y="1111" type="curve" smooth="yes"/>
      <point x="960" y="1333"/>
      <point x="786" y="1475"/>
      <point x="533" y="1475" type="curve" smooth="yes"/>
      <point x="218" y="1475"/>
      <point x="40" y="1317"/>
      <point x="40" y="1034" type="curve" smooth="yes"/>
      <point x="40" y="-25" type="line"/>
      <point x="367" y="-25" type="line"/>
    </contour>
  </outline>
</glyph>
<glyph name="atilde" format="2">
  <advance width="1040"/>
  <unicode hex="00E3"/>
  <note>
uni00E3
</note>
  <outline>
    <contour>
      <point x="1000" y="-25" type="line"/>
      <point x="1000" y="-9" type="line"/>
      <point x="971" y="41"/>
      <point x="957" y="114"/>
      <point x="955" y="212" type="curve" smooth="yes"/>
      <point x="955" y="671" type="line" smooth="yes"/>
      <point x="952" y="900"/>
      <point x="790" y="1034"/>
      <point x="522" y="1034" type="curve" smooth="yes"/>
      <point x="255" y="1034"/>
      <point x="65" y="898"/>
      <point x="65" y="696" type="curve"/>
      <point x="389" y="696" type="line"/>
      <point x="389" y="771"/>
      <point x="428" y="809"/>
      <point x="505" y="809" type="curve" smooth="yes"/>
      <point x="588" y="809"/>
      <point x="630" y="761"/>
      <point x="630" y="667" type="curve" smooth="yes"/>
      <point x="630" y="611" type="line"/>
      <point x="529" y="611" type="line" smooth="yes"/>
      <point x="211" y="611"/>
      <point x="40" y="494"/>
      <point x="40" y="268" type="curve" smooth="yes"/>
      <point x="40" y="88"/>
      <point x="199" y="-45"/>
      <point x="394" y="-45" type="curve" smooth="yes"/>
      <point x="500" y="-45"/>
      <point x="584" y="-8"/>
      <point x="644" y="67" type="curve"/>
      <point x="653" y="28"/>
      <point x="664" y="-3"/>
      <point x="675" y="-25" type="curve"/>
    </contour>
    <contour>
      <point x="473" y="185" type="curve" smooth="yes"/>
      <point x="410" y="185"/>
      <point x="367" y="226"/>
      <point x="367" y="286" type="curve" smooth="yes"/>
      <point x="367" y="387"/>
      <point x="422" y="437"/>
      <point x="533" y="437" type="curve" smooth="yes"/>
      <point x="630" y="437" type="line"/>
      <point x="630" y="271" type="line"/>
      <point x="607" y="229"/>
      <point x="551" y="185"/>
    </contour>
    <contour>
      <point x="705" y="1458" type="line"/>
      <point x="705" y="1397"/>
      <point x="671" y="1370"/>
      <point x="628" y="1370" type="curve" smooth="yes"/>
      <point x="528" y="1370"/>
      <point x="463" y="1449"/>
      <point x="361" y="1449" type="curve" smooth="yes"/>
      <point x="237" y="1449"/>
      <point x="137" y="1329"/>
      <point x="137" y="1187" type="curve"/>
      <point x="318" y="1178" type="line"/>
      <point x="318" y="1235"/>
      <point x="353" y="1264"/>
      <point x="391" y="1264" type="curve" smooth="yes"/>
      <point x="424" y="1264"/>
      <point x="467" y="1251"/>
      <point x="519" y="1223" type="curve" smooth="yes"/>
      <point x="571" y="1196"/>
      <point x="618" y="1183"/>
      <point x="660" y="1183" type="curve" smooth="yes"/>
      <point x="786" y="1183"/>
      <point x="883" y="1299"/>
      <point x="883" y="1447" type="curve"/>
    </contour>
  </outline>
</glyph>
<glyph name="aring" format="2">
  <advance width="1040"/>
  <unicode hex="00E5"/>
  <note>
uni00E5
</note>
  <outline>
    <contour>
      <point x="1000" y="-25" type="line"/>
      <point x="1000" y="-9" type="line"/>
      <point x="971" y="41"/>
      <point x="957" y="114"/>
      <point x="955" y="212" type="curve" smooth="yes"/>
      <point x="955" y="671" type="line" smooth="yes"/>
      <point x="952" y="900"/>
      <point x="790" y="1034"/>
      <point x="522" y="1034" type="curve" smooth="yes"/>
      <point x="255" y="1034"/>
      <point x="65" y="898"/>
      <point x="65" y="696" type="curve"/>
      <point x="389" y="696" type="line"/>
      <point x="389" y="771"/>
      <point x="428" y="809"/>
      <point x="505" y="809" type="curve" smooth="yes"/>
      <point x="588" y="809"/>
      <point x="630" y="761"/>
      <point x="630" y="667" type="curve" smooth="yes"/>
      <point x="630" y="611" type="line"/>
      <point x="529" y="611" type="line" smooth="yes"/>
      <point x="211" y="611"/>
      <point x="40" y="494"/>
      <point x="40" y="268" type="curve" smooth="yes"/>
      <point x="40" y="88"/>
      <point x="199" y="-45"/>
      <point x="394" y="-45" type="curve" smooth="yes"/>
      <point x="500" y="-45"/>
      <point x="584" y="-8"/>
      <point x="644" y="67" type="curve"/>
      <point x="653" y="28"/>
      <point x="664" y="-3"/>
      <point x="675" y="-25" type="curve"/>
    </contour>
    <contour>
      <point x="473" y="185" type="curve" smooth="yes"/>
      <point x="410" y="185"/>
      <point x="367" y="226"/>
      <point x="367" y="286" type="curve" smooth="yes"/>
      <point x="367" y="387"/>
      <point x="422" y="437"/>
      <point x="533" y="437" type="curve" smooth="yes"/>
      <point x="630" y="437" type="line"/>
      <point x="630" y="271" type="line"/>
      <point x="607" y="229"/>
      <point x="551" y="185"/>
    </contour>
    <contour>
      <point x="297" y="1341" type="curve" smooth="yes"/>
      <point x="297" y="1232"/>
      <point x="389" y="1148"/>
      <point x="516" y="1148" type="curve" smooth="yes"/>
      <point x="636" y="1148"/>
      <point x="730" y="1232"/>
      <point x="730" y="1341" type="curve" smooth="yes"/>
      <point x="730" y="1452"/>
      <point x="633" y="1537"/>
      <point x="516" y="1537" type="curve" smooth="yes"/>
      <point x="392" y="1537"/>
      <point x="297" y="1452"/>
    </contour>
    <contour>
      <point x="516" y="1239" type="curve" smooth="yes"/>
      <point x="379" y="1239"/>
      <point x="379" y="1444"/>
      <point x="516" y="1444" type="curve" smooth="yes"/>
      <point x="644" y="1444"/>
      <point x="647" y="1239"/>
    </contour>
  </outline>
</glyph>
<glyph name="ae" format="2">
  <advance width="1643"/>
  <unicode hex="00E6"/>
  <note>
uni00E6
</note>
  <outline>
    <contour>
      <point x="1173" y="-45" type="curve" smooth="yes"/>
      <point x="1320" y="-45"/>
      <point x="1482" y="3"/>
      <point x="1570" y="73" type="curve"/>
      <point x="1491" y="271" type="line"/>
      <point x="1433" y="243" type="line" smooth="yes"/>
      <point x="1371" y="218"/>
      <point x="1299" y="205"/>
      <point x="1218" y="205" type="curve" smooth="yes"/>
      <point x="1086" y="205"/>
      <point x="1007" y="268"/>
      <point x="988" y="392" type="curve"/>
      <point x="1603" y="392" type="line"/>
      <point x="1603" y="561" type="line" smooth="yes"/>
      <point x="1603" y="853"/>
      <point x="1435" y="1034"/>
      <point x="1164" y="1034" type="curve" smooth="yes"/>
      <point x="1038" y="1035"/>
      <point x="935" y="1007"/>
      <point x="855" y="946" type="curve"/>
      <point x="779" y="1004"/>
      <point x="676" y="1034"/>
      <point x="547" y="1034" type="curve" smooth="yes"/>
      <point x="264" y="1034"/>
      <point x="76" y="898"/>
      <point x="76" y="705" type="curve"/>
      <point x="401" y="688" type="line"/>
      <point x="401" y="741"/>
      <point x="448" y="784"/>
      <point x="545" y="784" type="curve" smooth="yes"/>
      <point x="625" y="784"/>
      <point x="670" y="733"/>
      <point x="670" y="649" type="curve" smooth="yes"/>
      <point x="670" y="606" type="line"/>
      <point x="533" y="606" type="line" smooth="yes"/>
      <point x="209" y="603"/>
      <point x="40" y="487"/>
      <point x="40" y="286" type="curve" smooth="yes"/>
      <point x="40" y="79"/>
      <point x="190" y="-45"/>
      <point x="448" y="-45" type="curve" smooth="yes"/>
      <point x="592" y="-45"/>
      <point x="721" y="-1"/>
      <point x="808" y="84" type="curve"/>
      <point x="898" y="-2"/>
      <point x="1020" y="-45"/>
    </contour>
    <contour>
      <point x="509" y="178" type="curve" smooth="yes"/>
      <point x="413" y="178"/>
      <point x="364" y="213"/>
      <point x="364" y="284" type="curve" smooth="yes"/>
      <point x="364" y="356"/>
      <point x="436" y="408"/>
      <point x="538" y="408" type="curve" smooth="yes"/>
      <point x="670" y="408" type="line"/>
      <point x="670" y="239" type="line"/>
      <point x="620" y="198"/>
      <point x="566" y="178"/>
    </contour>
    <contour>
      <point x="1164" y="784" type="curve" smooth="yes"/>
      <point x="1242" y="784"/>
      <point x="1285" y="724"/>
      <point x="1285" y="622" type="curve" smooth="yes"/>
      <point x="1285" y="595" type="line"/>
      <point x="988" y="595" type="line"/>
      <point x="1007" y="724"/>
      <point x="1056" y="784"/>
    </contour>
  </outline>
</glyph>
<glyph name="ccedilla" format="2">
  <advance width="1008"/>
  <unicode hex="00E7"/>
  <note>
uni00E7
</note>
  <outline>
    <contour>
      <point x="519" y="220" type="curve" smooth="yes"/>
      <point x="415" y="220"/>
      <point x="364" y="289"/>
      <point x="364" y="497" type="curve" smooth="yes"/>
      <point x="364" y="557"/>
      <point x="367" y="604"/>
      <point x="371" y="639" type="curve" smooth="yes"/>
      <point x="384" y="747"/>
      <point x="434" y="801"/>
      <point x="517" y="801" type="curve" smooth="yes"/>
      <point x="607" y="801"/>
      <point x="664" y="740"/>
      <point x="664" y="633" type="curve"/>
      <point x="968" y="633" type="line"/>
      <point x="968" y="891"/>
      <point x="797" y="1052"/>
      <point x="526" y="1052" type="curve" smooth="yes"/>
      <point x="224" y="1052"/>
      <point x="40" y="844"/>
      <point x="40" y="521" type="curve" smooth="yes"/>
      <point x="40" y="508" type="line" smooth="yes"/>
      <point x="40" y="172"/>
      <point x="226" y="-30"/>
      <point x="528" y="-30" type="curve" smooth="yes"/>
      <point x="787" y="-30"/>
      <point x="968" y="131"/>
      <point x="968" y="362" type="curve"/>
      <point x="664" y="362" type="line"/>
      <point x="664" y="272"/>
      <point x="613" y="220"/>
    </contour>
    <contour>
      <point x="414" y="-1" type="line"/>
      <point x="384" y="-141" type="line"/>
      <point x="431" y="-145"/>
      <point x="464" y="-152"/>
      <point x="484" y="-162" type="curve" smooth="yes"/>
      <point x="505" y="-172"/>
      <point x="515" y="-188"/>
      <point x="515" y="-210" type="curve" smooth="yes"/>
      <point x="515" y="-260"/>
      <point x="486" y="-285"/>
      <point x="429" y="-285" type="curve"/>
      <point x="436" y="-465" type="line"/>
      <point x="661" y="-465"/>
      <point x="797" y="-376"/>
      <point x="797" y="-227" type="curve" smooth="yes"/>
      <point x="797" y="-133"/>
      <point x="748" y="-77"/>
      <point x="653" y="-59" type="curve"/>
      <point x="661" y="-1" type="line"/>
    </contour>
  </outline>
</glyph>
<glyph name="egrave" format="2">
  <advance width="1055"/>
  <unicode hex="00E8"/>
  <note>
uni00E8
</note>
  <outline>
    <contour>
      <point x="575" y="-45" type="curve" smooth="yes"/>
      <point x="747" y="-45"/>
      <point x="908" y="26"/>
      <point x="986" y="138" type="curve"/>
      <point x="839" y="314" type="line"/>
      <point x="781" y="241"/>
      <point x="701" y="205"/>
      <point x="598" y="205" type="curve" smooth="yes"/>
      <point x="472" y="205"/>
      <point x="392" y="275"/>
      <point x="371" y="392" type="curve"/>
      <point x="1015" y="392" type="line"/>
      <point x="1015" y="520" type="line" smooth="yes"/>
      <point x="1015" y="845"/>
      <point x="833" y="1034"/>
      <point x="542" y="1034" type="curve" smooth="yes"/>
      <point x="220" y="1034"/>
      <point x="40" y="816"/>
      <point x="40" y="498" type="curve" smooth="yes"/>
      <point x="40" y="471" type="line" smooth="yes"/>
      <point x="40" y="165"/>
      <point x="257" y="-45"/>
    </contour>
    <contour>
      <point x="540" y="784" type="curve" smooth="yes"/>
      <point x="641" y="784"/>
      <point x="701" y="724"/>
      <point x="697" y="622" type="curve" smooth="yes"/>
      <point x="697" y="595" type="line"/>
      <point x="371" y="595" type="line"/>
      <point x="388" y="721"/>
      <point x="446" y="784"/>
    </contour>
    <contour>
      <point x="457" y="1455" type="line"/>
      <point x="114" y="1455" type="line"/>
      <point x="384" y="1152" type="line"/>
      <point x="650" y="1152" type="line"/>
    </contour>
  </outline>
</glyph>
<glyph name="ecircumflex" format="2">
  <advance width="1055"/>
  <unicode hex="00EA"/>
  <note>
uni00EA
</note>
  <outline>
    <contour>
      <point x="575" y="-45" type="curve" smooth="yes"/>
      <point x="747" y="-45"/>
      <point x="908" y="26"/>
      <point x="986" y="138" type="curve"/>
      <point x="839" y="314" type="line"/>
      <point x="781" y="241"/>
      <point x="701" y="205"/>
      <point x="598" y="205" type="curve" smooth="yes"/>
      <point x="472" y="205"/>
      <point x="392" y="275"/>
      <point x="371" y="392" type="curve"/>
      <point x="1015" y="392" type="line"/>
      <point x="1015" y="520" type="line" smooth="yes"/>
      <point x="1015" y="845"/>
      <point x="833" y="1034"/>
      <point x="542" y="1034" type="curve" smooth="yes"/>
      <point x="220" y="1034"/>
      <point x="40" y="816"/>
      <point x="40" y="498" type="curve" smooth="yes"/>
      <point x="40" y="471" type="line" smooth="yes"/>
      <point x="40" y="165"/>
      <point x="257" y="-45"/>
    </contour>
    <contour>
      <point x="540" y="784" type="curve" smooth="yes"/>
      <point x="641" y="784"/>
      <point x="701" y="724"/>
      <point x="697" y="622" type="curve" smooth="yes"/>
      <point x="697" y="595" type="line"/>
      <point x="371" y="595" type="line"/>
      <point x="388" y="721"/>
      <point x="446" y="784"/>
    </contour>
    <contour>
      <point x="590" y="1455" type="line"/>
      <point x="400" y="1455" type="line"/>
      <point x="91" y="1187" type="line"/>
      <point x="91" y="1172" type="line"/>
      <point x="341" y="1172" type="line"/>
      <point x="495" y="1302" type="line"/>
      <point x="648" y="1172" type="line"/>
      <point x="902" y="1172" type="line"/>
      <point x="902" y="1183" type="line"/>
    </contour>
  </outline>
</glyph>
<glyph name="igrave" format="2">
  <advance width="623"/>
  <unicode hex="00EC"/>
  <note>
uni00EC
</note>
  <outline>
    <contour>
      <point x="583" y="1041" type="line"/>
      <point x="254" y="1041" type="line"/>
      <point x="254" y="0" type="line"/>
      <point x="583" y="0" type="line"/>
    </contour>
    <contour>
      <point x="385" y="1460" type="line"/>
      <point x="40" y="1460" type="line"/>
      <point x="313" y="1158" type="line"/>
      <point x="576" y="1158" type="line"/>
    </contour>
  </outline>
</glyph>
<glyph name="iacute" format="2">
  <advance width="630"/>
  <unicode hex="00ED"/>
  <note>
uni00ED
</note>
  <outline>
    <contour>
      <point x="367" y="1041" type="line"/>
      <point x="40" y="1041" type="line"/>
      <point x="40" y="0" type="line"/>
      <point x="367" y="0" type="line"/>
    </contour>
    <contour>
      <point x="55" y="1158" type="line"/>
      <point x="319" y="1158" type="line"/>
      <point x="590" y="1460" type="line"/>
      <point x="245" y="1460" type="line"/>
    </contour>
  </outline>
</glyph>
<glyph name="icircumflex" format="2">
  <advance width="893"/>
  <unicode hex="00EE"/>
  <note>
uni00EE
</note>
  <outline>
    <contour>
      <point x="605" y="1041" type="line"/>
      <point x="279" y="1041" type="line"/>
      <point x="279" y="0" type="line"/>
      <point x="605" y="0" type="line"/>
    </contour>
    <contour>
      <point x="535" y="1460" type="line"/>
      <point x="351" y="1460" type="line"/>
      <point x="40" y="1194" type="line"/>
      <point x="40" y="1176" type="line"/>
      <point x="290" y="1176" type="line"/>
      <point x="444" y="1307" type="line"/>
      <point x="597" y="1176" type="line"/>
      <point x="853" y="1176" type="line"/>
      <point x="853" y="1189" type="line"/>
    </contour>
  </outline>
</glyph>
<glyph name="idieresis" format="2">
  <advance width="871"/>
  <unicode hex="00EF"/>
  <note>
uni00EF
</note>
  <outline>
    <contour>
      <point x="599" y="1041" type="line"/>
      <point x="272" y="1041" type="line"/>
      <point x="272" y="0" type="line"/>
      <point x="599" y="0" type="line"/>
    </contour>
    <contour>
      <point x="40" y="1296" type="curve" smooth="yes"/>
      <point x="40" y="1223"/>
      <point x="103" y="1167"/>
      <point x="185" y="1167" type="curve" smooth="yes"/>
      <point x="268" y="1167"/>
      <point x="330" y="1223"/>
      <point x="330" y="1295" type="curve" smooth="yes"/>
      <point x="330" y="1365"/>
      <point x="268" y="1423"/>
      <point x="185" y="1423" type="curve" smooth="yes"/>
      <point x="103" y="1423"/>
      <point x="40" y="1364"/>
    </contour>
    <contour>
      <point x="541" y="1296" type="curve" smooth="yes"/>
      <point x="541" y="1223"/>
      <point x="603" y="1167"/>
      <point x="686" y="1167" type="curve" smooth="yes"/>
      <point x="768" y="1167"/>
      <point x="831" y="1223"/>
      <point x="831" y="1295" type="curve" smooth="yes"/>
      <point x="831" y="1365"/>
      <point x="768" y="1423"/>
      <point x="686" y="1423" type="curve" smooth="yes"/>
      <point x="603" y="1423"/>
      <point x="541" y="1364"/>
    </contour>
  </outline>
</glyph>
<glyph name="eth" format="2">
  <advance width="1100"/>
  <unicode hex="00F0"/>
  <note>
uni00F0
</note>
  <outline>
    <contour>
      <point x="930" y="1309" type="line"/>
      <point x="855" y="1421" type="line"/>
      <point x="700" y="1327" type="line"/>
      <point x="584" y="1408"/>
      <point x="450" y="1464"/>
      <point x="298" y="1494" type="curve"/>
      <point x="195" y="1260" type="line"/>
      <point x="282" y="1236"/>
      <point x="360" y="1203"/>
      <point x="429" y="1161" type="curve"/>
      <point x="298" y="1079" type="line"/>
      <point x="375" y="967" type="line"/>
      <point x="547" y="1073" type="line"/>
      <point x="616" y="1008"/>
      <point x="666" y="931"/>
      <point x="695" y="840" type="curve"/>
      <point x="630" y="881"/>
      <point x="558" y="901"/>
      <point x="476" y="901" type="curve" smooth="yes"/>
      <point x="200" y="901"/>
      <point x="40" y="723"/>
      <point x="40" y="426" type="curve" smooth="yes"/>
      <point x="40" y="160"/>
      <point x="245" y="-45"/>
      <point x="538" y="-45" type="curve" smooth="yes"/>
      <point x="733" y="-45"/>
      <point x="902" y="56"/>
      <point x="992" y="238" type="curve" smooth="yes"/>
      <point x="1037" y="329"/>
      <point x="1060" y="431"/>
      <point x="1060" y="546" type="curve" smooth="yes"/>
      <point x="1060" y="600" type="line" smooth="yes"/>
      <point x="1060" y="856"/>
      <point x="976" y="1068"/>
      <point x="807" y="1234" type="curve"/>
    </contour>
    <contour>
      <point x="542" y="205" type="curve" smooth="yes"/>
      <point x="433" y="205"/>
      <point x="366" y="294"/>
      <point x="366" y="426" type="curve" smooth="yes"/>
      <point x="366" y="573"/>
      <point x="420" y="667"/>
      <point x="547" y="667" type="curve" smooth="yes"/>
      <point x="629" y="667"/>
      <point x="691" y="646"/>
      <point x="734" y="604" type="curve"/>
      <point x="734" y="509" type="line" smooth="yes"/>
      <point x="734" y="317"/>
      <point x="662" y="205"/>
    </contour>
  </outline>
</glyph>
<glyph name="ntilde" format="2">
  <advance width="1020"/>
  <unicode hex="00F1"/>
  <note>
uni00F1
</note>
  <outline>
    <contour>
      <point x="40" y="1041" type="line"/>
      <point x="40" y="0" type="line"/>
      <point x="365" y="0" type="line"/>
      <point x="365" y="737" type="line"/>
      <point x="397" y="787"/>
      <point x="444" y="811"/>
      <point x="507" y="811" type="curve" smooth="yes"/>
      <point x="618" y="811"/>
      <point x="653" y="763"/>
      <point x="653" y="658" type="curve" smooth="yes"/>
      <point x="653" y="0" type="line"/>
      <point x="980" y="0" type="line"/>
      <point x="980" y="671" type="line" smooth="yes"/>
      <point x="973" y="933"/>
      <point x="870" y="1062"/>
      <point x="653" y="1062" type="curve" smooth="yes"/>
      <point x="525" y="1062"/>
      <point x="426" y="1014"/>
      <point x="356" y="920" type="curve"/>
      <point x="344" y="1041" type="line"/>
    </contour>
    <contour>
      <point x="705" y="1483" type="line"/>
      <point x="705" y="1422"/>
      <point x="671" y="1395"/>
      <point x="628" y="1395" type="curve" smooth="yes"/>
      <point x="525" y="1395"/>
      <point x="464" y="1475"/>
      <point x="360" y="1475" type="curve" smooth="yes"/>
      <point x="237" y="1475"/>
      <point x="137" y="1353"/>
      <point x="137" y="1212" type="curve"/>
      <point x="318" y="1203" type="line"/>
      <point x="318" y="1261"/>
      <point x="353" y="1288"/>
      <point x="391" y="1288" type="curve" smooth="yes"/>
      <point x="424" y="1288"/>
      <point x="467" y="1276"/>
      <point x="519" y="1250" type="curve" smooth="yes"/>
      <point x="571" y="1223"/>
      <point x="618" y="1210"/>
      <point x="660" y="1210" type="curve" smooth="yes"/>
      <point x="786" y="1210"/>
      <point x="883" y="1324"/>
      <point x="883" y="1471" type="curve"/>
    </contour>
  </outline>
</glyph>
<glyph name="ograve" format="2">
  <advance width="1087"/>
  <unicode hex="00F2"/>
  <note>
uni00F2
</note>
  <outline>
    <contour>
      <point x="40" y="449" type="line"/>
      <point x="56" y="147"/>
      <point x="247" y="-45"/>
      <point x="545" y="-45" type="curve" smooth="yes"/>
      <point x="851" y="-45"/>
      <point x="1047" y="160"/>
      <point x="1047" y="484" type="curve" smooth="yes"/>
      <point x="1047" y="496" type="line" smooth="yes"/>
      <point x="1047" y="829"/>
      <point x="855" y="1034"/>
      <point x="543" y="1034" type="curve" smooth="yes"/>
      <point x="222" y="1034"/>
      <point x="40" y="816"/>
      <point x="40" y="505" type="curve" smooth="yes"/>
    </contour>
    <contour>
      <point x="367" y="543" type="line"/>
      <point x="376" y="704"/>
      <point x="434" y="784"/>
      <point x="543" y="784" type="curve" smooth="yes"/>
      <point x="663" y="784"/>
      <point x="722" y="691"/>
      <point x="722" y="505" type="curve" smooth="yes"/>
      <point x="722" y="473" type="line" smooth="yes"/>
      <point x="720" y="295"/>
      <point x="661" y="205"/>
      <point x="545" y="205" type="curve" smooth="yes"/>
      <point x="424" y="205"/>
      <point x="365" y="293"/>
      <point x="365" y="484" type="curve" smooth="yes"/>
    </contour>
    <contour>
      <point x="507" y="1453" type="line"/>
      <point x="165" y="1453" type="line"/>
      <point x="436" y="1152" type="line"/>
      <point x="700" y="1152" type="line"/>
    </contour>
  </outline>
</glyph>
<glyph name="odieresis" format="2">
  <advance width="1087"/>
  <unicode hex="00F6"/>
  <note>
uni00F6
</note>
  <outline>
    <contour>
      <point x="40" y="449" type="line"/>
      <point x="56" y="147"/>
      <point x="247" y="-45"/>
      <point x="545" y="-45" type="curve" smooth="yes"/>
      <point x="851" y="-45"/>
      <point x="1047" y="160"/>
      <point x="1047" y="484" type="curve" smooth="yes"/>
      <point x="1047" y="496" type="line" smooth="yes"/>
      <point x="1047" y="829"/>
      <point x="855" y="1034"/>
      <point x="543" y="1034" type="curve" smooth="yes"/>
      <point x="222" y="1034"/>
      <point x="40" y="816"/>
      <point x="40" y="505" type="curve" smooth="yes"/>
    </contour>
    <contour>
      <point x="367" y="543" type="line"/>
      <point x="376" y="704"/>
      <point x="434" y="784"/>
      <point x="543" y="784" type="curve" smooth="yes"/>
      <point x="663" y="784"/>
      <point x="722" y="691"/>
      <point x="722" y="505" type="curve" smooth="yes"/>
      <point x="722" y="473" type="line" smooth="yes"/>
      <point x="720" y="295"/>
      <point x="661" y="205"/>
      <point x="545" y="205" type="curve" smooth="yes"/>
      <point x="424" y="205"/>
      <point x="365" y="293"/>
      <point x="365" y="484" type="curve" smooth="yes"/>
    </contour>
    <contour>
      <point x="148" y="1288" type="curve" smooth="yes"/>
      <point x="148" y="1220"/>
      <point x="211" y="1161"/>
      <point x="293" y="1161" type="curve" smooth="yes"/>
      <point x="376" y="1161"/>
      <point x="438" y="1219"/>
      <point x="438" y="1289" type="curve" smooth="yes"/>
      <point x="438" y="1361"/>
      <point x="376" y="1417"/>
      <point x="293" y="1417" type="curve" smooth="yes"/>
      <point x="211" y="1417"/>
      <point x="148" y="1361"/>
    </contour>
    <contour>
      <point x="649" y="1288" type="curve" smooth="yes"/>
      <point x="649" y="1220"/>
      <point x="711" y="1161"/>
      <point x="794" y="1161" type="curve" smooth="yes"/>
      <point x="876" y="1161"/>
      <point x="939" y="1219"/>
      <point x="939" y="1289" type="curve" smooth="yes"/>
      <point x="939" y="1361"/>
      <point x="876" y="1417"/>
      <point x="794" y="1417" type="curve" smooth="yes"/>
      <point x="711" y="1417"/>
      <point x="649" y="1361"/>
    </contour>
  </outline>
</glyph>
<glyph name="oslash" format="2">
  <advance width="1087"/>
  <unicode hex="00F8"/>
  <note>
uni00F8
</note>
  <outline>
    <contour>
      <point x="40" y="512" type="curve" smooth="yes"/>
      <point x="40" y="297"/>
      <point x="107" y="143"/>
      <point x="240" y="50" type="curve"/>
      <point x="139" y="-157" type="line"/>
      <point x="313" y="-157" type="line"/>
      <point x="380" y="-18" type="line"/>
      <point x="430" y="-30"/>
      <point x="485" y="-36"/>
      <point x="545" y="-36" type="curve" smooth="yes"/>
      <point x="851" y="-36"/>
      <point x="1047" y="166"/>
      <point x="1047" y="494" type="curve" smooth="yes"/>
      <point x="1047" y="704"/>
      <point x="982" y="856"/>
      <point x="851" y="950" type="curve"/>
      <point x="948" y="1156" type="line"/>
      <point x="779" y="1156" type="line"/>
      <point x="711" y="1019" type="line"/>
      <point x="658" y="1035"/>
      <point x="602" y="1043"/>
      <point x="543" y="1043" type="curve" smooth="yes"/>
      <point x="225" y="1043"/>
      <point x="40" y="828"/>
    </contour>
    <contour>
      <point x="367" y="552" type="line"/>
      <point x="376" y="713"/>
      <point x="434" y="793"/>
      <point x="543" y="793" type="curve" smooth="yes"/>
      <point x="564" y="793"/>
      <point x="581" y="790"/>
      <point x="597" y="784" type="curve"/>
      <point x="382" y="340" type="line"/>
      <point x="370" y="380"/>
      <point x="365" y="430"/>
      <point x="365" y="494" type="curve" smooth="yes"/>
    </contour>
    <contour>
      <point x="722" y="480" type="line"/>
      <point x="720" y="303"/>
      <point x="661" y="215"/>
      <point x="545" y="215" type="curve" smooth="yes"/>
      <point x="525" y="215"/>
      <point x="508" y="216"/>
      <point x="493" y="219" type="curve"/>
      <point x="705" y="656" type="line"/>
      <point x="717" y="615"/>
      <point x="722" y="567"/>
      <point x="722" y="512" type="curve" smooth="yes"/>
    </contour>
  </outline>
</glyph>
<glyph name="ugrave" format="2">
  <advance width="1020"/>
  <unicode hex="00F9"/>
  <note>
uni00F9
</note>
  <outline>
    <contour>
      <point x="675" y="-25" type="line"/>
      <point x="980" y="-25" type="line"/>
      <point x="980" y="1016" type="line"/>
      <point x="653" y="1016" type="line"/>
      <point x="653" y="286" type="line"/>
      <point x="621" y="232"/>
      <point x="569" y="205"/>
      <point x="496" y="205" type="curve" smooth="yes"/>
      <point x="408" y="205"/>
      <point x="365" y="250"/>
      <point x="365" y="340" type="curve" smooth="yes"/>
      <point x="365" y="1016" type="line"/>
      <point x="40" y="1016" type="line"/>
      <point x="40" y="342" type="line" smooth="yes"/>
      <point x="40" y="90"/>
      <point x="159" y="-45"/>
      <point x="387" y="-45" type="curve" smooth="yes"/>
      <point x="505" y="-45"/>
      <point x="597" y="-1"/>
      <point x="664" y="88" type="curve"/>
      <point x="675" y="-25" type="line"/>
    </contour>
    <contour>
      <point x="473" y="1453" type="line"/>
      <point x="128" y="1453" type="line"/>
      <point x="401" y="1152" type="line"/>
      <point x="664" y="1152" type="line"/>
    </contour>
  </outline>
</glyph>
<glyph name="uacute" format="2">
  <advance width="1020"/>
  <unicode hex="00FA"/>
  <note>
uni00FA
</note>
  <outline>
    <contour>
      <point x="675" y="-25" type="line"/>
      <point x="980" y="-25" type="line"/>
      <point x="980" y="1016" type="line"/>
      <point x="653" y="1016" type="line"/>
      <point x="653" y="286" type="line"/>
      <point x="621" y="232"/>
      <point x="569" y="205"/>
      <point x="496" y="205" type="curve" smooth="yes"/>
      <point x="408" y="205"/>
      <point x="365" y="250"/>
      <point x="365" y="340" type="curve" smooth="yes"/>
      <point x="365" y="1016" type="line"/>
      <point x="40" y="1016" type="line"/>
      <point x="40" y="342" type="line" smooth="yes"/>
      <point x="40" y="90"/>
      <point x="159" y="-45"/>
      <point x="387" y="-45" type="curve" smooth="yes"/>
      <point x="505" y="-45"/>
      <point x="597" y="-1"/>
      <point x="664" y="88" type="curve"/>
    </contour>
    <contour>
      <point x="360" y="1152" type="line"/>
      <point x="626" y="1152" type="line"/>
      <point x="894" y="1453" type="line"/>
      <point x="550" y="1453" type="line"/>
    </contour>
  </outline>
</glyph>
<glyph name="ucircumflex" format="2">
  <advance width="1020"/>
  <unicode hex="00FB"/>
  <note>
uni00FB
</note>
  <outline>
    <contour>
      <point x="675" y="-25" type="line"/>
      <point x="980" y="-25" type="line"/>
      <point x="980" y="1016" type="line"/>
      <point x="653" y="1016" type="line"/>
      <point x="653" y="286" type="line"/>
      <point x="621" y="232"/>
      <point x="569" y="205"/>
      <point x="496" y="205" type="curve" smooth="yes"/>
      <point x="408" y="205"/>
      <point x="365" y="250"/>
      <point x="365" y="340" type="curve" smooth="yes"/>
      <point x="365" y="1016" type="line"/>
      <point x="40" y="1016" type="line"/>
      <point x="40" y="342" type="line" smooth="yes"/>
      <point x="40" y="90"/>
      <point x="159" y="-45"/>
      <point x="387" y="-45" type="curve" smooth="yes"/>
      <point x="505" y="-45"/>
      <point x="597" y="-1"/>
      <point x="664" y="88" type="curve"/>
    </contour>
    <contour>
      <point x="604" y="1453" type="line"/>
      <point x="417" y="1453" type="line"/>
      <point x="105" y="1187" type="line"/>
      <point x="105" y="1169" type="line"/>
      <point x="356" y="1169" type="line"/>
      <point x="509" y="1300" type="line"/>
      <point x="662" y="1169" type="line"/>
      <point x="919" y="1169" type="line"/>
      <point x="919" y="1183" type="line"/>
    </contour>
  </outline>
</glyph>
<glyph name="udieresis" format="2">
  <advance width="1020"/>
  <unicode hex="00FC"/>
  <note>
uni00FC
</note>
  <outline>
    <contour>
      <point x="675" y="-25" type="line"/>
      <point x="980" y="-25" type="line"/>
      <point x="980" y="1016" type="line"/>
      <point x="653" y="1016" type="line"/>
      <point x="653" y="286" type="line"/>
      <point x="621" y="232"/>
      <point x="569" y="205"/>
      <point x="496" y="205" type="curve" smooth="yes"/>
      <point x="408" y="205"/>
      <point x="365" y="250"/>
      <point x="365" y="340" type="curve" smooth="yes"/>
      <point x="365" y="1016" type="line"/>
      <point x="40" y="1016" type="line"/>
      <point x="40" y="342" type="line" smooth="yes"/>
      <point x="40" y="90"/>
      <point x="159" y="-45"/>
      <point x="387" y="-45" type="curve" smooth="yes"/>
      <point x="505" y="-45"/>
      <point x="597" y="-1"/>
      <point x="664" y="88" type="curve"/>
    </contour>
    <contour>
      <point x="112" y="1288" type="curve" smooth="yes"/>
      <point x="112" y="1220"/>
      <point x="175" y="1161"/>
      <point x="258" y="1161" type="curve" smooth="yes"/>
      <point x="341" y="1161"/>
      <point x="403" y="1219"/>
      <point x="403" y="1289" type="curve" smooth="yes"/>
      <point x="403" y="1361"/>
      <point x="341" y="1417"/>
      <point x="258" y="1417" type="curve" smooth="yes"/>
      <point x="175" y="1417"/>
      <point x="112" y="1361"/>
    </contour>
    <contour>
      <point x="612" y="1288" type="curve" smooth="yes"/>
      <point x="612" y="1220"/>
      <point x="675" y="1161"/>
      <point x="758" y="1161" type="curve" smooth="yes"/>
      <point x="840" y="1161"/>
      <point x="903" y="1219"/>
      <point x="903" y="1289" type="curve" smooth="yes"/>
      <point x="903" y="1361"/>
      <point x="840" y="1417"/>
      <point x="758" y="1417" type="curve" smooth="yes"/>
      <point x="675" y="1417"/>
      <point x="612" y="1361"/>
    </contour>
  </outline>
</glyph>
<glyph name="yacute" format="2">
  <advance width="1112"/>
  <unicode hex="00FD"/>
  <note>
uni00FD
</note>
  <outline>
    <contour>
      <point x="384" y="1016" type="line"/>
      <point x="40" y="1016" type="line"/>
      <point x="401" y="-34" type="line"/>
      <point x="376" y="-103" type="line" smooth="yes"/>
      <point x="351" y="-172"/>
      <point x="309" y="-194"/>
      <point x="218" y="-194" type="curve" smooth="yes"/>
      <point x="178" y="-194" type="line"/>
      <point x="178" y="-426" type="line"/>
      <point x="225" y="-439"/>
      <point x="268" y="-447"/>
      <point x="311" y="-447" type="curve" smooth="yes"/>
      <point x="461" y="-447"/>
      <point x="569" y="-378"/>
      <point x="630" y="-243" type="curve" smooth="yes"/>
      <point x="648" y="-200" type="line"/>
      <point x="1072" y="1016" type="line"/>
      <point x="725" y="1016" type="line"/>
      <point x="552" y="428" type="line"/>
    </contour>
    <contour>
      <point x="403" y="1152" type="line"/>
      <point x="668" y="1152" type="line"/>
      <point x="937" y="1455" type="line"/>
      <point x="592" y="1455" type="line"/>
    </contour>
  </outline>
</glyph>
<glyph name="thorn" format="2">
  <advance width="1042"/>
  <unicode hex="00FE"/>
  <note>
uni00FE
</note>
  <outline>
    <contour>
      <point x="1002" y="516" type="curve"/>
      <point x="1002" y="854"/>
      <point x="851" y="1047"/>
      <point x="599" y="1047" type="curve" smooth="yes"/>
      <point x="505" y="1047"/>
      <point x="428" y="1014"/>
      <point x="367" y="946" type="curve"/>
      <point x="367" y="1464" type="line"/>
      <point x="40" y="1464" type="line"/>
      <point x="40" y="-415" type="line"/>
      <point x="367" y="-415" type="line"/>
      <point x="367" y="69" type="line"/>
      <point x="428" y="2"/>
      <point x="505" y="-34"/>
      <point x="601" y="-34" type="curve" smooth="yes"/>
      <point x="831" y="-34"/>
      <point x="1002" y="144"/>
    </contour>
    <contour>
      <point x="681" y="518" type="curve" smooth="yes"/>
      <point x="678" y="322"/>
      <point x="640" y="217"/>
      <point x="520" y="217" type="curve" smooth="yes"/>
      <point x="446" y="217"/>
      <point x="393" y="245"/>
      <point x="367" y="299" type="curve"/>
      <point x="367" y="716" type="line"/>
      <point x="391" y="770"/>
      <point x="444" y="798"/>
      <point x="518" y="798" type="curve" smooth="yes"/>
      <point x="626" y="798"/>
      <point x="681" y="705"/>
    </contour>
  </outline>
</glyph>
<glyph name="ydieresis" format="2">
  <advance width="1112"/>
  <unicode hex="00FF"/>
  <note>
uni00FF
</note>
  <outline>
    <contour>
      <point x="384" y="1007" type="line"/>
      <point x="40" y="1007" type="line"/>
      <point x="401" y="-43" type="line"/>
      <point x="376" y="-112" type="line" smooth="yes"/>
      <point x="351" y="-183"/>
      <point x="309" y="-202"/>
      <point x="218" y="-202" type="curve" smooth="yes"/>
      <point x="178" y="-202" type="line"/>
      <point x="178" y="-434" type="line"/>
      <point x="225" y="-449"/>
      <point x="268" y="-455"/>
      <point x="311" y="-455" type="curve" smooth="yes"/>
      <point x="461" y="-455"/>
      <point x="569" y="-387"/>
      <point x="630" y="-252" type="curve" smooth="yes"/>
      <point x="648" y="-209" type="line"/>
      <point x="1072" y="1007" type="line"/>
      <point x="725" y="1007" type="line"/>
      <point x="552" y="419" type="line"/>
    </contour>
    <contour>
      <point x="155" y="1279" type="curve" smooth="yes"/>
      <point x="155" y="1208"/>
      <point x="218" y="1154"/>
      <point x="301" y="1154" type="curve" smooth="yes"/>
      <point x="382" y="1154"/>
      <point x="446" y="1208"/>
      <point x="446" y="1279" type="curve" smooth="yes"/>
      <point x="446" y="1352"/>
      <point x="382" y="1408"/>
      <point x="301" y="1408" type="curve" smooth="yes"/>
      <point x="218" y="1408"/>
      <point x="155" y="1352"/>
    </contour>
    <contour>
      <point x="655" y="1279" type="curve" smooth="yes"/>
      <point x="655" y="1208"/>
      <point x="718" y="1154"/>
      <point x="801" y="1154" type="curve" smooth="yes"/>
      <point x="883" y="1154"/>
      <point x="945" y="1208"/>
      <point x="945" y="1279" type="curve" smooth="yes"/>
      <point x="945" y="1352"/>
      <point x="883" y="1408"/>
      <point x="801" y="1408" type="curve" smooth="yes"/>
      <point x="718" y="1408"/>
      <point x="655" y="1352"/>
    </contour>
  </outline>
</glyph>
<glyph name="OE" format="2">
  <advance width="1839"/>
  <unicode hex="0152"/>
  <note>
uni0152
</note>
  <outline>
    <contour>
      <point x="1797" y="234" type="line"/>
      <point x="1171" y="234" type="line"/>
      <point x="1171" y="568" type="line"/>
      <point x="1702" y="568" type="line"/>
      <point x="1702" y="820" type="line"/>
      <point x="1171" y="820" type="line"/>
      <point x="1171" y="1115" type="line"/>
      <point x="1799" y="1115" type="line"/>
      <point x="1799" y="1376" type="line"/>
      <point x="926" y="1376" type="line"/>
      <point x="817" y="1390"/>
      <point x="724" y="1397"/>
      <point x="646" y="1397" type="curve" smooth="yes"/>
      <point x="288" y="1397"/>
      <point x="40" y="1164"/>
      <point x="40" y="823" type="curve" smooth="yes"/>
      <point x="40" y="527" type="line" smooth="yes"/>
      <point x="40" y="193"/>
      <point x="283" y="-45"/>
      <point x="648" y="-45" type="curve" smooth="yes"/>
      <point x="725" y="-45"/>
      <point x="817" y="-38"/>
      <point x="926" y="-25" type="curve"/>
      <point x="1797" y="-25" type="line"/>
    </contour>
    <contour>
      <point x="648" y="205" type="curve" smooth="yes"/>
      <point x="475" y="205"/>
      <point x="367" y="314"/>
      <point x="367" y="529" type="curve" smooth="yes"/>
      <point x="367" y="825" type="line" smooth="yes"/>
      <point x="367" y="1041"/>
      <point x="471" y="1144"/>
      <point x="646" y="1144" type="curve" smooth="yes"/>
      <point x="704" y="1144"/>
      <point x="767" y="1141"/>
      <point x="833" y="1133" type="curve"/>
      <point x="833" y="217" type="line"/>
      <point x="773" y="209"/>
      <point x="711" y="205"/>
    </contour>
  </outline>
</glyph>
<glyph name="oe" format="2">
  <advance width="1707"/>
  <unicode hex="0153"/>
  <note>
uni0153
</note>
  <outline>
    <contour>
      <point x="40" y="449" type="line"/>
      <point x="56" y="145"/>
      <point x="247" y="-45"/>
      <point x="545" y="-45" type="curve" smooth="yes"/>
      <point x="687" y="-45"/>
      <point x="804" y="-3"/>
      <point x="892" y="79" type="curve"/>
      <point x="985" y="-3"/>
      <point x="1099" y="-45"/>
      <point x="1236" y="-45" type="curve" smooth="yes"/>
      <point x="1395" y="-45"/>
      <point x="1553" y="3"/>
      <point x="1646" y="73" type="curve"/>
      <point x="1570" y="271" type="line"/>
      <point x="1495" y="241" type="line" smooth="yes"/>
      <point x="1435" y="217"/>
      <point x="1363" y="205"/>
      <point x="1281" y="205" type="curve" smooth="yes"/>
      <point x="1168" y="205"/>
      <point x="1087" y="272"/>
      <point x="1063" y="392" type="curve"/>
      <point x="1667" y="392" type="line"/>
      <point x="1667" y="559" type="line" smooth="yes"/>
      <point x="1667" y="856"/>
      <point x="1497" y="1034"/>
      <point x="1214" y="1034" type="curve" smooth="yes"/>
      <point x="1080" y="1035"/>
      <point x="971" y="997"/>
      <point x="885" y="917" type="curve"/>
      <point x="796" y="996"/>
      <point x="683" y="1034"/>
      <point x="543" y="1034" type="curve" smooth="yes"/>
      <point x="229" y="1034"/>
      <point x="40" y="816"/>
      <point x="40" y="505" type="curve" smooth="yes"/>
    </contour>
    <contour>
      <point x="367" y="543" type="line"/>
      <point x="376" y="704"/>
      <point x="434" y="784"/>
      <point x="543" y="784" type="curve" smooth="yes"/>
      <point x="663" y="784"/>
      <point x="722" y="691"/>
      <point x="722" y="505" type="curve" smooth="yes"/>
      <point x="722" y="471" type="line" smooth="yes"/>
      <point x="720" y="294"/>
      <point x="661" y="205"/>
      <point x="545" y="205" type="curve" smooth="yes"/>
      <point x="424" y="205"/>
      <point x="365" y="298"/>
      <point x="365" y="484" type="curve" smooth="yes"/>
    </contour>
    <contour>
      <point x="1214" y="784" type="curve" smooth="yes"/>
      <point x="1304" y="784"/>
      <point x="1349" y="730"/>
      <point x="1349" y="622" type="curve" smooth="yes"/>
      <point x="1349" y="595" type="line"/>
      <point x="1063" y="595" type="line"/>
      <point x="1077" y="721"/>
      <point x="1128" y="784"/>
    </contour>
  </outline>
</glyph>
<glyph name="Scaron" format="2">
  <advance width="1185"/>
  <unicode hex="0160"/>
  <note>
uni0160
</note>
  <outline>
    <contour>
      <point x="808" y="347" type="curve" smooth="yes"/>
      <point x="808" y="260"/>
      <point x="736" y="209"/>
      <point x="625" y="209" type="curve" smooth="yes"/>
      <point x="451" y="209"/>
      <point x="380" y="277"/>
      <point x="380" y="430" type="curve"/>
      <point x="40" y="430" type="line"/>
      <point x="40" y="244"/>
      <point x="133" y="99"/>
      <point x="318" y="17" type="curve" smooth="yes"/>
      <point x="410" y="-24"/>
      <point x="513" y="-45"/>
      <point x="625" y="-45" type="curve" smooth="yes"/>
      <point x="949" y="-45"/>
      <point x="1145" y="103"/>
      <point x="1145" y="349" type="curve" smooth="yes"/>
      <point x="1145" y="503"/>
      <point x="1070" y="624"/>
      <point x="919" y="712" type="curve" smooth="yes"/>
      <point x="776" y="792"/>
      <point x="571" y="829"/>
      <point x="475" y="902" type="curve" smooth="yes"/>
      <point x="437" y="932"/>
      <point x="418" y="964"/>
      <point x="418" y="998" type="curve" smooth="yes"/>
      <point x="418" y="1082"/>
      <point x="491" y="1140"/>
      <point x="614" y="1140" type="curve" smooth="yes"/>
      <point x="734" y="1140"/>
      <point x="808" y="1076"/>
      <point x="808" y="961" type="curve"/>
      <point x="1145" y="961" type="line"/>
      <point x="1145" y="1212"/>
      <point x="935" y="1397"/>
      <point x="621" y="1397" type="curve" smooth="yes"/>
      <point x="306" y="1397"/>
      <point x="83" y="1241"/>
      <point x="83" y="1002" type="curve" smooth="yes"/>
      <point x="83" y="846"/>
      <point x="173" y="724"/>
      <point x="355" y="636" type="curve" smooth="yes"/>
      <point x="489" y="567"/>
      <point x="673" y="527"/>
      <point x="755" y="463" type="curve" smooth="yes"/>
      <point x="790" y="436"/>
      <point x="808" y="396"/>
    </contour>
    <contour>
      <point x="472" y="1752" type="line"/>
      <point x="193" y="1752" type="line"/>
      <point x="193" y="1744" type="line"/>
      <point x="511" y="1469" type="line"/>
      <point x="720" y="1469" type="line"/>
      <point x="1033" y="1741" type="line"/>
      <point x="1033" y="1752" type="line"/>
      <point x="756" y="1752" type="line"/>
      <point x="616" y="1623" type="line"/>
    </contour>
  </outline>
</glyph>
<glyph name="scaron" format="2">
  <advance width="997"/>
  <unicode hex="0161"/>
  <note>
uni0161
</note>
  <outline>
    <contour>
      <point x="644" y="268" type="curve" smooth="yes"/>
      <point x="644" y="211"/>
      <point x="598" y="169"/>
      <point x="511" y="169" type="curve" smooth="yes"/>
      <point x="415" y="169"/>
      <point x="345" y="212"/>
      <point x="342" y="309" type="curve"/>
      <point x="40" y="309" type="line"/>
      <point x="40" y="124"/>
      <point x="220" y="-45"/>
      <point x="502" y="-45" type="curve" smooth="yes"/>
      <point x="770" y="-45"/>
      <point x="957" y="88"/>
      <point x="957" y="277" type="curve" smooth="yes"/>
      <point x="957" y="417"/>
      <point x="879" y="513"/>
      <point x="722" y="565" type="curve" smooth="yes"/>
      <point x="617" y="602"/>
      <point x="484" y="611"/>
      <point x="422" y="652" type="curve" smooth="yes"/>
      <point x="395" y="671"/>
      <point x="380" y="694"/>
      <point x="380" y="723" type="curve" smooth="yes"/>
      <point x="380" y="780"/>
      <point x="433" y="823"/>
      <point x="502" y="823" type="curve" smooth="yes"/>
      <point x="589" y="823"/>
      <point x="633" y="780"/>
      <point x="633" y="696" type="curve"/>
      <point x="957" y="696" type="line"/>
      <point x="957" y="901"/>
      <point x="778" y="1034"/>
      <point x="502" y="1034" type="curve" smooth="yes"/>
      <point x="247" y="1034"/>
      <point x="74" y="897"/>
      <point x="74" y="707" type="curve" smooth="yes"/>
      <point x="74" y="542"/>
      <point x="198" y="438"/>
      <point x="434" y="385" type="curve" smooth="yes"/>
      <point x="516" y="367"/>
      <point x="571" y="350"/>
      <point x="600" y="333" type="curve" smooth="yes"/>
      <point x="629" y="317"/>
      <point x="644" y="295"/>
    </contour>
    <contour>
      <point x="356" y="1455" type="line"/>
      <point x="77" y="1455" type="line"/>
      <point x="77" y="1447" type="line"/>
      <point x="389" y="1172" type="line"/>
      <point x="599" y="1172" type="line"/>
      <point x="915" y="1444" type="line"/>
      <point x="915" y="1455" type="line"/>
      <point x="638" y="1455" type="line"/>
      <point x="496" y="1327" type="line"/>
    </contour>
  </outline>
</glyph>
<glyph name="Ydieresis" format="2">
  <advance width="1323"/>
  <unicode hex="0178"/>
  <note>
uni0178
</note>
  <outline>
    <contour>
      <point x="403" y="1404" type="line"/>
      <point x="40" y="1404" type="line"/>
      <point x="491" y="505" type="line"/>
      <point x="491" y="0" type="line"/>
      <point x="833" y="0" type="line"/>
      <point x="833" y="505" type="line"/>
      <point x="1283" y="1404" type="line"/>
      <point x="921" y="1404" type="line"/>
      <point x="661" y="793" type="line"/>
    </contour>
    <contour>
      <point x="265" y="1613" type="curve" smooth="yes"/>
      <point x="265" y="1544"/>
      <point x="328" y="1485"/>
      <point x="410" y="1485" type="curve" smooth="yes"/>
      <point x="493" y="1485"/>
      <point x="555" y="1543"/>
      <point x="555" y="1614" type="curve" smooth="yes"/>
      <point x="555" y="1685"/>
      <point x="493" y="1739"/>
      <point x="410" y="1739" type="curve" smooth="yes"/>
      <point x="328" y="1739"/>
      <point x="265" y="1685"/>
    </contour>
    <contour>
      <point x="764" y="1613" type="curve" smooth="yes"/>
      <point x="764" y="1544"/>
      <point x="827" y="1485"/>
      <point x="910" y="1485" type="curve" smooth="yes"/>
      <point x="993" y="1485"/>
      <point x="1056" y="1543"/>
      <point x="1056" y="1614" type="curve" smooth="yes"/>
      <point x="1056" y="1685"/>
      <point x="993" y="1739"/>
      <point x="910" y="1739" type="curve" smooth="yes"/>
      <point x="827" y="1739"/>
      <point x="764" y="1685"/>
    </contour>
  </outline>
</glyph>
<glyph name="Zcaron" format="2">
  <advance width="1175"/>
  <unicode hex="017D"/>
  <note>
uni017D
</note>
  <outline>
    <contour>
      <point x="1130" y="1228" type="line"/>
      <point x="1130" y="1404" type="line"/>
      <point x="40" y="1404" type="line"/>
      <point x="40" y="1140" type="line"/>
      <point x="711" y="1140" type="line"/>
      <point x="45" y="178" type="line"/>
      <point x="45" y="0" type="line"/>
      <point x="1135" y="0" type="line"/>
      <point x="1135" y="260" type="line"/>
      <point x="466" y="260" type="line"/>
    </contour>
    <contour>
      <point x="453" y="1780" type="line"/>
      <point x="173" y="1780" type="line"/>
      <point x="173" y="1771" type="line"/>
      <point x="488" y="1496" type="line"/>
      <point x="696" y="1496" type="line"/>
      <point x="1012" y="1769" type="line"/>
      <point x="1012" y="1780" type="line"/>
      <point x="734" y="1780" type="line"/>
      <point x="592" y="1651" type="line"/>
    </contour>
  </outline>
</glyph>
<glyph name="zcaron" format="2">
  <advance width="965"/>
  <unicode hex="017E"/>
  <note>
uni017E
</note>
  <outline>
    <contour>
      <point x="914" y="867" type="line"/>
      <point x="914" y="1041" type="line"/>
      <point x="60" y="1041" type="line"/>
      <point x="60" y="791" type="line"/>
      <point x="502" y="791" type="line"/>
      <point x="40" y="183" type="line"/>
      <point x="40" y="0" type="line"/>
      <point x="925" y="0" type="line"/>
      <point x="925" y="250" type="line"/>
      <point x="450" y="250" type="line"/>
    </contour>
    <contour>
      <point x="341" y="1481" type="line"/>
      <point x="62" y="1481" type="line"/>
      <point x="62" y="1471" type="line"/>
      <point x="377" y="1196" type="line"/>
      <point x="588" y="1196" type="line"/>
      <point x="900" y="1469" type="line"/>
      <point x="900" y="1481" type="line"/>
      <point x="623" y="1481" type="line"/>
      <point x="483" y="1352" type="line"/>
    </contour>
  </outline>
</glyph>
<glyph name="florin" format="2">
  <advance width="893"/>
  <unicode hex="0192"/>
  <note>
uni0192
</note>
  <outline>
    <contour>
      <point x="810" y="639" type="line"/>
      <point x="593" y="639" type="line"/>
      <point x="593" y="723" type="line" smooth="yes"/>
      <point x="593" y="856"/>
      <point x="726" y="856" type="qcurve" smooth="yes"/>
      <point x="781" y="856"/>
      <point x="828" y="846" type="qcurve"/>
      <point x="853" y="1098" type="line"/>
      <point x="753" y="1118"/>
      <point x="685" y="1118" type="qcurve" smooth="yes"/>
      <point x="474" y="1118"/>
      <point x="251" y="913"/>
      <point x="251" y="725" type="qcurve" smooth="yes"/>
      <point x="251" y="639" type="line"/>
      <point x="93" y="639" type="line"/>
      <point x="93" y="403" type="line"/>
      <point x="251" y="403" type="line"/>
      <point x="251" y="-492" type="line" smooth="yes"/>
      <point x="251" y="-569"/>
      <point x="202" y="-633"/>
      <point x="142" y="-633" type="qcurve" smooth="yes"/>
      <point x="91" y="-633"/>
      <point x="54" y="-621" type="qcurve"/>
      <point x="40" y="-879" type="line"/>
      <point x="112" y="-895"/>
      <point x="202" y="-895" type="qcurve" smooth="yes"/>
      <point x="388" y="-895"/>
      <point x="591" y="-684"/>
      <point x="591" y="-492" type="qcurve" smooth="yes"/>
      <point x="593" y="403" type="line"/>
      <point x="810" y="403" type="line"/>
    </contour>
  </outline>
</glyph>
<glyph name="comma-ar" format="2">
  <advance width="580"/>
  <unicode hex="060C"/>
  <outline>
    <contour>
      <point x="289" y="176" type="line"/>
      <point x="289" y="311"/>
      <point x="328" y="444"/>
      <point x="367" y="561" type="curve" smooth="yes"/>
      <point x="371" y="573"/>
      <point x="362" y="580"/>
      <point x="348" y="582" type="curve" smooth="yes"/>
      <point x="317" y="588"/>
      <point x="287" y="588"/>
      <point x="256" y="582" type="curve" smooth="yes"/>
      <point x="246" y="580"/>
      <point x="238" y="578"/>
      <point x="231" y="567" type="curve" smooth="yes"/>
      <point x="186" y="502"/>
      <point x="102" y="328"/>
      <point x="102" y="176" type="curve"/>
    </contour>
    <component base="period" xOffset="-16"/>
  </outline>
</glyph>
<glyph name="alefHamzaabove-ar" format="2">
  <advance width="510"/>
  <unicode hex="0623"/>
  <anchor x="240" y="-158" name="bottom"/>
  <anchor x="169" y="1859" name="top"/>
  <outline>
    <contour>
      <point x="414" y="0" type="line"/>
      <point x="414" y="1253" type="line" smooth="yes"/>
      <point x="414" y="1268"/>
      <point x="403" y="1274"/>
      <point x="389" y="1270" type="curve" smooth="yes"/>
      <point x="295" y="1243"/>
      <point x="207" y="1206"/>
      <point x="121" y="1155" type="curve" smooth="yes"/>
      <point x="111" y="1149"/>
      <point x="104" y="1143"/>
      <point x="104" y="1133" type="curve" smooth="yes"/>
      <point x="109" y="0" type="line"/>
    </contour>
    <component base="_smallhamza" xOffset="172" yOffset="1556" identifier="770AF4B3"/>
  </outline>
</glyph>
<glyph name="alef-ar" format="2">
  <advance width="471"/>
  <unicode hex="0627"/>
  <anchor x="252" y="-171" name="bottom"/>
  <anchor x="228" y="1560" name="top"/>
  <outline>
    <contour>
      <point x="389" y="31" type="curve" smooth="yes"/>
      <point x="389" y="1497" type="line" smooth="yes"/>
      <point x="389" y="1513"/>
      <point x="377" y="1520"/>
      <point x="362" y="1516" type="curve" smooth="yes"/>
      <point x="270" y="1487"/>
      <point x="182" y="1450"/>
      <point x="98" y="1405" type="curve" smooth="yes"/>
      <point x="86" y="1399"/>
      <point x="82" y="1391"/>
      <point x="82" y="1378" type="curve" smooth="yes"/>
      <point x="82" y="31" type="line" smooth="yes"/>
      <point x="82" y="12"/>
      <point x="94" y="0"/>
      <point x="113" y="0" type="curve" smooth="yes"/>
      <point x="358" y="0" type="line" smooth="yes"/>
      <point x="377" y="0"/>
      <point x="389" y="12"/>
    </contour>
  </outline>
</glyph>
<glyph name="hah-ar" format="2">
  <advance width="1208"/>
  <unicode hex="062D"/>
  <anchor x="315" y="-726" name="bottom"/>
  <anchor x="479" y="1116" name="top"/>
  <outline>
    <contour>
      <point x="821" y="-602" type="curve" smooth="yes"/>
      <point x="870" y="-514"/>
      <point x="899" y="-426"/>
      <point x="903" y="-334" type="curve" smooth="yes"/>
      <point x="903" y="-319"/>
      <point x="901" y="-311"/>
      <point x="887" y="-311" type="curve" smooth="yes"/>
      <point x="629" y="-311" type="line" smooth="yes"/>
      <point x="479" y="-311"/>
      <point x="389" y="-254"/>
      <point x="389" y="-147" type="curve" smooth="yes"/>
      <point x="389" y="-57"/>
      <point x="461" y="0"/>
      <point x="567" y="0" type="curve" smooth="yes"/>
      <point x="1147" y="0" type="line"/>
      <point x="1145" y="371"/>
      <point x="1028" y="952"/>
      <point x="588" y="956" type="curve" smooth="yes"/>
      <point x="498" y="956"/>
      <point x="414" y="936"/>
      <point x="342" y="918" type="curve" smooth="yes"/>
      <point x="330" y="915"/>
      <point x="326" y="907"/>
      <point x="324" y="895" type="curve" smooth="yes"/>
      <point x="309" y="817"/>
      <point x="309" y="731"/>
      <point x="324" y="641" type="curve" smooth="yes"/>
      <point x="326" y="627"/>
      <point x="332" y="618"/>
      <point x="348" y="623" type="curve" smooth="yes"/>
      <point x="432" y="647"/>
      <point x="494" y="653"/>
      <point x="522" y="653" type="curve" smooth="yes"/>
      <point x="764" y="657"/>
      <point x="780" y="446"/>
      <point x="811" y="307" type="curve"/>
      <point x="567" y="307" type="line" smooth="yes"/>
      <point x="291" y="307"/>
      <point x="82" y="114"/>
      <point x="82" y="-145" type="curve" smooth="yes"/>
      <point x="82" y="-432"/>
      <point x="279" y="-618"/>
      <point x="604" y="-618" type="curve" smooth="yes"/>
      <point x="797" y="-618" type="line" smooth="yes"/>
      <point x="807" y="-618"/>
      <point x="815" y="-612"/>
    </contour>
  </outline>
</glyph>
<glyph name="reh-ar" format="2">
  <advance width="479"/>
  <unicode hex="0631"/>
  <anchor x="194" y="-532" name="bottom"/>
  <anchor x="277" y="1206" name="top"/>
  <outline>
    <contour>
      <point x="144" y="-499" type="curve"/>
      <point x="277" y="-411"/>
      <point x="391" y="-231"/>
      <point x="399" y="10" type="curve"/>
      <point x="399" y="926" type="line" smooth="yes"/>
      <point x="399" y="940"/>
      <point x="389" y="946"/>
      <point x="375" y="942" type="curve" smooth="yes"/>
      <point x="284" y="915"/>
      <point x="194" y="879"/>
      <point x="108" y="827" type="curve" smooth="yes"/>
      <point x="98" y="821"/>
      <point x="92" y="815"/>
      <point x="92" y="805" type="curve" smooth="yes"/>
      <point x="91" y="0" type="line"/>
      <point x="84" y="-98"/>
      <point x="30" y="-200"/>
      <point x="-52" y="-259" type="curve" smooth="yes"/>
      <point x="-64" y="-268"/>
      <point x="-60" y="-278"/>
      <point x="-56" y="-288" type="curve" smooth="yes"/>
      <point x="-21" y="-362"/>
      <point x="43" y="-450"/>
      <point x="115" y="-495" type="curve" smooth="yes"/>
      <point x="123" y="-501"/>
      <point x="133" y="-505"/>
    </contour>
  </outline>
</glyph>
<glyph name="kaf-ar" format="2">
  <advance width="1583"/>
  <unicode hex="0643"/>
  <anchor x="521" y="-156" name="bottom"/>
  <anchor x="541" y="1341" name="top"/>
  <outline>
    <contour>
      <point x="1153" y="0" type="line" smooth="yes"/>
      <point x="1384" y="0"/>
      <point x="1501" y="113"/>
      <point x="1501" y="336" type="curve" smooth="yes"/>
      <point x="1501" y="1522" type="line"/>
      <point x="1194" y="1391" type="line"/>
      <point x="1194" y="354" type="line" smooth="yes"/>
      <point x="1194" y="315"/>
      <point x="1180" y="307"/>
      <point x="1137" y="307" type="curve" smooth="yes"/>
      <point x="1055" y="307" type="line"/>
      <point x="1055" y="0" type="line"/>
    </contour>
    <contour>
      <point x="241.935" y="886.898" type="line"/>
      <point x="-9.349" y="618.446"/>
      <point x="-24.452" y="-1.5"/>
      <point x="662" y="-1.5" type="curve"/>
      <point x="1087" y="-1.5" type="line"/>
      <point x="1087" y="305.5" type="line"/>
      <point x="662" y="305.5" type="line"/>
      <point x="288.852" y="305.5"/>
      <point x="363.914" y="567.971"/>
      <point x="466.065" y="677.102" type="curve"/>
    </contour>
    <contour>
      <point x="1022" y="663" type="curve" smooth="yes"/>
      <point x="1022" y="768" type="line" smooth="yes"/>
      <point x="1022" y="849"/>
      <point x="961" y="997"/>
      <point x="826" y="997" type="curve"/>
      <point x="888" y="1035" type="line" smooth="yes"/>
      <point x="960" y="1079"/>
      <point x="959" y="1168"/>
      <point x="931" y="1226" type="curve"/>
      <point x="618" y="1012" type="line"/>
      <point x="628" y="913" type="line" smooth="yes"/>
      <point x="633" y="865"/>
      <point x="655" y="839"/>
      <point x="703" y="839" type="curve" smooth="yes"/>
      <point x="810" y="839" type="line" smooth="yes"/>
      <point x="846" y="839"/>
      <point x="855" y="820"/>
      <point x="855" y="801" type="curve" smooth="yes"/>
      <point x="855" y="795"/>
      <point x="852" y="792"/>
      <point x="846" y="792" type="curve" smooth="yes"/>
      <point x="582" y="792" type="line"/>
      <point x="577" y="678"/>
      <point x="618" y="623"/>
      <point x="729" y="623" type="curve" smooth="yes"/>
      <point x="982" y="623" type="line" smooth="yes"/>
      <point x="1008" y="623"/>
      <point x="1022" y="637"/>
    </contour>
  </outline>
</glyph>
<glyph name="meem-ar" format="2">
  <advance width="1309"/>
  <unicode hex="0645"/>
  <anchor x="768" y="-182" name="bottom"/>
  <anchor x="501" y="1035" name="top"/>
  <outline>
    <component base="_roundhead" xOffset="352" identifier="8C91B2C6"/>
    <contour>
      <point x="82" y="154" type="curve" smooth="yes"/>
      <point x="82" y="-438" type="line" smooth="yes"/>
      <point x="82" y="-451"/>
      <point x="90" y="-457"/>
      <point x="102" y="-459" type="curve" smooth="yes"/>
      <point x="190" y="-479"/>
      <point x="281" y="-479"/>
      <point x="369" y="-459" type="curve" smooth="yes"/>
      <point x="381" y="-457"/>
      <point x="389" y="-451"/>
      <point x="389" y="-438" type="curve" smooth="yes"/>
      <point x="389" y="-20" type="line" smooth="yes"/>
      <point x="389" y="-8"/>
      <point x="397" y="0"/>
      <point x="410" y="0" type="curve" smooth="yes"/>
      <point x="676" y="0" type="line"/>
      <point x="676" y="307" type="line"/>
      <point x="236" y="307" type="line" smooth="yes"/>
      <point x="137" y="307"/>
      <point x="82" y="252"/>
    </contour>
  </outline>
</glyph>
<glyph name="heh-ar" format="2">
  <advance width="1026"/>
  <unicode hex="0647"/>
  <anchor x="354" y="-167" name="bottom"/>
  <anchor x="473" y="1240" name="top"/>
  <outline>
    <contour>
      <point x="524" y="0" type="curve" smooth="yes"/>
      <point x="784" y="0"/>
      <point x="995" y="211"/>
      <point x="995" y="471" type="curve" smooth="yes"/>
      <point x="995" y="731"/>
      <point x="784" y="942"/>
      <point x="524" y="942" type="curve" smooth="yes"/>
      <point x="264" y="942"/>
      <point x="53" y="731"/>
      <point x="53" y="471" type="curve" smooth="yes"/>
      <point x="53" y="211"/>
      <point x="264" y="0"/>
    </contour>
    <contour>
      <point x="524" y="309" type="curve" smooth="yes"/>
      <point x="436" y="309"/>
      <point x="362" y="383"/>
      <point x="362" y="471" type="curve" smooth="yes"/>
      <point x="362" y="559"/>
      <point x="436" y="633"/>
      <point x="524" y="633" type="curve" smooth="yes"/>
      <point x="612" y="633"/>
      <point x="686" y="559"/>
      <point x="686" y="471" type="curve" smooth="yes"/>
      <point x="686" y="383"/>
      <point x="612" y="309"/>
    </contour>
  </outline>
</glyph>
<glyph name="waw-ar" format="2">
  <advance width="1026"/>
  <unicode hex="0648"/>
  <anchor x="285" y="-444" name="bottom"/>
  <anchor x="466" y="1136" name="top"/>
  <outline>
    <contour>
      <point x="701" y="-438" type="curve" smooth="yes"/>
      <point x="834" y="-350"/>
      <point x="936" y="-231"/>
      <point x="944" y="10" type="curve" smooth="yes"/>
      <point x="944" y="31"/>
      <point x="936" y="41"/>
      <point x="924" y="41" type="curve" smooth="yes"/>
      <point x="658" y="41" type="line" smooth="yes"/>
      <point x="645" y="41"/>
      <point x="637" y="33"/>
      <point x="637" y="20" type="curve" smooth="yes"/>
      <point x="633" y="-88"/>
      <point x="602" y="-164"/>
      <point x="514" y="-227" type="curve" smooth="yes"/>
      <point x="502" y="-236"/>
      <point x="506" y="-246"/>
      <point x="510" y="-256" type="curve" smooth="yes"/>
      <point x="545" y="-330"/>
      <point x="600" y="-389"/>
      <point x="672" y="-434" type="curve" smooth="yes"/>
      <point x="680" y="-440"/>
      <point x="690" y="-444"/>
    </contour>
    <component base="_roundhead" xOffset="70"/>
  </outline>
</glyph>
